<svg width="353" height="280" viewBox="0 0 353 280" fill="none" xmlns="http://www.w3.org/2000/svg">
<path d="M186.664 121.875C188.687 117.634 190.003 113.091 190.812 108.547L200.222 105.719L199.21 95.1172L198.198 84.515L188.485 83.5053C186.967 79.1634 184.741 75.0235 182.01 71.1865L186.664 62.6037L178.468 55.8385L170.273 49.0732L162.685 55.2326C158.435 53.2132 153.882 51.9005 149.329 51.0927L146.496 41.7021L135.873 42.7119L125.249 43.7216L124.237 53.4151C119.887 54.9297 115.738 57.1511 111.894 59.8774L103.293 55.2326L96.5145 63.4115L89.7356 71.5904L95.9074 79.1634C93.8839 83.4043 92.5686 87.9481 91.7591 92.4919L82.3496 95.3192L83.3614 105.921L84.3732 116.524L94.0862 117.533C95.6039 121.875 97.8298 126.015 100.562 129.852L95.9074 138.435L104.103 145.2L112.298 151.965L119.887 145.806C124.136 147.825 128.689 149.138 133.242 149.946L136.075 159.336L146.699 158.327L157.322 157.317L158.334 147.624C162.685 146.109 166.833 143.888 170.678 141.161L179.278 145.806L186.057 137.627L192.836 129.448L186.664 121.875ZM124.44 120.664C113.31 111.475 111.792 95.0163 120.999 83.9091C130.207 72.802 146.699 71.2874 157.828 80.476C168.958 89.6646 170.475 106.123 161.268 117.23C152.061 128.237 135.569 129.852 124.44 120.664Z" fill="#704ABE"/>
<path d="M248.989 131.973C249.799 121.471 250.305 111.576 250.608 102.387C248.079 101.075 244.942 99.4591 242.514 98.3484C234.926 94.7133 224.302 89.8666 217.523 86.7364C213.577 84.9189 209.631 83.6062 209.631 83.6062C209.631 83.6062 182.516 80.9809 180.29 81.1828C179.581 81.1828 176.243 82.3945 171.791 84.1111C162.179 87.7461 143.663 95.2182 140.628 97.3386C136.277 100.469 120.797 176.3 120.392 181.45C119.988 186.498 141.437 193.264 161.369 198.514C161.369 206.188 161.167 216.992 161.066 226.787C161.066 228.503 160.965 230.119 160.965 231.735H247.978C247.876 230.018 247.775 228.402 247.674 226.787C247.674 226.585 247.674 226.383 247.674 226.181C247.371 219.517 246.055 207.602 246.359 195.99C246.359 195.99 246.156 183.772 247.371 178.521C247.573 155.096 248.989 131.973 248.989 131.973ZM138.604 176.603C138.706 166.708 151.96 148.33 151.96 148.33C151.96 148.33 152.567 148.027 152.567 148.128L153.275 148.027L155.299 146.109C155.805 147.825 160.155 172.665 161.167 187.104C148.823 184.681 138.503 181.248 138.604 176.603Z" fill="#DBD8E3"/>
<path d="M250.507 226.686C249.9 222.546 249.394 218.507 248.888 214.468C248.888 214.468 248.888 214.468 248.888 214.367C248.686 213.054 248.585 211.742 248.382 210.429C248.382 210.328 248.382 210.328 248.382 210.227C247.775 204.674 247.168 199.322 246.865 194.475C246.561 190.739 246.865 187.104 247.37 183.57C248.888 158.63 249.596 132.477 249.596 132.477C250.406 121.774 250.811 111.677 251.114 102.286C251.114 102.286 217.017 86.2315 213.982 85.3228C213.982 85.3228 220.457 100.469 225.314 134.295C227.135 147.321 230.676 169.232 233.104 191.547C234.42 203.563 237.05 215.882 238.973 226.787C239.276 228.503 239.58 230.119 239.782 231.735H251.215C251.013 229.917 250.811 228.301 250.507 226.686Z" fill="#3E3257"/>
<path d="M193.847 186.7C195.163 174.079 196.377 161.558 195.77 154.692C191.116 99.3581 177.76 84.7169 175.838 82.5964C174.32 83.2023 168.654 85.3227 167.035 85.9286C157.929 89.4626 139.414 96.0259 136.884 97.8435C132.534 100.974 115.435 180.44 114.929 185.59C114.625 189.023 136.884 196.293 159.649 202.856C159.447 209.116 160.054 217.901 157.929 226.989C157.525 228.604 157.019 229.614 156.918 231.836L188.586 231.735C188.789 230.119 188.991 228.503 189.193 226.787C189.8 221.839 190.407 216.79 191.014 211.439C200.525 213.862 207.001 215.478 207.001 215.478C207.001 215.478 215.904 200.433 218.535 194.273C219.041 193.062 207.608 190.335 193.847 186.7ZM152.87 167.616C152.567 156.307 152.668 148.431 152.668 148.431C153.781 152.268 155.299 163.375 156.715 174.381C152.061 172.059 152.87 169.939 152.87 167.616Z" fill="#3E3257"/>
<path d="M178.873 81.9906C178.873 81.9906 182.313 75.5283 181.403 57.0501C181.099 51.9005 208.316 69.167 208.316 69.167C208.316 69.167 208.215 70.8835 208.114 73.3069C208.114 74.3166 208.114 75.4273 208.114 76.538C208.114 76.841 208.114 77.1439 208.114 77.4468C208.114 77.9517 208.114 78.4565 208.114 78.9614C208.114 79.5672 208.114 80.1731 208.215 80.7789C208.215 81.4857 208.316 82.0916 208.316 82.6974C208.417 83.8081 209.125 85.8276 209.328 86.3325C210.643 89.0588 189.092 89.2607 178.873 81.9906Z" fill="#EEA987"/>
<path d="M201.739 93.7036L206.798 100.469C206.798 100.469 203.864 104.407 198.603 101.479L201.739 93.7036Z" fill="#E8734D"/>
<path d="M205.382 100.772C205.382 100.772 223.796 145.503 219.85 202.452L214.083 212.953L207.506 203.967C207.506 203.967 206.495 128.438 201.233 100.57L205.382 100.772Z" fill="#E8734D"/>
<path d="M207.102 87.4432L201.739 93.7035C201.739 93.7035 193.139 92.0879 190.61 87.5441C188.08 83.1013 207.102 87.4432 207.102 87.4432Z" fill="#EEA987"/>
<path d="M208.316 81.9906C208.316 81.9906 207.709 86.7364 201.739 93.7035L208.215 102.488L211.756 84.313L208.316 81.9906Z" fill="#C4C1CC"/>
<path d="M180.593 76.2351C180.593 76.2351 193.038 90.2705 201.739 93.7036L197.692 103.7L177.76 81.7887L180.593 76.2351Z" fill="#C4C1CC"/>
<path d="M308.684 203.462C308.684 203.462 292.192 187.407 281.265 184.782C276.206 183.57 269.63 176.603 263.357 168.525C261.333 165.9 259.309 163.072 257.286 160.245C249.596 149.138 243.526 138.536 243.526 138.536C243.526 138.536 220.862 111.879 239.074 100.065C239.074 100.065 246.865 99.8629 251.215 102.185C255.667 104.609 265.077 124.198 266.594 127.631C268.213 131.064 285.514 163.375 286.627 164.082C287.74 164.789 289.764 167.414 296.644 171.15C305.143 175.694 318.397 189.023 318.397 189.023L308.684 203.462Z" fill="#3E3257"/>
<path d="M229.26 222.041C229.26 222.041 226.933 221.94 225.921 221.435C225.921 221.435 224.201 220.325 222.885 219.618C222.481 219.416 222.076 219.214 221.874 219.113C220.862 218.709 218.535 218.103 216.309 216.488C214.184 214.872 207 208.208 207 208.208L211.553 201.14L213.678 194.172C213.678 194.172 230.17 195.788 232.396 197.101C232.598 197.202 232.801 197.404 233.003 197.505C234.723 198.817 235.533 200.534 236.342 201.241C236.646 201.543 239.58 204.573 239.377 205.885C239.175 207.602 238.264 208.713 237.253 209.217C237.253 209.217 236.646 212.55 234.926 214.064C234.926 214.064 234.521 217.194 231.789 218.406C231.89 218.507 231.182 221.637 229.26 222.041Z" fill="#EFAA88"/>
<path d="M202.954 9.28951C202.954 9.28951 232.801 2.12038 226.528 39.8845C220.255 77.6487 213.071 80.6779 194.859 73.2058C176.647 65.6328 177.963 41.5001 176.85 29.6862C175.737 17.8723 193.342 9.89535 202.954 9.28951Z" fill="#EEA886"/>
<path d="M187.271 35.4417C186.866 32.1096 180.188 30.9989 179.784 35.9466C179.278 40.8943 183.021 49.578 185.45 48.7702C187.878 47.8615 187.878 39.9855 187.271 35.4417Z" fill="#EEA886"/>
<path d="M178.57 48.9722C178.57 48.9722 179.177 37.0573 183.527 36.6534C187.878 36.2495 188.586 40.9953 188.586 40.9953L192.937 41.8031C192.937 41.8031 191.419 31.4028 195.669 29.5853C200.019 27.6668 223.796 34.9369 227.236 31.8067C230.676 28.6765 228.754 7.67397 222.38 4.84671C216.005 2.01944 198.603 -4.13995 185.956 4.64476C185.956 4.64476 176.04 3.63502 174.624 11.7129C173.41 19.5889 175.838 43.1157 178.57 48.9722Z" fill="#16202E"/>
<path d="M219.445 194.172L207.102 215.377C207.102 215.377 174.421 206.996 166.833 204.876L184.236 184.176C184.236 184.075 209.935 189.931 219.445 194.172Z" fill="#3E3257"/>
<path d="M208.215 80.678C192.229 79.0624 185.956 66.7436 185.956 66.7436C196.073 76.74 208.113 76.4371 208.113 76.4371C208.113 76.74 208.113 77.0429 208.113 77.3458C208.113 77.8507 208.113 78.3556 208.113 78.8604C208.215 79.5672 208.215 80.1731 208.215 80.678Z" fill="#A77860"/>
<path d="M242.615 176.704C261.232 195.788 285.717 219.82 285.717 219.82L295.329 201.644C295.329 201.644 273.575 176.098 258.803 159.135C254.25 161.356 245.954 166.708 242.615 176.704Z" fill="#EEA886"/>
<path d="M231.182 202.452C231.182 202.452 236.14 204.876 237.455 205.986C238.77 207.097 244.032 211.035 245.347 211.944C246.662 212.853 243.424 215.478 233.914 211.439C224.504 207.198 231.182 202.452 231.182 202.452Z" fill="#EEA886"/>
<path d="M231.587 147.825L222.885 228.705H337.621L346.322 147.825H231.587Z" fill="#A055FF"/>
<path d="M344.197 224.969H228.551L237.354 143.181H353L344.197 224.969ZM229.563 224.061H343.388L351.988 144.089H238.163L229.563 224.061Z" fill="#A055FF"/>
<path d="M213.794 228.71H232.916V221.44H213.794V228.71Z" fill="#FFC955"/>
<path d="M34.189 228.503H29.4336V233.451H34.189V228.503Z" fill="#DFAFF6"/>
<path d="M39.0455 228.503H34.2902V233.451H39.0455V228.503Z" fill="#DFAFF6"/>
<path d="M43.8008 228.503H39.0454V233.451H43.8008V228.503Z" fill="#DFAFF6"/>
<path d="M48.5561 228.503H43.8008V233.451H48.5561V228.503Z" fill="#DFAFF6"/>
<path d="M53.4128 228.503H48.6575V233.451H53.4128V228.503Z" fill="#DFAFF6"/>
<path d="M58.1681 228.503H53.4127V233.451H58.1681V228.503Z" fill="#DFAFF6"/>
<path d="M63.0246 228.503H58.2693V233.451H63.0246V228.503Z" fill="#DFAFF6"/>
<path d="M67.78 228.503H63.0247V233.451H67.78V228.503Z" fill="#DFAFF6"/>
<path d="M72.5354 228.503H67.78V233.451H72.5354V228.503Z" fill="#DFAFF6"/>
<path d="M77.3917 228.503H72.6364V233.451H77.3917V228.503Z" fill="#DFAFF6"/>
<path d="M82.1472 228.503H77.3918V233.451H82.1472V228.503Z" fill="#DFAFF6"/>
<path d="M87.0038 228.503H82.2484V233.451H87.0038V228.503Z" fill="#DFAFF6"/>
<path d="M91.7589 228.503H87.0035V233.451H91.7589V228.503Z" fill="#DFAFF6"/>
<path d="M96.5144 228.503H91.759V233.451H96.5144V228.503Z" fill="#DFAFF6"/>
<path d="M101.371 228.503H96.6155V233.451H101.371V228.503Z" fill="#DFAFF6"/>
<path d="M106.126 228.503H101.371V233.451H106.126V228.503Z" fill="#DFAFF6"/>
<path d="M110.983 228.503H106.228V233.451H110.983V228.503Z" fill="#DFAFF6"/>
<path d="M115.738 228.503H110.983V233.451H115.738V228.503Z" fill="#DFAFF6"/>
<path d="M120.494 228.503H115.738V233.451H120.494V228.503Z" fill="#DFAFF6"/>
<path d="M125.35 228.503H120.595V233.451H125.35V228.503Z" fill="#DFAFF6"/>
<path d="M130.105 228.503H125.35V233.451H130.105V228.503Z" fill="#DFAFF6"/>
<path d="M134.962 228.503H130.207V233.451H134.962V228.503Z" fill="#DFAFF6"/>
<path d="M139.717 228.503H134.962V233.451H139.717V228.503Z" fill="#DFAFF6"/>
<path d="M144.473 228.503H139.717V233.451H144.473V228.503Z" fill="#DFAFF6"/>
<path d="M149.329 228.503H144.574V233.451H149.329V228.503Z" fill="#DFAFF6"/>
<path d="M154.085 228.503H149.329V233.451H154.085V228.503Z" fill="#DFAFF6"/>
<path d="M158.941 228.503H154.186V233.451H158.941V228.503Z" fill="#DFAFF6"/>
<path d="M163.697 228.503H158.941V233.451H163.697V228.503Z" fill="#DFAFF6"/>
<path d="M168.553 228.503H163.797V233.451H168.553V228.503Z" fill="#DFAFF6"/>
<path d="M173.308 228.503H168.553V233.451H173.308V228.503Z" fill="#DFAFF6"/>
<path d="M178.064 228.503H173.308V233.451H178.064V228.503Z" fill="#DFAFF6"/>
<path d="M182.92 228.503H178.165V233.451H182.92V228.503Z" fill="#DFAFF6"/>
<path d="M187.675 228.503H182.92V233.451H187.675V228.503Z" fill="#DFAFF6"/>
<path d="M192.532 228.503H187.777V233.451H192.532V228.503Z" fill="#DFAFF6"/>
<path d="M197.287 228.503H192.532V233.451H197.287V228.503Z" fill="#DFAFF6"/>
<path d="M202.043 228.503H197.287V233.451H202.043V228.503Z" fill="#DFAFF6"/>
<path d="M206.899 228.503H202.144V233.451H206.899V228.503Z" fill="#DFAFF6"/>
<path d="M211.655 228.503H206.899V233.451H211.655V228.503Z" fill="#DFAFF6"/>
<path d="M216.511 228.503H211.756V233.451H216.511V228.503Z" fill="#DFAFF6"/>
<path d="M221.266 228.503H216.511V233.451H221.266V228.503Z" fill="#DFAFF6"/>
<path d="M226.022 228.503H221.267V233.451H226.022V228.503Z" fill="#DFAFF6"/>
<path d="M230.878 228.503H226.123V233.451H230.878V228.503Z" fill="#DFAFF6"/>
<path d="M235.634 228.503H230.878V233.451H235.634V228.503Z" fill="#DFAFF6"/>
<path d="M240.49 228.503H235.735V233.451H240.49V228.503Z" fill="#DFAFF6"/>
<path d="M245.246 228.503H240.49V233.451H245.246V228.503Z" fill="#DFAFF6"/>
<path d="M250.001 228.503H245.246V233.451H250.001V228.503Z" fill="#DFAFF6"/>
<path d="M254.858 228.503H250.102V233.451H254.858V228.503Z" fill="#DFAFF6"/>
<path d="M259.613 228.503H254.858V233.451H259.613V228.503Z" fill="#DFAFF6"/>
<path d="M264.469 228.503H259.714V233.451H264.469V228.503Z" fill="#DFAFF6"/>
<path d="M269.225 228.503H264.469V233.451H269.225V228.503Z" fill="#DFAFF6"/>
<path d="M273.98 228.503H269.225V233.451H273.98V228.503Z" fill="#DFAFF6"/>
<path d="M278.837 228.503H274.081V233.451H278.837V228.503Z" fill="#DFAFF6"/>
<path d="M283.592 228.503H278.837V233.451H283.592V228.503Z" fill="#DFAFF6"/>
<path d="M288.449 228.503H283.693V233.451H288.449V228.503Z" fill="#DFAFF6"/>
<path d="M293.204 228.503H288.448V233.451H293.204V228.503Z" fill="#DFAFF6"/>
<path d="M297.959 228.503H293.204V233.451H297.959V228.503Z" fill="#DFAFF6"/>
<path d="M302.816 228.503H298.061V233.451H302.816V228.503Z" fill="#DFAFF6"/>
<path d="M307.571 228.503H302.816V233.451H307.571V228.503Z" fill="#DFAFF6"/>
<path d="M312.428 228.503H307.672V233.451H312.428V228.503Z" fill="#DFAFF6"/>
<path d="M317.183 228.503H312.428V233.451H317.183V228.503Z" fill="#DFAFF6"/>
<path d="M321.938 228.503H317.183V233.451H321.938V228.503Z" fill="#DFAFF6"/>
<path d="M326.795 228.503H322.04V233.451H326.795V228.503Z" fill="#DFAFF6"/>
<path d="M331.55 228.503H326.795V233.451H331.55V228.503Z" fill="#DFAFF6"/>
<path d="M336.407 228.503H331.652V233.451H336.407V228.503Z" fill="#DFAFF6"/>
<path d="M341.162 228.503H336.407V233.451H341.162V228.503Z" fill="#DFAFF6"/>
<path d="M278.23 186.902C277.319 191.446 279.444 195.586 282.884 196.394C286.425 197.101 289.966 194.071 290.877 189.528C291.787 184.984 289.663 180.743 286.223 180.036C282.783 179.329 279.14 182.459 278.23 186.902Z" fill="black" fill-opacity="0.25"/>
<path d="M115.03 204.674H66.5658C63.0246 204.674 60.0905 201.745 60.0905 198.211V121.976C60.0905 118.442 63.0246 115.514 66.5658 115.514H114.929C118.47 115.514 121.404 118.442 121.404 121.976V198.211C121.505 201.745 118.571 204.674 115.03 204.674Z" fill="#C955FF"/>
<path d="M114.929 173.069H111.792V197.202H114.929V173.069Z" fill="#E3F2FF"/>
<path d="M108.656 175.795H105.519V197.202H108.656V175.795Z" fill="#E3F2FF"/>
<path d="M101.776 179.228H98.6394V197.101H101.776V179.228Z" fill="#E3F2FF"/>
<path d="M94.7946 183.671H91.6581V197.101H94.7946V183.671Z" fill="#E3F2FF"/>
<path d="M72.7378 180.844L72.0295 180.642L77.999 163.779L90.9498 160.346L95.7051 141.969L105.722 137.526L107.948 123.289L108.656 123.39L106.329 138.031L96.3122 142.474L91.5568 160.952L78.6061 164.385L72.7378 180.844Z" fill="#E3F2FF"/>
<path d="M92.771 159.437C93.4792 160.245 93.3781 161.457 92.4675 162.164C91.658 162.871 90.4439 162.77 89.7357 161.861C89.0274 161.053 89.1286 159.841 90.0392 159.135C90.8486 158.529 92.1639 158.63 92.771 159.437Z" fill="#C955FF"/>
<path d="M92.7708 162.467C91.7591 163.274 90.3426 163.174 89.5331 162.164C88.7237 161.154 88.8249 159.74 89.8367 158.933C90.8485 158.125 92.2649 158.226 93.0744 159.235C93.8838 160.245 93.7826 161.659 92.7708 162.467ZM90.3426 159.437C89.6343 159.942 89.5332 160.952 90.1402 161.659C90.6461 162.366 91.6579 162.467 92.3661 161.861C93.0744 161.356 93.1755 160.346 92.5685 159.639C91.9614 159.034 90.9496 158.933 90.3426 159.437Z" fill="#E3F2FF"/>
<path d="M97.5263 141.161C98.2345 141.969 98.1333 143.181 97.2227 143.888C96.4133 144.594 95.1992 144.493 94.4909 143.585C93.7827 142.777 93.8838 141.565 94.7944 140.858C95.6039 140.151 96.818 140.252 97.5263 141.161Z" fill="#C955FF"/>
<path d="M97.5263 144.19C96.5145 144.998 95.0981 144.897 94.2886 143.888C93.4792 142.878 93.5804 141.464 94.5922 140.656C95.6039 139.849 97.0204 139.95 97.8299 140.959C98.6393 141.868 98.4369 143.383 97.5263 144.19ZM94.9969 141.161C94.2886 141.666 94.1875 142.676 94.7945 143.383C95.3004 144.089 96.3122 144.19 97.0204 143.585C97.7287 143.08 97.8299 142.07 97.2228 141.363C96.7169 140.656 95.7051 140.555 94.9969 141.161Z" fill="#E3F2FF"/>
<path d="M107.442 136.617C108.15 137.425 108.049 138.637 107.138 139.344C106.329 140.051 105.115 139.95 104.406 139.041C103.698 138.233 103.799 137.021 104.71 136.314C105.519 135.608 106.733 135.709 107.442 136.617Z" fill="#C955FF"/>
<path d="M107.341 139.647C106.329 140.454 104.912 140.353 104.103 139.344C103.293 138.334 103.395 136.92 104.406 136.113C105.418 135.305 106.835 135.406 107.644 136.415C108.555 137.324 108.352 138.839 107.341 139.647ZM104.912 136.617C104.204 137.122 104.103 138.132 104.71 138.839C105.216 139.546 106.228 139.647 106.936 139.041C107.644 138.536 107.745 137.526 107.138 136.819C106.531 136.113 105.621 136.012 104.912 136.617Z" fill="#E3F2FF"/>
<path d="M79.8202 163.073C80.5284 163.88 80.4273 165.092 79.5167 165.799C78.7072 166.506 77.4931 166.405 76.7849 165.496C76.0766 164.688 76.1778 163.476 77.0884 162.77C77.999 162.063 79.2131 162.265 79.8202 163.073Z" fill="#C955FF"/>
<path d="M79.8203 166.102C78.8085 166.91 77.392 166.809 76.5826 165.799C75.7732 164.789 75.8743 163.375 76.8861 162.568C77.8979 161.76 79.3144 161.861 80.1238 162.871C80.9332 163.779 80.832 165.294 79.8203 166.102ZM77.392 163.073C76.6838 163.577 76.5826 164.587 77.1896 165.294C77.6955 166.001 78.7073 166.102 79.4155 165.496C80.1238 164.991 80.225 163.981 79.6179 163.275C79.0108 162.568 77.9991 162.467 77.392 163.073Z" fill="#E3F2FF"/>
<path d="M84.7779 144.796H68.0836C67.2742 144.796 66.6671 144.19 66.6671 143.383V142.171C66.6671 141.363 67.2742 140.757 68.0836 140.757H84.7779C85.5873 140.757 86.1944 141.363 86.1944 142.171V143.383C86.1944 144.19 85.5873 144.796 84.7779 144.796Z" fill="#EBEBEB"/>
<path d="M84.7779 137.728H68.0836C67.2742 137.728 66.6671 137.122 66.6671 136.315V135.103C66.6671 134.295 67.2742 133.689 68.0836 133.689H84.7779C85.5873 133.689 86.1944 134.295 86.1944 135.103V136.315C86.1944 137.122 85.5873 137.728 84.7779 137.728Z" fill="#EBEBEB"/>
<path d="M52.6032 148.027C52.6032 148.027 51.9961 153.581 53.1091 154.995C53.1091 154.995 50.3773 154.389 49.7702 153.48C49.1631 152.571 52.6032 148.027 52.6032 148.027Z" fill="#16202E"/>
<path d="M69.7023 165.799C69.7023 165.799 70.7141 165.092 70.8152 164.991C71.0176 164.89 71.5235 164.89 72.0294 164.991C72.6365 165.092 73.3447 165.395 73.4459 165.496C73.4459 165.597 73.5471 165.698 73.5471 165.9C73.5471 166.203 73.3447 166.304 73.3447 166.304C73.3447 166.304 73.4459 166.607 73.2435 166.91C73.2435 166.91 73.3447 167.212 73.0412 167.414C73.0412 167.414 73.1423 167.717 72.8388 167.818C72.8388 167.818 72.3329 167.818 72.1306 167.818C71.9282 167.818 70.9164 167.717 69.9047 167.515C69.9047 167.717 68.7917 167.515 69.7023 165.799Z" fill="#EEA886"/>
<path d="M71.3211 166.304C71.3211 166.304 71.0176 166.809 70.8152 166.909C70.6129 167.01 71.6246 168.02 71.6246 168.02C71.6246 168.02 72.0294 166.708 71.3211 166.304Z" fill="#CF8C6C"/>
<path d="M69.0953 165.9C69.0953 165.9 69.7024 165.799 70.1071 165.698C70.5118 165.496 70.0059 167.616 70.0059 167.616C70.0059 167.616 69.0953 167.01 68.4882 166.91C67.8811 166.91 69.0953 165.9 69.0953 165.9Z" fill="#EEA886"/>
<path d="M43.2949 222.243C43.2949 222.243 45.2173 225.07 45.9256 225.676C45.9256 225.676 47.2409 226.383 47.3421 226.989C47.4432 228.1 47.4432 228.705 45.7232 228.705C43.902 228.705 42.7891 228.705 42.4855 227.595C42.182 226.484 41.5749 225.676 41.5749 225.676L41.4737 228.503H41.069C41.069 228.503 40.8667 225.676 40.8667 225.272C40.8667 224.868 40.5631 223.354 41.4737 222.647C42.182 221.94 43.2949 222.243 43.2949 222.243Z" fill="#162D40"/>
<path d="M46.1278 225.878C46.1278 225.878 45.1161 226.181 44.0031 225.878C42.8902 225.575 41.7772 222.849 41.3725 222.647L41.069 221.536H43.2949C43.2949 221.536 43.2949 222.344 43.6996 223.051C44.1043 223.657 46.1278 225.878 46.1278 225.878Z" fill="#162D40"/>
<path d="M55.9422 221.132C55.9422 221.132 56.2457 221.839 56.7516 222.546C57.1563 223.051 58.3704 225.272 58.9775 225.373C59.4834 225.474 61.2034 225.777 61.4058 226.787C61.5069 227.696 61.6081 228.402 59.9893 228.503C58.2693 228.604 57.1563 228.705 56.3469 227.494C55.5375 226.282 54.2221 225.474 54.2221 225.474V228.604H53.6151C53.6151 228.604 53.3115 225.373 53.1092 225.171C52.9068 224.969 52.5021 222.445 54.0198 221.233C55.6386 219.921 55.9422 221.132 55.9422 221.132Z" fill="#162D40"/>
<path d="M58.9774 225.474C58.9774 225.474 57.4597 225.878 56.8527 225.474C56.2456 225.07 54.3232 221.738 53.615 221.536C53.615 221.536 54.2221 220.224 55.8409 221.233C55.9421 221.132 58.5727 224.868 58.9774 225.474Z" fill="#162D40"/>
<path d="M42.3843 174.987C42.3843 174.987 40.2595 177.714 39.6525 181.046C39.0454 184.277 39.956 195.384 39.956 197C39.956 198.615 38.5395 203.664 38.8431 206.693C39.1466 209.722 40.7654 222.445 40.7654 222.445L44.4078 222.344C44.4078 222.344 43.6996 208.612 43.9019 207.299C44.1043 205.986 44.7114 200.534 44.8125 200.029C44.9137 199.524 49.062 185.59 49.062 183.166C48.9608 180.945 47.5443 171.15 42.3843 174.987Z" fill="#1D3B54"/>
<path d="M53.1092 176.098C53.1092 176.098 56.6504 189.427 57.0551 191.244C57.4599 193.062 58.2693 195.485 58.2693 195.889C58.2693 196.192 57.8646 201.947 57.8646 201.947L56.8528 221.334H53.2104C53.2104 221.334 51.9963 209.016 51.7939 206.491C51.5915 203.967 53.1092 200.13 52.8057 199.12C52.401 198.11 46.735 185.893 46.735 185.893C46.735 185.893 42.2832 172.261 53.1092 176.098Z" fill="#1D3B54"/>
<path d="M51.9962 156.105C51.9962 156.105 53.4127 156.206 54.4245 157.418C55.4363 158.529 56.4481 160.346 56.7516 160.952C57.0551 161.558 60.8999 167.111 61.1022 167.313C61.3046 167.414 63.0246 167.011 64.3399 166.91C66.5658 166.708 69.9047 165.597 69.9047 165.597L70.4106 168.121C70.4106 168.121 62.2152 170.747 60.394 170.242C58.0669 169.636 52.8057 162.871 52.8057 162.871C52.8057 162.871 48.8597 158.226 51.9962 156.105Z" fill="#EDDAD3"/>
<path d="M49.5679 155.197C49.5679 155.197 51.3891 156.004 51.9962 156.206C52.6033 156.307 55.0315 159.538 55.5374 160.649C55.9421 161.76 55.5374 163.577 54.6268 165.597C53.7162 167.616 54.6268 168.323 54.2221 170.343C53.8174 172.362 53.8174 177.916 53.9186 179.026C54.0198 180.137 42.2831 182.258 39.9561 180.238C39.9561 180.238 41.5749 174.987 43.3961 173.069C43.8008 172.665 43.8008 169.838 43.4973 169.131C43.1937 168.424 40.0572 163.173 40.0572 163.173C40.0572 163.173 39.8549 157.822 41.1702 156.812C42.3843 155.903 45.622 155.6 46.1279 155.399C46.735 155.096 48.3538 154.995 49.5679 155.197Z" fill="#EDDAD3"/>
<path d="M50.175 159.236L51.288 157.923L50.3774 154.49C50.2762 154.49 49.9726 156.408 50.175 159.236Z" fill="#D1C0BA"/>
<path d="M43.2949 156.105C43.2949 156.105 40.9678 155.499 39.6525 157.923C38.3372 160.447 38.6407 161.76 38.3372 162.972C38.0336 164.082 36.8195 171.655 36.7183 171.958C36.6171 172.261 35.5042 176.098 35.6054 177.31C35.7065 178.521 36.8195 187.407 36.8195 187.71C36.8195 188.013 38.9442 187.407 38.9442 187.407C38.9442 187.407 38.8431 178.32 38.9442 177.512C39.0454 176.805 39.0454 172.766 39.6525 171.756C40.2596 170.747 41.5749 164.486 41.8784 163.88C42.2831 163.375 45.2173 156.913 43.2949 156.105Z" fill="#EEA886"/>
<path d="M50.4786 153.076C50.4786 153.076 50.0739 156.408 50.175 157.519C50.175 157.519 48.2527 159.437 46.1279 155.297C46.1279 155.297 47.0385 153.581 46.3303 151.36C45.7232 149.037 50.4786 153.076 50.4786 153.076Z" fill="#EEA886"/>
<path d="M50.1749 157.519V159.236L48.1514 157.418L50.1749 157.519Z" fill="#EEA886"/>
<path d="M50.175 159.235L49.2644 158.125L46.229 155.096L45.1161 155.6L50.175 159.235Z" fill="#D1C0BA"/>
<path d="M51.2879 157.923L52.7044 158.327L50.2761 154.49L51.2879 157.923Z" fill="#FAE6DE"/>
<path d="M49.2645 158.125L47.9492 160.144L45.015 155.5L46.3303 154.894L49.2645 158.125Z" fill="#FAE6DE"/>
<path d="M55.7398 166.304C55.7398 166.304 56.1445 163.274 55.7398 161.457C55.7398 161.457 55.4363 162.972 54.8292 165.193L55.7398 166.304Z" fill="#D1C0BA"/>
<path d="M41.6759 165.9C41.6759 165.9 42.89 161.76 42.9912 161.558C42.9912 161.558 42.89 165.395 42.3841 167.212C42.3841 167.212 41.9794 166.405 41.6759 165.9Z" fill="#D1C0BA"/>
<path d="M88.319 145.099L68.5894 169.939L69.2976 170.444L88.319 145.099Z" fill="#54281A"/>
<path d="M73.3447 165.597C73.3447 165.597 71.827 165.496 71.827 165.698C71.7259 165.9 71.9282 166.001 71.9282 166.001L71.3211 166.203C71.3211 166.203 71.0176 166.607 71.5235 166.809C71.5235 166.809 71.22 167.111 71.7259 167.313C71.7259 167.313 71.6247 167.616 71.827 167.717C72.0294 167.818 73.0412 167.919 73.0412 167.919C73.0412 167.919 73.2435 167.818 73.2435 167.515C73.2435 167.515 73.5471 167.313 73.4459 167.01C73.4459 167.01 73.6482 166.809 73.5471 166.405C73.5471 166.405 74.0529 165.9 73.6482 165.496C73.4459 165.597 73.3447 165.597 73.3447 165.597Z" fill="#DB9C7C"/>
<path d="M70.9164 165.092C70.9164 165.092 71.827 165.597 72.1305 166.102C72.2317 166.203 72.2317 166.304 72.2317 166.405C72.1305 166.506 71.9282 166.506 71.5235 166.304C71.1188 166.102 70.5117 166.001 70.5117 166.001C70.5117 166.001 70.107 165.698 70.9164 165.092Z" fill="#EEA886"/>
<path d="M48.9608 141.767C48.9608 141.767 52.2997 141.666 52.9068 145.604C53.5138 149.542 52.0973 152.975 51.5915 153.581C50.9844 154.187 47.7467 153.682 46.9373 151.662C46.1279 149.643 45.0149 148.128 45.2173 146.311C45.2173 144.594 44.8125 141.666 48.9608 141.767Z" fill="#EEA886"/>
<path d="M53.008 147.119C53.008 147.119 53.9186 142.171 49.4668 141.363C45.015 140.454 43.4973 143.484 43.0926 145.301C42.6879 147.119 43.1938 152.167 43.1938 152.167C43.1938 152.167 46.1279 154.793 47.9491 155.399C47.9491 155.399 46.4315 150.047 47.0385 146.109C47.0385 146.109 50.6809 146.715 53.008 146.109C52.9068 146.109 53.008 146.917 53.008 147.119Z" fill="#16202E"/>
<path d="M50.3774 153.783C50.3774 153.783 49.2645 153.783 47.6456 152.773C47.6456 152.773 48.7586 154.187 50.2762 154.692C50.2762 154.692 50.3774 153.985 50.3774 153.783Z" fill="#A77860"/>
<path d="M43.7579 179.248L30.877 181.348L32.4264 190.815L45.3073 188.715L43.7579 179.248Z" fill="#366E9C"/>
<path d="M36.4149 190.638C36.4149 190.638 36.2125 190.335 36.2125 190.133C36.2125 190.133 36.2125 189.831 36.2125 189.528C36.2125 189.427 36.2125 189.427 36.2125 189.326C36.2125 189.124 36.0102 188.72 36.1113 188.316C36.1113 187.811 36.7184 185.893 36.7184 185.893H37.8314L38.9443 185.792C38.9443 185.792 40.2596 188.215 40.2596 188.72V188.821C40.2596 189.225 40.0573 189.427 40.0573 189.629C40.0573 189.73 39.8549 190.335 39.6526 190.436C39.349 190.537 39.1467 190.537 38.9443 190.436C38.9443 190.436 38.4384 190.638 38.0337 190.537C38.0337 190.537 37.5278 190.739 37.1231 190.537C37.2243 190.739 36.7184 190.941 36.4149 190.638Z" fill="#EEA886"/>
<path d="M43.2949 156.105C43.2949 156.105 40.9678 155.499 39.6525 157.923C38.3372 160.447 38.3372 161.558 38.1348 162.77C37.9325 163.88 36.4148 170.848 36.3136 171.15C36.2124 171.453 35.7065 175.795 35.7065 177.31C35.7065 178.522 35.9089 186.296 35.9089 186.599C35.9089 186.902 39.5513 186.095 39.5513 186.095C39.5513 186.095 39.1466 178.925 39.2478 178.118C39.3489 177.411 39.4501 173.574 39.8548 172.463C40.2595 171.15 41.9796 164.587 42.2831 163.981C42.5866 163.476 45.2173 156.913 43.2949 156.105Z" fill="#EDDAD3"/>
<path d="M161.369 223.859L161.572 221.637C161.572 221.637 158.435 221.637 158.132 221.839C158.132 221.839 158.435 223.657 158.435 223.96C158.435 224.263 161.369 223.859 161.369 223.859Z" fill="#5C544D"/>
<path d="M156.108 228.402C159.852 228.402 161.572 228.604 161.976 227.999C162.381 227.393 161.369 223.556 161.369 223.556C161.369 223.556 160.459 223.859 158.334 223.657C158.334 223.657 157.423 224.767 156.513 225.272C155.602 225.777 154.186 225.979 153.68 226.484C153.376 226.888 152.365 228.503 156.108 228.402Z" fill="#3C4145"/>
<path d="M140.425 223.859L140.628 221.637C140.628 221.637 137.491 221.637 137.188 221.839C137.188 221.839 137.491 223.657 137.491 223.96C137.592 224.263 140.425 223.859 140.425 223.859Z" fill="#5C544D"/>
<path d="M135.164 228.402C138.908 228.301 140.628 228.604 141.033 227.999C141.437 227.393 140.425 223.556 140.425 223.556C140.425 223.556 139.616 223.859 137.39 223.657C137.39 223.657 136.48 224.767 135.569 225.272C134.658 225.777 131.421 226.181 130.814 226.686C130.611 227.09 129.903 228.604 135.164 228.402Z" fill="#3C4145"/>
<path d="M157.12 173.978C157.12 173.978 158.638 178.622 158.435 182.56C158.233 186.498 159.245 190.84 159.649 194.98C160.155 199.625 161.976 210.53 162.078 213.054C162.179 215.478 161.774 223.455 161.774 223.455L158.031 223.556C158.031 223.556 154.894 204.472 154.085 202.452C153.275 200.534 149.228 186.599 149.026 184.984C148.925 183.368 157.12 173.978 157.12 173.978Z" fill="#DBD8E3"/>
<path d="M141.235 174.785C141.235 174.785 139.211 185.691 138.908 188.114C138.604 190.537 138.503 199.827 138.301 201.341C138.2 202.856 137.39 221.233 136.682 223.455H141.539C141.539 223.455 145.181 210.126 145.181 203.765C145.181 197.404 148.014 190.032 149.835 185.893C151.656 181.753 155.906 181.652 157.019 173.877C157.12 173.978 142.854 172.261 141.235 174.785Z" fill="#DBD8E3"/>
<path d="M151.049 137.526C151.049 137.526 147.306 136.112 145.484 139.041C143.764 141.969 143.866 147.724 145.788 148.431C147.71 149.138 150.543 148.734 151.555 147.018C152.567 145.2 153.376 142.575 153.376 140.858C153.376 139.041 152.061 138.031 151.049 137.526Z" fill="#EEA886"/>
<path d="M146.496 148.229C146.496 148.229 146.699 149.239 146.395 149.744C146.092 150.249 151.15 150.249 151.15 150.249C151.15 150.249 151.555 147.623 152.365 145.301C153.073 143.08 146.496 148.229 146.496 148.229Z" fill="#EEA886"/>
<path d="M152.364 145.301C152.364 145.301 152.061 145.907 150.644 145.604C149.228 145.402 147.508 143.484 146.901 143.282C146.294 143.08 146.294 142.777 146.294 142.777L145.889 143.282H145.282C145.282 143.282 145.889 141.565 144.979 140.959C144.068 140.252 145.889 135.507 150.442 137.122C150.442 137.122 153.68 137.728 153.882 139.748C154.084 141.868 153.073 144.291 152.364 145.301Z" fill="#FCCCA2"/>
<path d="M146.092 149.643C146.092 149.643 146.092 148.734 146.496 148.633C146.901 148.532 151.15 148.128 151.656 148.33V149.441C151.757 149.441 150.746 150.047 146.092 149.643Z" fill="#E2D2CA"/>
<path d="M146.294 142.07C146.395 141.767 147.204 140.757 147.508 141.767C147.811 142.777 147.002 144.19 146.597 143.988C146.193 143.988 146.091 142.878 146.294 142.07Z" fill="#EEA886"/>
<path d="M146.091 149.643C146.091 149.643 143.764 150.451 141.033 151.662C141.033 151.662 137.896 152.773 137.593 156.206C137.39 158.024 135.468 167.717 135.063 168.525C134.658 169.333 130.409 182.459 130.207 182.762C130.105 183.065 133.748 184.58 133.95 184.479C134.152 184.378 138.098 172.463 138.503 171.655C138.503 171.655 140.729 164.587 140.83 163.476C140.83 163.476 140.931 166.506 141.033 167.313C141.134 168.121 139.009 184.58 139.11 185.085C139.211 185.59 148.823 186.095 152.668 185.691C156.513 185.287 159.649 184.378 159.649 184.378C159.649 184.378 156.614 171.352 156.715 169.939C156.917 166.809 157.929 160.851 157.929 160.851L161.066 166.708L157.019 177.007L157.929 180.137C157.929 180.137 165.416 168.828 165.619 167.818C165.821 166.809 165.214 165.496 164.809 164.587C164.405 163.779 161.875 157.317 161.268 156.408C160.661 155.499 159.649 151.864 157.12 150.855C155.096 150.047 151.555 149.34 151.555 149.34L146.091 149.643Z" fill="#63A4FF"/>
<path d="M144.04 176.423L126.496 171.933L123.355 184.16L140.899 188.649L144.04 176.423Z" fill="#F25F54"/>
<path d="M128.79 185.388C128.79 185.388 128.284 186.195 128.082 186.397C127.879 186.599 128.487 186.801 128.79 186.498C129.094 186.296 128.79 185.388 128.79 185.388Z" fill="#C98462"/>
<path d="M132.433 188.114C132.433 188.114 132.736 187.811 132.837 187.609C132.837 187.609 132.938 187.205 133.04 187.003C133.04 186.902 133.04 186.801 133.141 186.801C133.242 186.599 133.444 186.195 133.545 185.691C133.647 185.186 133.849 182.964 133.849 182.964L132.534 182.661L131.421 182.459C131.421 182.459 129.094 184.782 128.891 185.287V185.388C128.79 185.792 128.891 186.094 128.891 186.296C128.891 186.397 128.891 187.205 129.094 187.306C129.397 187.508 129.6 187.508 129.802 187.508C129.802 187.508 130.308 187.912 130.712 187.811C130.712 187.811 131.218 188.215 131.724 188.013C131.623 188.013 132.129 188.316 132.433 188.114Z" fill="#DE9D7D"/>
<path d="M137.795 173.978C137.795 173.978 134.659 183.368 134.051 184.378C134.051 184.378 131.724 183.873 130.308 182.661L133.748 172.463L137.795 173.978Z" fill="#63A4FF"/>
<path d="M142.876 272.332V271.02C145.507 271.02 148.239 270.919 150.869 270.818L150.971 272.131C148.239 272.232 145.507 272.332 142.876 272.332ZM134.782 272.231C132.151 272.131 129.42 272.03 126.688 271.828L126.789 270.515C129.521 270.717 132.151 270.818 134.782 270.919V272.231ZM158.964 271.626L158.862 270.313C161.493 270.111 164.225 269.808 166.855 269.505L167.058 270.818C164.326 271.02 161.594 271.323 158.964 271.626ZM118.594 271.222C115.862 270.919 113.13 270.616 110.601 270.212L110.803 268.899C113.332 269.303 116.064 269.707 118.695 269.909L118.594 271.222ZM175.051 269.505L174.848 268.193C177.479 267.789 180.11 267.284 182.74 266.678L183.044 267.991C180.312 268.596 177.58 269.101 175.051 269.505ZM102.709 268.596C99.977 267.991 97.3464 267.183 94.9181 266.375L95.3228 265.062C97.7511 265.87 100.281 266.678 103.012 267.284L102.709 268.596ZM190.835 266.274L190.531 264.961C192.959 264.356 195.59 263.75 198.322 262.942L198.625 264.255C195.893 265.062 193.263 265.668 190.835 266.274ZM87.3298 263.346C84.8003 262.134 82.4732 260.821 80.2473 259.408L80.9556 258.297C83.0803 259.711 85.4074 261.023 87.8357 262.235L87.3298 263.346ZM206.416 262.235L206.011 260.922C207.124 260.62 208.237 260.317 209.35 260.014C210.868 259.61 212.284 259.206 213.802 258.802L214.207 260.115C212.79 260.519 211.272 260.922 209.755 261.326C208.642 261.528 207.529 261.831 206.416 262.235ZM276.431 261.023C274.003 259.812 271.473 258.802 269.045 257.994L269.45 256.682C271.878 257.59 274.407 258.6 276.937 259.812L276.431 261.023ZM221.896 257.893L221.593 256.581C224.527 255.874 227.056 255.268 229.484 254.763L229.788 256.076C227.36 256.581 224.83 257.186 221.896 257.893ZM261.355 255.773C258.725 255.167 256.094 254.763 253.464 254.46L253.565 253.147C256.195 253.45 258.927 253.854 261.558 254.46L261.355 255.773ZM237.579 254.763L237.376 253.45C240.209 253.047 242.84 252.845 245.471 252.845V254.157C243.042 254.258 240.412 254.46 237.579 254.763ZM73.8731 254.258C71.8496 252.441 70.0284 250.32 68.4095 248.2L69.5225 247.392C71.0401 249.512 72.8613 251.431 74.7837 253.248L73.8731 254.258ZM64.1601 241.334C62.9459 238.91 62.0353 236.386 61.2259 233.761L62.5412 233.357C63.2495 235.982 64.2612 238.405 65.3742 240.728L64.1601 241.334ZM59.5059 225.683C59.2024 223.057 59 220.331 59 217.605H60.3153C60.3153 220.331 60.5177 222.956 60.8212 225.582L59.5059 225.683ZM60.72 209.628L59.4047 209.527C59.7082 206.902 60.113 204.175 60.6188 201.55L61.9342 201.853C61.4283 204.377 61.0236 207.104 60.72 209.628ZM63.8565 193.977L62.5412 193.674C63.8565 188.928 65.1718 186.101 65.1718 186L66.386 186.505C66.386 186.505 65.1718 189.433 63.8565 193.977Z" fill="#C2BEBC"/>
<path d="M323.175 275.766L289.382 265.971L299.5 262.942L323.175 275.766Z" fill="#D6D6D6"/>
<path d="M323.175 275.766L310.528 263.144L302.737 264.658L323.175 275.766Z" fill="#E8E8E8"/>
<path d="M297.172 268.193L297.476 272.13L323.175 275.765L297.172 268.193Z" fill="#C2C2C2"/>
</svg>
