<svg width="553" height="410" viewBox="0 0 553 410" fill="none" xmlns="http://www.w3.org/2000/svg">
<path d="M309.656 178.46C312.617 172.25 314.541 165.597 315.725 158.943L329.491 154.803L328.011 139.279L326.531 123.754L312.321 122.276C310.101 115.918 306.844 109.856 302.848 104.237L309.656 91.6697L297.667 81.7635L285.677 71.8572L274.576 80.8763C268.359 77.9192 261.698 75.9971 255.037 74.8143L250.893 61.0638L235.351 62.5424L219.809 64.0209L218.329 78.2149C211.964 80.4328 205.895 83.6856 200.27 87.6776L187.689 80.8763L177.771 92.8525L167.854 104.829L176.883 115.918C173.923 122.128 171.999 128.781 170.814 135.435L157.049 139.575L158.529 155.099L160.009 170.624L174.219 172.102C176.439 178.46 179.696 184.522 183.692 190.141L176.883 202.708L188.873 212.615L200.862 222.521L211.964 213.502C218.181 216.459 224.841 218.381 231.502 219.564L235.647 233.314L251.189 231.836L266.731 230.357L268.211 216.163C274.576 213.945 280.645 210.692 286.269 206.7L298.851 213.502L308.768 201.525L318.686 189.549L309.656 178.46ZM218.625 176.686C202.342 163.231 200.122 139.131 213.592 122.867C227.062 106.603 251.189 104.385 267.471 117.84C283.753 131.295 285.973 155.395 272.504 171.659C259.034 187.775 234.907 190.141 218.625 176.686Z" fill="#704ABE"/>
<path d="M400.836 193.246C402.02 177.869 402.76 163.379 403.204 149.924C399.504 148.002 394.915 145.637 391.363 144.01C380.261 138.687 364.719 131.59 354.802 127.007C349.029 124.345 343.257 122.423 343.257 122.423C343.257 122.423 303.587 118.579 300.331 118.875C299.295 118.875 294.41 120.649 287.897 123.163C273.836 128.485 246.748 139.427 242.307 142.532C235.943 147.115 213.296 258.154 212.704 265.694C212.111 273.087 243.492 282.993 272.651 290.682C272.651 301.919 272.355 317.739 272.207 332.081C272.207 334.594 272.059 336.96 272.059 339.326H399.356C399.208 336.812 399.06 334.446 398.912 332.081C398.912 331.785 398.912 331.489 398.912 331.194C398.468 321.435 396.544 303.988 396.988 286.985C396.988 286.985 396.692 269.095 398.468 261.406C398.764 227.104 400.836 193.246 400.836 193.246ZM239.347 258.597C239.495 244.107 258.886 217.198 258.886 217.198C258.886 217.198 259.774 216.754 259.774 216.902L260.81 216.754L263.77 213.945C264.51 216.459 270.875 252.831 272.355 273.974C254.297 270.426 239.199 265.398 239.347 258.597Z" fill="#DBD8E3"/>
<path d="M403.056 331.933C402.168 325.871 401.428 319.957 400.688 314.043C400.688 314.043 400.688 314.043 400.688 313.895C400.392 311.973 400.244 310.05 399.948 308.128C399.948 307.981 399.948 307.981 399.948 307.833C399.06 299.701 398.172 291.864 397.728 284.767C397.284 279.297 397.728 273.974 398.468 268.799C400.688 232.279 401.724 193.985 401.724 193.985C402.908 178.312 403.5 163.527 403.944 149.776C403.944 149.776 354.062 126.268 349.621 124.937C349.621 124.937 359.095 147.115 366.2 196.646C368.864 215.719 374.045 247.804 377.597 280.48C379.521 298.074 383.37 316.113 386.182 332.081C386.626 334.594 387.07 336.96 387.366 339.326H404.092C403.796 336.664 403.5 334.299 403.056 331.933Z" fill="#3E3257"/>
<path d="M320.166 273.383C322.09 254.901 323.866 236.567 322.978 226.513C316.169 145.489 296.63 124.05 293.818 120.945C291.598 121.832 283.309 124.937 280.94 125.824C267.619 130.999 240.531 140.609 236.831 143.271C230.466 147.854 205.451 264.216 204.711 271.756C204.266 276.783 236.831 287.429 270.135 297.039C269.839 306.206 270.727 319.07 267.619 332.376C267.027 334.742 266.287 336.221 266.139 339.473L312.469 339.326C312.765 336.96 313.061 334.594 313.357 332.081C314.245 324.836 315.133 317.443 316.021 309.607C329.935 313.155 339.408 315.521 339.408 315.521C339.408 315.521 352.434 293.491 356.282 284.472C357.022 282.697 340.296 278.705 320.166 273.383ZM260.218 245.438C259.774 228.878 259.922 217.346 259.922 217.346C261.55 222.964 263.77 239.228 265.842 255.344C259.034 251.944 260.218 248.839 260.218 245.438Z" fill="#3E3257"/>
<path d="M298.259 120.058C298.259 120.058 303.291 110.595 301.959 83.5377C301.515 75.9971 341.332 101.28 341.332 101.28C341.332 101.28 341.184 103.794 341.036 107.342C341.036 108.821 341.036 110.447 341.036 112.074C341.036 112.517 341.036 112.961 341.036 113.404C341.036 114.144 341.036 114.883 341.036 115.622C341.036 116.509 341.036 117.396 341.184 118.283C341.184 119.318 341.332 120.206 341.332 121.093C341.48 122.719 342.517 125.676 342.813 126.415C344.737 130.408 313.209 130.703 298.259 120.058Z" fill="#EEA987"/>
<path d="M331.711 137.209L339.112 147.115C339.112 147.115 334.82 152.881 327.123 148.594L331.711 137.209Z" fill="#E8734D"/>
<path d="M337.04 147.559C337.04 147.559 363.979 213.058 358.207 296.448L349.769 311.825L340.148 298.666C340.148 298.666 338.668 188.071 330.971 147.263L337.04 147.559Z" fill="#E8734D"/>
<path d="M339.556 128.042L331.711 137.209C331.711 137.209 319.129 134.843 315.429 128.19C311.728 121.684 339.556 128.042 339.556 128.042Z" fill="#EEA987"/>
<path d="M341.332 120.058C341.332 120.058 340.444 127.007 331.711 137.209L341.184 150.072L346.365 123.458L341.332 120.058Z" fill="#C4C1CC"/>
<path d="M300.775 111.63C300.775 111.63 318.981 132.182 331.711 137.209L325.79 151.846L296.63 119.762L300.775 111.63Z" fill="#C4C1CC"/>
<path d="M488.168 297.926C488.168 297.926 464.04 274.418 448.054 270.573C440.653 268.799 431.032 258.597 421.855 246.769C418.895 242.925 415.934 238.785 412.974 234.645C401.724 218.381 392.843 202.856 392.843 202.856C392.843 202.856 359.687 163.823 386.33 146.524C386.33 146.524 397.728 146.228 404.093 149.629C410.605 153.177 424.371 181.861 426.592 186.888C428.96 191.915 454.271 239.228 455.899 240.263C457.528 241.298 460.488 245.142 470.553 250.613C482.987 257.266 502.377 276.783 502.377 276.783L488.168 297.926Z" fill="#3E3257"/>
<path d="M371.972 325.132C371.972 325.132 368.568 324.984 367.088 324.245C367.088 324.245 364.571 322.618 362.647 321.583C362.055 321.287 361.463 320.992 361.167 320.844C359.687 320.252 356.282 319.365 353.026 317C349.917 314.634 339.408 304.876 339.408 304.876L346.069 294.526L349.177 284.324C349.177 284.324 373.304 286.69 376.561 288.612C376.857 288.759 377.153 289.055 377.449 289.203C379.965 291.125 381.149 293.639 382.334 294.674C382.778 295.117 387.07 299.553 386.774 301.475C386.478 303.988 385.146 305.615 383.666 306.354C383.666 306.354 382.778 311.233 380.261 313.451C380.261 313.451 379.669 318.035 375.673 319.809C375.821 319.957 374.785 324.54 371.972 325.132Z" fill="#EFAA88"/>
<path d="M333.487 13.6026C333.487 13.6026 377.153 3.10496 367.976 58.4025C358.799 113.7 348.289 118.136 321.646 107.194C295.002 96.1053 296.926 60.7681 295.298 43.4692C293.67 26.1702 319.425 14.4897 333.487 13.6026Z" fill="#EEA886"/>
<path d="M310.544 51.8969C309.952 47.0177 300.183 45.3913 299.591 52.6361C298.851 59.881 304.327 72.5965 307.88 71.4136C311.432 70.0829 311.432 58.5503 310.544 51.8969Z" fill="#EEA886"/>
<path d="M297.815 71.7094C297.815 71.7094 298.703 54.2625 305.068 53.6711C311.433 53.0797 312.469 60.0289 312.469 60.0289L318.833 61.2117C318.833 61.2117 316.613 45.9827 322.83 43.3213C329.195 40.5121 363.979 51.1576 369.012 46.5741C374.045 41.9906 371.232 11.2369 361.907 7.09702C352.582 2.9571 327.123 -6.06202 308.62 6.80131C308.62 6.80131 294.114 5.32277 292.042 17.1511C290.266 28.6838 293.818 63.1338 297.815 71.7094Z" fill="#16202E"/>
<path d="M357.614 284.324L339.556 315.373C339.556 315.373 291.746 303.101 280.644 299.996L306.104 269.686C306.104 269.538 343.701 278.114 357.614 284.324Z" fill="#3E3257"/>
<path d="M341.184 118.136C317.797 115.77 308.62 97.7317 308.62 97.7317C323.422 112.369 341.036 111.926 341.036 111.926C341.036 112.369 341.036 112.813 341.036 113.256C341.036 113.996 341.036 114.735 341.036 115.474C341.184 116.509 341.184 117.396 341.184 118.136Z" fill="#A77860"/>
<path d="M391.511 258.745C418.747 286.69 454.567 321.879 454.567 321.879L468.629 295.265C468.629 295.265 436.805 257.858 415.194 233.018C408.533 236.271 396.396 244.107 391.511 258.745Z" fill="#EEA886"/>
<path d="M374.785 296.448C374.785 296.448 382.038 299.996 383.962 301.623C385.886 303.249 393.583 309.015 395.507 310.346C397.432 311.677 392.695 315.521 378.781 309.607C365.015 303.397 374.785 296.448 374.785 296.448Z" fill="#EEA886"/>
<path d="M375.377 216.459L362.647 334.89H530.501L543.231 216.459H375.377Z" fill="#A055FF"/>
<path d="M540.122 329.419H370.936L383.814 209.657H553L540.122 329.419ZM372.416 328.089H538.938L551.52 210.988H384.998L372.416 328.089Z" fill="#A055FF"/>
<path d="M349.346 334.897H377.322V324.251H349.346V334.897Z" fill="#FFC955"/>
<path d="M86.5912 334.594H79.6343V341.839H86.5912V334.594Z" fill="#DFAFF6"/>
<path d="M93.6962 334.594H86.7393V341.839H93.6962V334.594Z" fill="#DFAFF6"/>
<path d="M100.653 334.594H93.696V341.839H100.653V334.594Z" fill="#DFAFF6"/>
<path d="M107.61 334.594H100.653V341.839H107.61V334.594Z" fill="#DFAFF6"/>
<path d="M114.715 334.594H107.758V341.839H114.715V334.594Z" fill="#DFAFF6"/>
<path d="M121.672 334.594H114.715V341.839H121.672V334.594Z" fill="#DFAFF6"/>
<path d="M128.777 334.594H121.82V341.839H128.777V334.594Z" fill="#DFAFF6"/>
<path d="M135.734 334.594H128.777V341.839H135.734V334.594Z" fill="#DFAFF6"/>
<path d="M142.691 334.594H135.734V341.839H142.691V334.594Z" fill="#DFAFF6"/>
<path d="M149.795 334.594H142.838V341.839H149.795V334.594Z" fill="#DFAFF6"/>
<path d="M156.752 334.594H149.795V341.839H156.752V334.594Z" fill="#DFAFF6"/>
<path d="M163.857 334.594H156.9V341.839H163.857V334.594Z" fill="#DFAFF6"/>
<path d="M170.814 334.594H163.857V341.839H170.814V334.594Z" fill="#DFAFF6"/>
<path d="M177.771 334.594H170.814V341.839H177.771V334.594Z" fill="#DFAFF6"/>
<path d="M184.876 334.594H177.919V341.839H184.876V334.594Z" fill="#DFAFF6"/>
<path d="M191.833 334.594H184.876V341.839H191.833V334.594Z" fill="#DFAFF6"/>
<path d="M198.938 334.594H191.981V341.839H198.938V334.594Z" fill="#DFAFF6"/>
<path d="M205.895 334.594H198.938V341.839H205.895V334.594Z" fill="#DFAFF6"/>
<path d="M212.852 334.594H205.895V341.839H212.852V334.594Z" fill="#DFAFF6"/>
<path d="M219.957 334.594H213V341.839H219.957V334.594Z" fill="#DFAFF6"/>
<path d="M226.913 334.594H219.957V341.839H226.913V334.594Z" fill="#DFAFF6"/>
<path d="M234.018 334.594H227.062V341.839H234.018V334.594Z" fill="#DFAFF6"/>
<path d="M240.975 334.594H234.018V341.839H240.975V334.594Z" fill="#DFAFF6"/>
<path d="M247.932 334.594H240.975V341.839H247.932V334.594Z" fill="#DFAFF6"/>
<path d="M255.037 334.594H248.08V341.839H255.037V334.594Z" fill="#DFAFF6"/>
<path d="M261.994 334.594H255.037V341.839H261.994V334.594Z" fill="#DFAFF6"/>
<path d="M269.099 334.594H262.142V341.839H269.099V334.594Z" fill="#DFAFF6"/>
<path d="M276.056 334.594H269.099V341.839H276.056V334.594Z" fill="#DFAFF6"/>
<path d="M283.161 334.594H276.204V341.839H283.161V334.594Z" fill="#DFAFF6"/>
<path d="M290.118 334.594H283.161V341.839H290.118V334.594Z" fill="#DFAFF6"/>
<path d="M297.075 334.594H290.118V341.839H297.075V334.594Z" fill="#DFAFF6"/>
<path d="M304.18 334.594H297.223V341.839H304.18V334.594Z" fill="#DFAFF6"/>
<path d="M311.136 334.594H304.179V341.839H311.136V334.594Z" fill="#DFAFF6"/>
<path d="M318.241 334.594H311.284V341.839H318.241V334.594Z" fill="#DFAFF6"/>
<path d="M325.198 334.594H318.241V341.839H325.198V334.594Z" fill="#DFAFF6"/>
<path d="M332.155 334.594H325.198V341.839H332.155V334.594Z" fill="#DFAFF6"/>
<path d="M339.26 334.594H332.303V341.839H339.26V334.594Z" fill="#DFAFF6"/>
<path d="M346.217 334.594H339.26V341.839H346.217V334.594Z" fill="#DFAFF6"/>
<path d="M353.322 334.594H346.365V341.839H353.322V334.594Z" fill="#DFAFF6"/>
<path d="M360.279 334.594H353.322V341.839H360.279V334.594Z" fill="#DFAFF6"/>
<path d="M367.236 334.594H360.279V341.839H367.236V334.594Z" fill="#DFAFF6"/>
<path d="M374.341 334.594H367.384V341.839H374.341V334.594Z" fill="#DFAFF6"/>
<path d="M381.298 334.594H374.341V341.839H381.298V334.594Z" fill="#DFAFF6"/>
<path d="M388.402 334.594H381.446V341.839H388.402V334.594Z" fill="#DFAFF6"/>
<path d="M395.36 334.594H388.403V341.839H395.36V334.594Z" fill="#DFAFF6"/>
<path d="M402.316 334.594H395.359V341.839H402.316V334.594Z" fill="#DFAFF6"/>
<path d="M409.421 334.594H402.464V341.839H409.421V334.594Z" fill="#DFAFF6"/>
<path d="M416.378 334.594H409.421V341.839H416.378V334.594Z" fill="#DFAFF6"/>
<path d="M423.483 334.594H416.526V341.839H423.483V334.594Z" fill="#DFAFF6"/>
<path d="M430.44 334.594H423.483V341.839H430.44V334.594Z" fill="#DFAFF6"/>
<path d="M437.397 334.594H430.44V341.839H437.397V334.594Z" fill="#DFAFF6"/>
<path d="M444.502 334.594H437.545V341.839H444.502V334.594Z" fill="#DFAFF6"/>
<path d="M451.459 334.594H444.502V341.839H451.459V334.594Z" fill="#DFAFF6"/>
<path d="M458.564 334.594H451.607V341.839H458.564V334.594Z" fill="#DFAFF6"/>
<path d="M465.52 334.594H458.563V341.839H465.52V334.594Z" fill="#DFAFF6"/>
<path d="M472.477 334.594H465.521V341.839H472.477V334.594Z" fill="#DFAFF6"/>
<path d="M479.582 334.594H472.625V341.839H479.582V334.594Z" fill="#DFAFF6"/>
<path d="M486.539 334.594H479.582V341.839H486.539V334.594Z" fill="#DFAFF6"/>
<path d="M493.644 334.594H486.687V341.839H493.644V334.594Z" fill="#DFAFF6"/>
<path d="M500.601 334.594H493.644V341.839H500.601V334.594Z" fill="#DFAFF6"/>
<path d="M507.558 334.594H500.601V341.839H507.558V334.594Z" fill="#DFAFF6"/>
<path d="M514.663 334.594H507.706V341.839H514.663V334.594Z" fill="#DFAFF6"/>
<path d="M521.62 334.594H514.663V341.839H521.62V334.594Z" fill="#DFAFF6"/>
<path d="M528.725 334.594H521.768V341.839H528.725V334.594Z" fill="#DFAFF6"/>
<path d="M535.682 334.594H528.725V341.839H535.682V334.594Z" fill="#DFAFF6"/>
<path d="M443.614 273.678C442.282 280.332 445.39 286.394 450.423 287.577C455.603 288.612 460.784 284.176 462.116 277.523C463.448 270.869 460.34 264.659 455.307 263.624C450.275 262.589 444.946 267.173 443.614 273.678Z" fill="black" fill-opacity="0.25"/>
<path d="M204.859 299.701H133.958C128.777 299.701 124.484 295.413 124.484 290.238V178.608C124.484 173.433 128.777 169.145 133.958 169.145H204.711C209.892 169.145 214.184 173.433 214.184 178.608V290.238C214.332 295.413 210.04 299.701 204.859 299.701Z" fill="#C955FF"/>
<path d="M204.711 253.422H200.122V288.76H204.711V253.422Z" fill="#E3F2FF"/>
<path d="M195.533 257.414H190.945V288.76H195.533V257.414Z" fill="#E3F2FF"/>
<path d="M185.468 262.442H180.88V288.612H185.468V262.442Z" fill="#E3F2FF"/>
<path d="M175.255 268.947H170.666V288.612H175.255V268.947Z" fill="#E3F2FF"/>
<path d="M142.987 264.807L141.95 264.511L150.684 239.82L169.63 234.793L176.587 207.883L191.241 201.378L194.497 180.53L195.533 180.678L192.129 202.117L177.475 208.622L170.518 235.68L151.572 240.707L142.987 264.807Z" fill="#E3F2FF"/>
<path d="M172.294 233.462C173.331 234.645 173.182 236.419 171.85 237.454C170.666 238.489 168.89 238.341 167.854 237.01C166.818 235.828 166.966 234.053 168.298 233.018C169.482 232.131 171.406 232.279 172.294 233.462Z" fill="#C955FF"/>
<path d="M172.294 237.898C170.814 239.081 168.742 238.933 167.558 237.454C166.374 235.976 166.522 233.906 168.002 232.723C169.482 231.54 171.554 231.688 172.738 233.166C173.923 234.645 173.775 236.715 172.294 237.898ZM168.742 233.462C167.706 234.201 167.558 235.68 168.446 236.715C169.186 237.75 170.666 237.898 171.702 237.011C172.738 236.271 172.886 234.793 171.998 233.758C171.11 232.871 169.63 232.723 168.742 233.462Z" fill="#E3F2FF"/>
<path d="M179.251 206.7C180.288 207.883 180.14 209.658 178.807 210.692C177.623 211.727 175.847 211.58 174.811 210.249C173.775 209.066 173.923 207.292 175.255 206.257C176.439 205.222 178.215 205.37 179.251 206.7Z" fill="#C955FF"/>
<path d="M179.251 211.136C177.771 212.319 175.699 212.171 174.515 210.692C173.331 209.214 173.479 207.144 174.959 205.961C176.439 204.778 178.511 204.926 179.695 206.405C180.88 207.735 180.584 209.953 179.251 211.136ZM175.551 206.7C174.515 207.44 174.367 208.918 175.255 209.953C175.995 210.988 177.475 211.136 178.511 210.249C179.547 209.51 179.695 208.031 178.807 206.996C178.067 205.961 176.587 205.813 175.551 206.7Z" fill="#E3F2FF"/>
<path d="M193.757 200.047C194.793 201.23 194.645 203.004 193.313 204.039C192.129 205.074 190.353 204.926 189.317 203.595C188.281 202.413 188.429 200.638 189.761 199.603C190.945 198.568 192.721 198.716 193.757 200.047Z" fill="#C955FF"/>
<path d="M193.609 204.483C192.129 205.665 190.057 205.518 188.872 204.039C187.688 202.56 187.836 200.491 189.317 199.308C190.797 198.125 192.869 198.273 194.053 199.751C195.385 201.082 195.089 203.3 193.609 204.483ZM190.057 200.047C189.02 200.786 188.872 202.265 189.761 203.3C190.501 204.335 191.981 204.483 193.017 203.595C194.053 202.856 194.201 201.378 193.313 200.343C192.425 199.308 191.093 199.16 190.057 200.047Z" fill="#E3F2FF"/>
<path d="M153.348 238.785C154.384 239.968 154.236 241.742 152.904 242.777C151.72 243.812 149.944 243.664 148.908 242.333C147.871 241.15 148.019 239.376 149.352 238.341C150.684 237.306 152.46 237.602 153.348 238.785Z" fill="#C955FF"/>
<path d="M153.348 243.22C151.868 244.403 149.795 244.255 148.611 242.777C147.427 241.298 147.575 239.228 149.055 238.046C150.535 236.863 152.608 237.011 153.792 238.489C154.976 239.82 154.828 242.038 153.348 243.22ZM149.795 238.785C148.759 239.524 148.611 241.003 149.499 242.038C150.239 243.073 151.72 243.22 152.756 242.333C153.792 241.594 153.94 240.115 153.052 239.08C152.164 238.046 150.683 237.898 149.795 238.785Z" fill="#E3F2FF"/>
<path d="M160.601 212.023H136.178C134.994 212.023 134.105 211.136 134.105 209.953V208.179C134.105 206.996 134.994 206.109 136.178 206.109H160.601C161.785 206.109 162.673 206.996 162.673 208.179V209.953C162.673 211.136 161.785 212.023 160.601 212.023Z" fill="#EBEBEB"/>
<path d="M160.601 201.673H136.178C134.994 201.673 134.105 200.786 134.105 199.603V197.829C134.105 196.646 134.994 195.759 136.178 195.759H160.601C161.785 195.759 162.673 196.646 162.673 197.829V199.603C162.673 200.786 161.785 201.673 160.601 201.673Z" fill="#EBEBEB"/>
<path d="M113.531 216.754C113.531 216.754 112.643 224.886 114.271 226.956C114.271 226.956 110.274 226.069 109.386 224.739C108.498 223.408 113.531 216.754 113.531 216.754Z" fill="#16202E"/>
<path d="M138.546 242.777C138.546 242.777 140.026 241.742 140.174 241.594C140.47 241.446 141.211 241.446 141.951 241.594C142.839 241.742 143.875 242.185 144.023 242.333C144.023 242.481 144.171 242.629 144.171 242.925C144.171 243.368 143.875 243.516 143.875 243.516C143.875 243.516 144.023 243.96 143.727 244.403C143.727 244.403 143.875 244.847 143.431 245.142C143.431 245.142 143.579 245.586 143.135 245.734C143.135 245.734 142.395 245.734 142.099 245.734C141.803 245.734 140.322 245.586 138.842 245.29C138.842 245.586 137.214 245.29 138.546 242.777Z" fill="#EEA886"/>
<path d="M140.915 243.516C140.915 243.516 140.47 244.255 140.174 244.403C139.878 244.551 141.359 246.03 141.359 246.03C141.359 246.03 141.951 244.107 140.915 243.516Z" fill="#CF8C6C"/>
<path d="M137.658 242.925C137.658 242.925 138.546 242.777 139.138 242.629C139.73 242.333 138.99 245.438 138.99 245.438C138.99 245.438 137.658 244.551 136.77 244.403C135.882 244.403 137.658 242.925 137.658 242.925Z" fill="#EEA886"/>
<path d="M99.9131 325.427C99.9131 325.427 102.725 329.567 103.762 330.454C103.762 330.454 105.686 331.489 105.834 332.377C105.982 334.003 105.982 334.89 103.466 334.89C100.801 334.89 99.173 334.89 98.7289 333.264C98.2849 331.637 97.3967 330.454 97.3967 330.454L97.2487 334.594H96.6566C96.6566 334.594 96.3606 330.454 96.3606 329.863C96.3606 329.272 95.9165 327.054 97.2487 326.019C98.2849 324.984 99.9131 325.427 99.9131 325.427Z" fill="#162D40"/>
<path d="M104.058 330.75C104.058 330.75 102.577 331.194 100.949 330.75C99.3211 330.306 97.6929 326.314 97.1008 326.019L96.6567 324.392H99.9132C99.9132 324.392 99.9132 325.575 100.505 326.61C101.097 327.497 104.058 330.75 104.058 330.75Z" fill="#162D40"/>
<path d="M118.416 323.801C118.416 323.801 118.86 324.836 119.6 325.871C120.192 326.61 121.968 329.863 122.856 330.011C123.596 330.159 126.113 330.602 126.409 332.081C126.557 333.411 126.705 334.446 124.336 334.594C121.82 334.742 120.192 334.89 119.008 333.116C117.824 331.342 115.899 330.159 115.899 330.159V334.742H115.011C115.011 334.742 114.567 330.011 114.271 329.715C113.975 329.419 113.383 325.723 115.603 323.949C117.972 322.027 118.416 323.801 118.416 323.801Z" fill="#162D40"/>
<path d="M122.856 330.159C122.856 330.159 120.636 330.75 119.748 330.159C118.859 329.567 116.047 324.688 115.011 324.392C115.011 324.392 115.899 322.47 118.267 323.949C118.415 323.801 122.264 329.272 122.856 330.159Z" fill="#162D40"/>
<path d="M98.5809 256.232C98.5809 256.232 95.4725 260.224 94.5844 265.103C93.6963 269.834 95.0285 286.098 95.0285 288.464C95.0285 290.829 92.9562 298.222 93.4003 302.658C93.8443 307.093 96.2126 325.723 96.2126 325.723L101.541 325.575C101.541 325.575 100.505 305.467 100.801 303.545C101.097 301.623 101.985 293.639 102.133 292.899C102.281 292.16 108.35 271.756 108.35 268.208C108.202 264.955 106.13 250.613 98.5809 256.232Z" fill="#1D3B54"/>
<path d="M114.271 257.858C114.271 257.858 119.452 277.375 120.044 280.036C120.636 282.697 121.82 286.246 121.82 286.837C121.82 287.281 121.228 295.709 121.228 295.709L119.748 324.097H114.419C114.419 324.097 112.643 306.058 112.347 302.362C112.051 298.666 114.271 293.047 113.827 291.569C113.235 290.09 104.946 272.2 104.946 272.2C104.946 272.2 98.4329 252.239 114.271 257.858Z" fill="#1D3B54"/>
<path d="M112.643 228.583C112.643 228.583 114.715 228.731 116.195 230.505C117.675 232.131 119.156 234.793 119.6 235.68C120.044 236.567 125.669 244.699 125.965 244.995C126.261 245.142 128.777 244.551 130.701 244.403C133.958 244.107 138.842 242.481 138.842 242.481L139.582 246.177C139.582 246.177 127.593 250.022 124.928 249.282C121.524 248.395 113.827 238.489 113.827 238.489C113.827 238.489 108.054 231.688 112.643 228.583Z" fill="#EDDAD3"/>
<path d="M109.09 227.252C109.09 227.252 111.754 228.435 112.643 228.731C113.531 228.879 117.083 233.61 117.823 235.236C118.415 236.863 117.823 239.524 116.491 242.481C115.159 245.438 116.491 246.473 115.899 249.43C115.307 252.387 115.307 260.519 115.455 262.146C115.603 263.772 98.4328 266.877 95.0283 263.92C95.0283 263.92 97.3966 256.232 100.061 253.422C100.653 252.831 100.653 248.691 100.209 247.656C99.7649 246.621 95.1763 238.933 95.1763 238.933C95.1763 238.933 94.8803 231.096 96.8046 229.618C98.5808 228.287 103.317 227.844 104.058 227.548C104.946 227.104 107.314 226.956 109.09 227.252Z" fill="#EDDAD3"/>
<path d="M109.978 233.166L111.607 231.244L110.275 226.217C110.127 226.217 109.682 229.026 109.978 233.166Z" fill="#D1C0BA"/>
<path d="M99.913 228.583C99.913 228.583 96.5086 227.696 94.5843 231.244C92.6601 234.94 93.1041 236.863 92.6601 238.637C92.216 240.263 90.4398 251.352 90.2918 251.796C90.1437 252.239 88.5155 257.858 88.6636 259.632C88.8116 261.406 90.4398 274.418 90.4398 274.861C90.4398 275.305 93.5482 274.418 93.5482 274.418C93.5482 274.418 93.4002 261.111 93.5482 259.928C93.6962 258.893 93.6962 252.979 94.5843 251.5C95.4724 250.022 97.3967 240.855 97.8408 239.967C98.4328 239.228 102.725 229.766 99.913 228.583Z" fill="#EEA886"/>
<path d="M110.422 224.147C110.422 224.147 109.83 229.026 109.978 230.653C109.978 230.653 107.166 233.462 104.058 227.4C104.058 227.4 105.39 224.886 104.354 221.634C103.466 218.233 110.422 224.147 110.422 224.147Z" fill="#EEA886"/>
<path d="M109.978 230.653V233.166L107.018 230.505L109.978 230.653Z" fill="#EEA886"/>
<path d="M109.978 233.166L108.646 231.54L104.206 227.104L102.577 227.844L109.978 233.166Z" fill="#D1C0BA"/>
<path d="M111.607 231.244L113.679 231.835L110.126 226.217L111.607 231.244Z" fill="#FAE6DE"/>
<path d="M108.646 231.54L106.722 234.497L102.429 227.696L104.354 226.808L108.646 231.54Z" fill="#FAE6DE"/>
<path d="M118.12 243.516C118.12 243.516 118.712 239.08 118.12 236.419C118.12 236.419 117.675 238.637 116.787 241.89L118.12 243.516Z" fill="#D1C0BA"/>
<path d="M97.5447 242.925C97.5447 242.925 99.3209 236.863 99.4689 236.567C99.4689 236.567 99.3209 242.185 98.5808 244.847C98.5808 244.847 97.9887 243.664 97.5447 242.925Z" fill="#D1C0BA"/>
<path d="M165.782 212.467L136.918 248.839L137.954 249.578L165.782 212.467Z" fill="#54281A"/>
<path d="M143.875 242.481C143.875 242.481 141.654 242.333 141.654 242.629C141.506 242.925 141.802 243.073 141.802 243.073L140.914 243.368C140.914 243.368 140.47 243.96 141.21 244.255C141.21 244.255 140.766 244.699 141.506 244.995C141.506 244.995 141.358 245.438 141.654 245.586C141.95 245.734 143.431 245.882 143.431 245.882C143.431 245.882 143.727 245.734 143.727 245.29C143.727 245.29 144.171 244.995 144.023 244.551C144.023 244.551 144.319 244.255 144.171 243.664C144.171 243.664 144.911 242.925 144.319 242.333C144.023 242.481 143.875 242.481 143.875 242.481Z" fill="#DB9C7C"/>
<path d="M140.322 241.742C140.322 241.742 141.655 242.481 142.099 243.22C142.247 243.368 142.247 243.516 142.247 243.664C142.099 243.812 141.803 243.812 141.21 243.516C140.618 243.22 139.73 243.073 139.73 243.073C139.73 243.073 139.138 242.629 140.322 241.742Z" fill="#EEA886"/>
<path d="M108.202 207.587C108.202 207.587 113.087 207.44 113.975 213.206C114.863 218.972 112.791 223.999 112.051 224.886C111.163 225.774 106.426 225.034 105.242 222.077C104.058 219.12 102.429 216.902 102.726 214.241C102.726 211.727 102.133 207.44 108.202 207.587Z" fill="#EEA886"/>
<path d="M114.123 215.424C114.123 215.424 115.455 208.179 108.942 206.996C102.429 205.665 100.209 210.101 99.617 212.762C99.025 215.424 99.765 222.816 99.765 222.816C99.765 222.816 104.058 226.661 106.722 227.548C106.722 227.548 104.502 219.711 105.39 213.945C105.39 213.945 110.718 214.832 114.123 213.945C113.975 213.945 114.123 215.128 114.123 215.424Z" fill="#16202E"/>
<path d="M110.274 225.182C110.274 225.182 108.646 225.182 106.278 223.704C106.278 223.704 107.906 225.774 110.126 226.513C110.126 226.513 110.274 225.478 110.274 225.182Z" fill="#A77860"/>
<path d="M100.59 262.47L81.7461 265.545L84.0129 279.407L102.857 276.333L100.59 262.47Z" fill="#366E9C"/>
<path d="M89.8478 279.149C89.8478 279.149 89.5518 278.705 89.5518 278.41C89.5518 278.41 89.5518 277.966 89.5518 277.522C89.5518 277.375 89.5518 277.375 89.5518 277.227C89.5518 276.931 89.2557 276.34 89.4038 275.748C89.4038 275.009 90.2919 272.2 90.2919 272.2H91.9201L93.5483 272.052C93.5483 272.052 95.4725 275.6 95.4725 276.34V276.488C95.4725 277.079 95.1765 277.375 95.1765 277.67C95.1765 277.818 94.8805 278.705 94.5844 278.853C94.1404 279.001 93.8443 279.001 93.5483 278.853C93.5483 278.853 92.8082 279.149 92.2161 279.001C92.2161 279.001 91.476 279.297 90.8839 279.001C91.032 279.297 90.2919 279.592 89.8478 279.149Z" fill="#EEA886"/>
<path d="M99.913 228.583C99.913 228.583 96.5085 227.696 94.5843 231.244C92.66 234.94 92.66 236.567 92.364 238.341C92.068 239.967 89.8477 250.169 89.6996 250.613C89.5516 251.057 88.8115 257.414 88.8115 259.632C88.8115 261.406 89.1076 272.791 89.1076 273.235C89.1076 273.678 94.4363 272.495 94.4363 272.495C94.4363 272.495 93.8442 261.998 93.9922 260.815C94.1402 259.78 94.2882 254.162 94.8803 252.535C95.4724 250.613 97.9887 241.002 98.4328 240.115C98.8768 239.376 102.725 229.766 99.913 228.583Z" fill="#EDDAD3"/>
<path d="M272.651 327.793L272.947 324.54C272.947 324.54 268.359 324.54 267.915 324.836C267.915 324.836 268.359 327.497 268.359 327.941C268.359 328.384 272.651 327.793 272.651 327.793Z" fill="#5C544D"/>
<path d="M264.954 334.446C270.431 334.446 272.947 334.742 273.54 333.855C274.132 332.968 272.651 327.349 272.651 327.349C272.651 327.349 271.319 327.793 268.211 327.497C268.211 327.497 266.879 329.124 265.546 329.863C264.214 330.602 262.142 330.898 261.402 331.637C260.958 332.229 259.478 334.594 264.954 334.446Z" fill="#3C4145"/>
<path d="M242.011 327.793L242.307 324.54C242.307 324.54 237.719 324.54 237.275 324.836C237.275 324.836 237.719 327.497 237.719 327.941C237.867 328.384 242.011 327.793 242.011 327.793Z" fill="#5C544D"/>
<path d="M234.314 334.447C239.791 334.299 242.307 334.742 242.9 333.855C243.492 332.968 242.011 327.349 242.011 327.349C242.011 327.349 240.827 327.793 237.571 327.497C237.571 327.497 236.239 329.124 234.906 329.863C233.574 330.602 228.838 331.194 227.95 331.933C227.654 332.524 226.617 334.742 234.314 334.447Z" fill="#3C4145"/>
<path d="M266.435 254.753C266.435 254.753 268.655 261.554 268.359 267.321C268.063 273.087 269.543 279.445 270.135 285.507C270.875 292.308 273.54 308.276 273.688 311.973C273.836 315.521 273.244 327.202 273.244 327.202L267.767 327.349C267.767 327.349 263.178 299.405 261.994 296.448C260.81 293.639 254.889 273.235 254.593 270.869C254.445 268.503 266.435 254.753 266.435 254.753Z" fill="#DBD8E3"/>
<path d="M243.196 255.936C243.196 255.936 240.235 271.904 239.791 275.453C239.347 279.001 239.199 292.604 238.903 294.822C238.755 297.039 237.571 323.949 236.535 327.202H243.64C243.64 327.202 248.968 307.685 248.968 298.37C248.968 289.055 253.113 278.262 255.777 272.2C258.442 266.138 264.658 265.99 266.287 254.605C266.435 254.753 245.564 252.24 243.196 255.936Z" fill="#DBD8E3"/>
<path d="M257.553 201.378C257.553 201.378 252.077 199.308 249.412 203.595C246.896 207.883 247.044 216.311 249.856 217.346C252.669 218.381 256.813 217.79 258.293 215.276C259.774 212.615 260.958 208.77 260.958 206.257C260.958 203.595 259.034 202.117 257.553 201.378Z" fill="#EEA886"/>
<path d="M250.893 217.05C250.893 217.05 251.189 218.529 250.745 219.268C250.3 220.007 257.701 220.007 257.701 220.007C257.701 220.007 258.294 216.163 259.478 212.762C260.514 209.51 250.893 217.05 250.893 217.05Z" fill="#EEA886"/>
<path d="M259.478 212.762C259.478 212.762 259.034 213.65 256.961 213.206C254.889 212.91 252.373 210.101 251.485 209.805C250.597 209.51 250.597 209.066 250.597 209.066L250.005 209.805H249.116C249.116 209.805 250.005 207.292 248.672 206.405C247.34 205.37 250.005 198.421 256.665 200.786C256.665 200.786 261.402 201.673 261.698 204.63C261.994 207.735 260.514 211.284 259.478 212.762Z" fill="#FCCCA2"/>
<path d="M250.301 219.12C250.301 219.12 250.301 217.789 250.893 217.642C251.485 217.494 257.702 216.902 258.442 217.198V218.824C258.59 218.824 257.109 219.712 250.301 219.12Z" fill="#E2D2CA"/>
<path d="M250.597 208.031C250.745 207.587 251.929 206.109 252.373 207.587C252.817 209.066 251.633 211.136 251.041 210.84C250.448 210.84 250.3 209.214 250.597 208.031Z" fill="#EEA886"/>
<path d="M250.3 219.12C250.3 219.12 246.896 220.303 242.899 222.077C242.899 222.077 238.311 223.704 237.867 228.731C237.571 231.392 234.758 245.586 234.166 246.769C233.574 247.952 227.357 267.173 227.061 267.616C226.913 268.06 232.242 270.278 232.538 270.13C232.834 269.982 238.607 252.535 239.199 251.352C239.199 251.352 242.455 241.003 242.603 239.376C242.603 239.376 242.751 243.812 242.899 244.995C243.047 246.177 239.939 270.278 240.087 271.017C240.235 271.756 254.297 272.496 259.922 271.904C265.546 271.313 270.135 269.982 270.135 269.982C270.135 269.982 265.694 250.909 265.842 248.839C266.138 244.255 267.619 235.532 267.619 235.532L272.207 244.107L266.286 259.189L267.619 263.772C267.619 263.772 278.572 247.212 278.868 245.734C279.164 244.255 278.276 242.333 277.684 241.003C277.092 239.82 273.391 230.357 272.503 229.026C271.615 227.696 270.135 222.373 266.435 220.894C263.474 219.711 258.293 218.677 258.293 218.677L250.3 219.12Z" fill="#63A4FF"/>
<path d="M247.3 258.333L221.634 251.759L217.038 269.662L242.704 276.236L247.3 258.333Z" fill="#F25F54"/>
<path d="M224.989 271.461C224.989 271.461 224.249 272.643 223.953 272.939C223.657 273.235 224.545 273.531 224.989 273.087C225.433 272.791 224.989 271.461 224.989 271.461Z" fill="#C98462"/>
<path d="M230.318 275.453C230.318 275.453 230.762 275.009 230.91 274.713C230.91 274.713 231.058 274.122 231.206 273.826C231.206 273.678 231.206 273.53 231.354 273.53C231.502 273.235 231.798 272.643 231.946 271.904C232.094 271.165 232.39 267.912 232.39 267.912L230.466 267.468L228.838 267.173C228.838 267.173 225.433 270.573 225.137 271.313V271.461C224.989 272.052 225.137 272.495 225.137 272.791C225.137 272.939 225.137 274.122 225.433 274.27C225.877 274.565 226.173 274.565 226.469 274.565C226.469 274.565 227.209 275.157 227.801 275.009C227.801 275.009 228.542 275.6 229.282 275.305C229.134 275.305 229.874 275.748 230.318 275.453Z" fill="#DE9D7D"/>
<path d="M238.163 254.753C238.163 254.753 233.574 268.504 232.686 269.982C232.686 269.982 229.282 269.243 227.209 267.469L232.242 252.535L238.163 254.753Z" fill="#63A4FF"/>
<path d="M122.708 404.973V403.051C126.556 403.051 130.553 402.903 134.402 402.755L134.55 404.677C130.553 404.825 126.556 404.973 122.708 404.973ZM110.866 404.825C107.018 404.677 103.021 404.529 99.0249 404.234L99.1729 402.312C103.169 402.607 107.018 402.755 110.866 402.903V404.825ZM146.243 403.938L146.095 402.016C149.944 401.72 153.94 401.277 157.789 400.833L158.085 402.755C154.088 403.051 150.092 403.494 146.243 403.938ZM87.1833 403.347C83.1868 402.903 79.1903 402.459 75.4898 401.868L75.7859 399.946C79.4863 400.537 83.4829 401.129 87.3314 401.424L87.1833 403.347ZM169.778 400.833L169.482 398.911C173.331 398.319 177.179 397.58 181.028 396.693L181.472 398.615C177.475 399.502 173.479 400.242 169.778 400.833ZM63.9443 399.502C59.9478 398.615 56.0993 397.432 52.5468 396.25L53.1389 394.327C56.6914 395.51 60.3919 396.693 64.3884 397.58L63.9443 399.502ZM192.869 396.102L192.425 394.18C195.978 393.292 199.826 392.405 203.823 391.223L204.267 393.145C200.27 394.327 196.422 395.215 192.869 396.102ZM41.4454 391.814C37.7449 390.04 34.3405 388.118 31.084 386.048L32.1202 384.421C35.2286 386.491 38.633 388.413 42.1855 390.188L41.4454 391.814ZM215.664 390.188L215.072 388.265C216.7 387.822 218.328 387.378 219.957 386.935C222.177 386.343 224.249 385.752 226.469 385.16L227.062 387.083C224.989 387.674 222.769 388.265 220.549 388.857C218.921 389.153 217.292 389.596 215.664 390.188ZM318.093 388.413C314.541 386.639 310.84 385.16 307.288 383.978L307.88 382.056C311.433 383.386 315.133 384.865 318.833 386.639L318.093 388.413ZM238.311 383.83L237.867 381.908C242.16 380.873 245.86 379.986 249.412 379.246L249.857 381.168C246.304 381.908 242.604 382.795 238.311 383.83ZM296.039 380.725C292.19 379.838 288.342 379.246 284.493 378.803L284.641 376.881C288.49 377.324 292.486 377.916 296.335 378.803L296.039 380.725ZM261.254 379.246L260.958 377.324C265.103 376.733 268.951 376.437 272.799 376.437V378.359C269.247 378.507 265.399 378.803 261.254 379.246ZM21.7588 378.507C18.7984 375.846 16.1341 372.741 13.7658 369.636L15.394 368.453C17.6143 371.558 20.2786 374.367 23.091 377.028L21.7588 378.507ZM7.54898 359.582C5.77275 356.033 4.44058 352.337 3.25642 348.493L5.18067 347.901C6.21681 351.745 7.697 355.294 9.32521 358.695L7.54898 359.582ZM0.740096 336.664C0.296039 332.82 0 328.828 0 324.836H1.92425C1.92425 328.828 2.22029 332.672 2.66435 336.516L0.740096 336.664ZM2.51633 313.155L0.592077 313.008C1.03613 309.163 1.62821 305.171 2.36831 301.327L4.29256 301.771C3.55246 305.467 2.96039 309.459 2.51633 313.155ZM7.10493 290.238L5.18067 289.794C7.10492 282.845 9.02917 278.705 9.02917 278.557L10.8054 279.297C10.8054 279.297 9.02918 283.585 7.10493 290.238Z" fill="#C2BEBC"/>
<path d="M386.478 410L337.04 395.658L351.842 391.223L386.478 410Z" fill="#D6D6D6"/>
<path d="M386.478 410L367.976 391.518L356.578 393.736L386.478 410Z" fill="#E8E8E8"/>
<path d="M348.437 398.911L348.881 404.677L386.478 410L348.437 398.911Z" fill="#C2C2C2"/>
</svg>
