<svg width="572" height="460" viewBox="0 0 572 460" fill="none" xmlns="http://www.w3.org/2000/svg">
<g clip-path="url(#clip0)">
<path d="M546.22 331.399C550.304 324.503 553.367 317.224 555.409 309.689L571.745 306.624L571.872 288.617L572 270.611L555.792 267.163C553.878 259.628 550.942 252.221 546.986 245.325L556.302 231.66L543.668 218.762L531.033 205.863L517.123 214.931C510.231 210.844 502.957 207.779 495.427 205.736L492.364 189.389L474.369 189.261L456.375 189.134L452.929 205.353C445.399 207.268 437.997 210.205 431.106 214.164L417.45 204.842L404.56 217.485L391.671 230.128L400.732 243.92C396.648 250.816 393.585 258.095 391.543 265.63L375.207 268.695L375.08 286.702L374.952 304.708L391.16 308.157C393.074 315.691 396.01 323.098 399.966 329.994L390.65 343.659L403.284 356.557L415.919 369.456L429.829 360.389C436.721 364.475 443.995 367.54 451.525 369.584L454.588 385.93L472.583 386.058L490.577 386.185L494.023 369.967C501.553 368.051 508.955 365.114 515.846 361.155L529.502 370.477L542.392 357.835L555.281 345.192L546.22 331.399ZM441.953 318.629C424.852 301.26 425.107 273.293 442.592 256.18C459.948 239.067 487.897 239.323 504.999 256.818C522.1 274.187 521.845 302.154 504.36 319.267C487.004 336.252 459.055 335.997 441.953 318.629Z" fill="#704ABE"/>
<path d="M424.98 371.116C423.831 369.711 422.172 368.69 420.13 368.69C417.45 368.69 415.026 370.35 414.26 372.904C414.005 373.542 414.005 374.181 413.877 374.819C413.877 375.586 414.005 376.352 414.26 376.991C414.643 378.14 415.408 379.034 416.302 379.8C417.195 380.439 418.344 380.949 419.492 381.077C419.62 381.077 419.875 381.077 420.003 381.077C420.13 381.077 420.258 381.077 420.258 381.077H420.386C421.024 381.077 421.534 380.949 422.172 380.694C424.47 379.8 426.129 377.629 426.256 374.947C426.256 373.542 425.746 372.265 424.98 371.116ZM421.662 379.162C421.279 379.289 420.769 379.417 420.386 379.417C420.258 379.417 420.13 379.417 420.13 379.417C419.748 379.417 419.237 379.289 418.854 379.162C418.344 379.034 417.833 378.778 417.323 378.395C417.195 378.268 417.068 378.14 416.812 378.012C415.919 377.118 415.408 375.969 415.536 374.692C415.536 374.309 415.536 374.053 415.664 373.67C415.664 373.542 415.791 373.415 415.791 373.159C416.429 371.371 418.216 369.967 420.258 369.967C421.789 369.967 423.066 370.733 423.831 371.755C424.47 372.521 424.852 373.542 424.725 374.564C424.597 376.863 423.321 378.523 421.662 379.162Z" fill="#4DA8F2"/>
<path d="M553.878 453.742H213.128V460H553.878V453.742Z" fill="#DFAFF6"/>
<path d="M510.104 227.701C510.104 227.701 513.422 233.32 514.826 234.342C516.74 235.619 515.591 236.896 514.57 236.896C513.677 236.896 509.083 237.279 508.062 236.13C507.041 234.981 506.53 231.532 505.637 230.639C504.744 229.745 503.723 226.169 506.147 225.275C508.189 224.253 510.104 227.701 510.104 227.701Z" fill="#6069A8"/>
<path d="M508.572 225.147C508.572 225.147 512.401 231.788 513.039 232.81C513.677 233.831 511.763 233.831 510.614 233.32C509.465 232.81 506.53 228.084 506.02 227.19C505.509 226.169 505.892 225.019 505.892 225.019L508.572 225.147Z" fill="#202338"/>
<path d="M504.743 228.723L505.637 235.619H506.147L506.02 230.639L504.743 228.723Z" fill="#6069A8"/>
<path d="M476.922 227.701C476.922 227.701 480.24 233.32 481.644 234.342C483.558 235.619 482.41 236.896 481.389 236.896C480.495 236.896 475.901 237.279 474.88 236.13C473.859 234.981 473.349 231.533 472.455 230.639C471.562 229.745 470.541 226.041 472.966 225.275C475.135 224.381 476.922 227.701 476.922 227.701Z" fill="#6069A8"/>
<path d="M475.773 225.147C475.773 225.147 479.347 231.788 480.113 232.682C480.751 233.703 478.836 233.703 477.688 233.193C476.539 232.682 473.604 227.957 473.093 227.063C472.583 226.041 472.966 224.892 472.966 224.892L475.773 225.147Z" fill="#202338"/>
<path d="M471.689 228.723L472.583 235.619H472.966L472.838 230.639L471.689 228.723Z" fill="#6069A8"/>
<path d="M462.118 176.108L492.364 189.9C492.364 189.9 495.682 191.049 496.065 194.753C497.214 206.502 506.02 225.019 506.02 225.019C508.827 226.424 508.572 225.147 508.572 225.147C506.785 219.528 504.616 196.03 503.85 186.707C503.723 184.664 503.595 183.387 503.595 182.876C503.595 182.621 503.212 182.238 502.702 181.727C498.618 178.406 481.516 171.383 481.516 171.383C468.754 171.127 462.118 176.108 462.118 176.108Z" fill="#202338"/>
<path d="M456.502 182.11C457.396 190.283 469.137 189.389 469.137 189.389H483.303C483.303 189.389 479.602 197.69 478.198 204.586C476.667 211.993 473.093 225.019 473.093 225.019C473.093 225.019 473.348 225.403 475.901 225.275C475.901 225.275 487.004 203.182 491.215 197.562C492.109 196.413 494.789 189.9 495.172 185.941C495.299 184.664 495.172 183.642 494.789 183.259C494.278 182.876 493.13 182.11 491.726 181.088C487.259 178.279 479.602 173.937 475.39 173.043C469.647 171.766 460.586 169.339 460.586 169.339C460.586 169.339 455.609 173.937 456.502 182.11Z" fill="#202338"/>
<path d="M466.074 119.151C466.074 119.151 463.905 115.192 465.053 110.85C466.074 106.635 470.03 102.293 475.901 104.209C481.772 106.124 486.366 110.722 482.92 115.958C479.474 121.194 486.111 123.493 484.324 126.047C482.665 128.473 483.303 131.155 483.941 131.666C484.707 132.304 487.004 134.348 486.749 136.774C486.494 139.2 475.518 129.622 475.518 129.622C475.518 129.622 469.52 117.618 466.074 119.151Z" fill="#464240"/>
<path d="M483.813 170.489C483.813 170.489 482.92 174.703 460.331 169.339C460.331 169.339 467.861 166.785 483.813 170.489Z" fill="#EB4747"/>
<path d="M460.076 170.616C459.693 171.255 459.438 171.893 459.055 172.66C467.35 172.915 475.518 173.17 483.813 173.426C482.537 169.084 482.92 163.082 483.175 158.612C483.431 153.12 486.494 149.289 486.111 143.798C487.77 144.053 488.025 144.053 489.684 144.309C487.132 137.157 486.366 133.709 478.581 130.9C476.029 130.006 474.369 129.878 471.689 130.006C462.756 130.772 459.948 130.9 455.609 138.945C462.501 140.094 461.352 142.521 463.522 149.417C464.543 152.737 465.564 156.569 465.053 160.017C464.415 163.592 460.076 167.424 460.076 170.616Z" fill="#5F8CC9"/>
<path d="M474.497 132.56C470.796 131.921 471.562 129.878 471.562 129.878C471.562 129.878 471.69 128.728 471.817 127.324C471.817 126.941 471.817 126.557 471.817 126.174C471.817 125.536 471.817 124.897 471.69 124.386C471.434 121.96 478.326 123.365 478.326 123.365C478.326 123.365 477.943 128.345 478.836 129.878C479.857 131.155 478.071 133.198 474.497 132.56Z" fill="#EEA886"/>
<path d="M467.478 129.75C467.478 129.75 474.88 138.307 477.688 140.35C477.688 140.35 480.878 137.54 478.836 130.006C478.836 130.006 475.263 128.218 467.478 129.75Z" fill="#EEA886"/>
<path d="M467.605 109.189C467.605 109.189 463.777 116.596 467.605 123.62C471.434 130.644 478.964 120.555 479.474 119.406C479.985 118.256 482.537 111.488 477.432 109.445C472.2 107.401 468.754 107.146 467.605 109.189Z" fill="#EEA886"/>
<path d="M468.882 111.743C468.882 111.743 466.202 115.192 465.946 117.746C465.946 117.746 464.926 112.893 467.861 108.168C470.796 103.442 478.453 107.912 479.474 109.828C480.495 111.743 483.431 113.404 478.453 121.321C478.453 121.449 469.52 115.192 468.882 111.743Z" fill="#464240"/>
<path d="M475.135 124.386C475.135 124.386 474.497 125.791 471.817 127.196C471.817 126.813 471.817 126.43 471.817 126.047C471.817 126.047 473.604 125.791 475.135 124.386Z" fill="#A77860"/>
<path d="M436.083 163.848C436.083 163.848 434.296 164.614 433.403 164.231C432.51 163.848 431.233 163.848 430.723 163.848C430.212 163.848 428.426 163.209 428.426 163.848C428.426 164.486 431.361 164.997 431.872 165.253C432.51 165.508 430.085 166.785 429.957 167.296C429.702 167.807 432.382 171.638 433.786 170.489C435.317 169.467 436.083 167.296 436.338 167.168C436.594 167.041 437.487 166.402 437.487 166.402L436.083 163.848Z" fill="#EEA886"/>
<path d="M430.212 167.041C430.212 167.041 425.873 170.616 425.873 171.127C425.746 171.638 426.001 171.893 426.511 171.51C426.894 171.255 430.723 168.19 430.723 168.19C430.723 168.19 426.384 173.298 426.256 173.681C426.129 173.937 426.639 174.32 426.767 174.192C427.022 174.064 431.616 169.212 431.616 169.212C431.616 169.212 427.66 173.937 427.532 174.32C427.532 174.575 428.043 174.958 428.298 174.575C428.681 174.192 432.637 170.105 432.637 170.105C432.637 170.105 429.957 173.809 430.085 174.064C430.212 174.32 430.468 174.703 431.233 173.681C431.872 172.66 433.658 170.616 433.658 170.616L430.212 167.041Z" fill="#EEA886"/>
<path d="M481.771 189.261H469.137C469.137 189.261 457.523 190.155 456.502 181.982C455.609 173.809 460.331 169.339 460.331 169.339C460.331 169.339 466.457 170.999 471.817 172.276C474.497 171.766 477.815 171.383 481.516 171.383C481.516 171.383 504.36 178.917 503.595 182.876C503.722 183.004 494.151 177.896 481.771 189.261Z" fill="#79109E"/>
<path d="M473.476 175.214L497.597 174.831L485.473 180.961L473.476 175.214Z" fill="#5E5853"/>
<path d="M481.006 172.021C481.006 172.021 475.518 174.064 468.882 172.277L468.626 169.85L482.282 170.616L481.006 172.021Z" fill="#5F8CC9"/>
<path d="M485.473 180.961L473.476 176.363V175.214L486.366 179.811L485.473 180.961Z" fill="#91887F"/>
<path d="M480.878 173.171C480.75 174.064 481.771 174.703 482.537 174.32L483.941 173.681C484.324 173.554 484.579 173.043 484.579 172.66C483.941 168.956 482.792 154.781 484.579 152.354C485.217 151.46 485.728 150.694 485.855 149.928C487.004 152.993 488.535 157.079 489.174 159.25L500.532 174.448L504.361 175.469C499.639 163.976 495.81 157.846 495.81 157.846C495.044 155.802 492.875 149.8 491.088 144.436C489.939 140.988 488.791 137.923 488.153 136.136C487.897 135.242 487.259 134.603 486.493 134.092C484.707 133.071 481.771 131.41 479.091 130.133C478.964 130.133 478.964 130.006 478.836 130.006C483.813 137.668 481.899 159.378 480.878 173.171Z" fill="#EDDAD3"/>
<path d="M462.118 130.644C460.459 130.9 456.502 134.858 454.333 138.817C451.908 143.287 449.356 148.395 447.569 150.183C444.123 153.248 434.552 164.231 434.041 163.976C433.913 163.848 436.721 167.296 436.976 167.424C437.104 167.551 452.674 154.014 454.205 151.971C455.609 150.056 459.438 141.882 460.586 142.01C460.714 142.138 461.99 145.203 463.394 149.545C463.394 149.672 463.394 149.672 463.522 149.8C464.415 152.865 464.287 156.185 463.905 159.889C463.522 162.698 461.48 167.296 460.204 169.595C460.076 169.85 460.076 170.361 460.204 170.744C460.331 170.999 460.459 171.127 460.586 171.255L465.181 172.915L466.202 173.298C466.967 173.554 467.733 173.426 468.371 173.043C468.882 172.66 469.265 172.149 469.265 171.51C470.286 163.72 471.562 155.675 472.583 152.737C477.05 139.456 470.796 129.622 470.796 129.622C470.796 129.622 463.522 130.133 462.118 130.644Z" fill="#EDDAD3"/>
<path d="M485.472 180.961L492.619 161.421L515.719 161.805L508.955 179.811L485.472 180.961Z" fill="#6E6760"/>
<path d="M500.021 170.105C499.256 171.51 499.511 173.043 500.532 173.554C501.553 174.064 502.829 173.298 503.595 171.893C504.361 170.489 504.105 168.956 503.084 168.445C502.063 167.934 500.659 168.701 500.021 170.105Z" fill="#807066"/>
<path d="M475.646 116.596C475.646 116.596 477.177 118.895 475.773 120.938C474.369 122.982 476.156 124.897 476.411 126.941C476.667 128.984 470.668 134.603 477.432 137.413C484.069 140.222 486.238 135.625 484.579 133.07C482.92 130.516 481.644 128.473 481.516 124.77C481.261 121.066 480.112 115.319 475.646 116.596Z" fill="#464240"/>
<path d="M442.975 107.018H456.885V117.107V119.278L454.716 117.107H442.975V107.018Z" fill="#A055FF"/>
<path d="M364.743 262.182C364.743 262.182 334.369 291.172 349.173 313.648C363.977 336.124 370.868 316.458 370.868 316.458C370.868 316.458 380.823 319.522 366.019 291.682C359 278.529 364.743 262.182 364.743 262.182Z" fill="#BBD070"/>
<path d="M255.115 360.772C255.115 360.772 255.754 359.112 255.881 358.856C256.009 358.601 256.647 358.218 257.413 357.835C258.178 357.451 259.455 357.196 259.582 357.324C259.71 357.451 259.837 357.451 260.093 357.707C260.22 358.09 260.22 358.473 260.22 358.473C260.22 358.473 260.603 358.856 260.476 359.239C260.476 359.239 260.858 359.622 260.603 360.133C260.603 360.133 260.986 360.516 260.731 360.772C260.731 360.772 260.093 361.155 259.837 361.41C259.582 361.666 258.306 362.432 256.775 362.943C256.902 362.815 255.498 362.943 255.115 360.772Z" fill="#EEA886"/>
<path d="M257.54 359.878C257.54 359.878 257.54 360.772 257.413 361.027C257.285 361.283 259.2 361.793 259.2 361.793C259.2 361.793 258.561 359.878 257.54 359.878Z" fill="#CF8C6C"/>
<path d="M221.551 446.718L222.444 444.164L226.018 444.675L225.507 447.102L221.551 446.718Z" fill="#3B3F66"/>
<path d="M250.776 446.463L250.904 447.868L254.86 447.229L254.605 445.058L250.776 446.463Z" fill="#555C94"/>
<path d="M242.353 406.108C242.353 406.108 241.843 409.173 241.077 412.748C240.949 413.387 240.822 414.025 240.694 414.536C240.056 417.857 239.418 421.049 239.163 421.816C238.652 423.348 226.656 445.186 226.656 445.186C226.656 445.186 221.806 444.803 221.551 444.164C221.551 444.164 231.505 420.411 231.505 419.645C231.505 418.751 232.782 394.486 232.782 394.486C232.782 394.486 242.098 404.703 242.353 406.108Z" fill="#354C70"/>
<path d="M247.714 392.954C247.714 392.954 252.436 416.835 252.818 418.623C253.201 420.411 254.988 444.931 254.988 444.931C254.988 444.931 253.967 447.102 250.011 446.335C250.011 446.335 244.778 420.028 244.268 419.134C242.481 415.686 234.058 399.212 233.292 396.785C232.527 394.359 232.654 391.677 232.654 391.677C232.654 391.677 239.035 388.101 247.714 392.954Z" fill="#354C70"/>
<path d="M245.799 362.049C245.799 362.049 247.841 367.157 248.352 367.029C248.862 366.902 254.733 360.005 254.733 360.005C254.733 360.005 257.413 363.326 257.03 363.709C256.519 364.22 249.628 375.841 248.607 375.586C247.713 375.33 243.374 368.306 243.374 368.306C243.374 368.306 243.247 362.943 245.799 362.049Z" fill="#79109E"/>
<path d="M236.993 352.343C236.993 352.343 242.353 356.43 243.757 357.962C245.161 359.622 249.245 366.263 248.99 368.306C247.841 375.969 247.331 382.61 247.331 387.846C247.331 392.443 248.735 393.592 247.841 393.592C246.82 393.72 233.42 398.445 231.506 399.084C231.506 399.084 232.782 382.993 233.42 381.077C234.058 379.162 231.378 359.75 236.993 352.343Z" fill="#79109E"/>
<path d="M271.196 344.553L272.345 350.555L273.493 356.557C273.493 356.557 266.729 354.386 258.944 355.919L258.434 353.237L257.923 350.555C265.708 349.15 271.196 344.553 271.196 344.553Z" fill="#D9D0C4"/>
<path d="M250.904 447.868C250.904 447.868 253.839 447.357 253.967 447.229C254.095 447.102 254.733 445.952 255.116 446.208C255.626 446.463 255.626 447.868 256.009 448.123C256.392 448.379 259.965 450.677 260.348 451.188C260.731 451.571 263.411 451.316 263.794 452.082C264.049 452.848 264.177 454.636 260.221 454.125C256.264 453.742 251.798 454.381 250.904 453.87C250.011 453.359 250.649 449.017 250.904 447.868Z" fill="#84BDFF"/>
<path d="M221.551 446.718C221.551 446.718 224.486 446.591 224.614 446.591C224.742 446.463 225.507 445.441 225.89 445.697C226.273 445.952 226.145 447.357 226.528 447.612C226.911 447.868 229.974 450.805 230.357 451.316C230.74 451.827 233.42 451.954 233.548 452.721C233.675 453.487 233.42 455.275 229.591 454.253C225.763 453.232 221.168 453.104 220.402 452.465C219.764 451.954 221.168 447.74 221.551 446.718Z" fill="#84BDFF"/>
<path d="M244.778 394.103C244.778 394.103 245.161 395.508 245.672 395.891C246.182 396.147 242.992 399.339 242.992 399.339C242.992 399.339 241.715 396.402 241.715 396.147C241.843 395.763 244.778 394.103 244.778 394.103Z" fill="#EEA987"/>
<path d="M234.696 358.601C234.696 358.601 230.867 376.735 230.612 378.523C230.357 380.311 241.715 397.04 241.715 397.04L245.544 394.742C245.544 394.742 236.355 377.884 236.355 377.118C236.355 376.352 240.822 361.793 240.822 361.793C240.822 361.793 242.609 358.601 239.418 357.068C236.1 355.536 234.696 358.601 234.696 358.601Z" fill="#79109E"/>
<path d="M246.948 395.253C246.948 395.253 248.224 401.383 248.096 403.298C247.969 405.214 240.95 400.361 241.332 398.445L246.948 395.253Z" fill="#3C5780"/>
<path d="M236.993 352.343C236.993 352.343 246.692 362.943 246.054 361.666C243.885 357.451 242.481 356.813 242.481 356.047C242.481 355.408 242.736 353.748 242.736 353.109C242.864 351.96 242.864 351.066 242.864 351.066C242.864 351.066 238.014 344.298 238.269 346.596C238.652 348.895 236.993 352.343 236.993 352.343Z" fill="#EEA886"/>
<path d="M246.182 339.828C246.182 339.828 247.458 342.893 247.586 343.659C247.586 344.425 247.458 344.936 247.586 345.83C247.713 346.724 248.479 348.512 248.352 349.023C248.224 349.661 246.948 349.278 246.82 350.3C246.693 351.321 245.672 353.237 245.289 353.237C244.14 353.365 239.546 351.449 239.163 350.555C238.908 349.534 237.249 344.298 236.738 343.276C236.228 342.254 244.778 336.635 245.544 338.295C246.182 339.828 246.182 339.828 246.182 339.828Z" fill="#EEA886"/>
<path d="M234.568 342.127C233.93 339.445 236.993 339.189 236.993 339.189C236.993 339.189 239.035 336.891 243.757 337.146C248.479 337.401 247.713 343.659 247.713 343.659C247.713 343.659 244.395 343.148 242.991 343.531C242.991 343.531 242.864 346.213 242.991 346.852L241.205 346.724C241.205 346.724 241.46 344.425 240.567 344.298C239.673 344.17 239.418 349.278 237.887 350.428C237.887 350.428 237.887 350.044 237.631 349.661C237.248 349.15 236.866 348.129 236.355 347.107C235.717 345.447 234.824 343.531 234.568 342.127Z" fill="#16202E"/>
<path d="M241.715 344.808C241.715 344.808 241.077 343.021 239.418 344.17C238.27 345.064 239.418 348.001 240.567 348.001C241.843 348.001 242.226 346.341 241.715 344.808Z" fill="#EEA886"/>
<path d="M238.78 349.661C238.78 349.661 239.035 350.555 239.291 350.811C239.546 351.066 240.694 351.96 242.864 352.726L242.736 354.642C242.609 354.642 238.652 353.109 238.78 349.661Z" fill="#C48A6F"/>
<path d="M256.137 355.664H256.009V362.815H256.137V355.664Z" fill="#96CBFF"/>
<path d="M256.137 355.664H256.009V362.815H256.137V355.664Z" fill="#95CAFF"/>
<path d="M256.265 355.664H256.137V362.815H256.265V355.664Z" fill="#94C9FF"/>
<path d="M256.265 355.664H256.137V362.815H256.265V355.664Z" fill="#93C9FF"/>
<path d="M256.392 355.664H256.264V362.815H256.392V355.664Z" fill="#92C8FF"/>
<path d="M256.519 355.664H256.392V362.815H256.519V355.664Z" fill="#91C7FF"/>
<path d="M256.519 355.664H256.392V362.815H256.519V355.664Z" fill="#90C6FF"/>
<path d="M256.647 355.664H256.52V362.815H256.647V355.664Z" fill="#8FC6FF"/>
<path d="M256.647 355.664H256.52V362.815H256.647V355.664Z" fill="#8EC5FF"/>
<path d="M256.775 355.664H256.647V362.815H256.775V355.664Z" fill="#8DC4FF"/>
<path d="M256.903 355.664H256.775V362.815H256.903V355.664Z" fill="#8CC3FF"/>
<path d="M256.903 355.664H256.775V362.815H256.903V355.664Z" fill="#8BC2FF"/>
<path d="M257.03 355.664H256.902V362.815H257.03V355.664Z" fill="#8AC2FF"/>
<path d="M257.03 355.664H256.902V362.815H257.03V355.664Z" fill="#89C1FF"/>
<path d="M257.158 355.664H257.03V362.815H257.158V355.664Z" fill="#88C0FF"/>
<path d="M257.158 355.664H257.03V362.815H257.158V355.664Z" fill="#87BFFF"/>
<path d="M257.285 355.664H257.158V362.815H257.285V355.664Z" fill="#86BFFF"/>
<path d="M257.413 355.664H257.285V362.815H257.413V355.664Z" fill="#85BEFF"/>
<path d="M257.413 355.664H257.285V362.815H257.413V355.664Z" fill="#84BDFF"/>
<path d="M257.54 355.664H257.413V362.815H257.54V355.664Z" fill="#83BCFF"/>
<path d="M257.54 355.664H257.413V362.815H257.54V355.664Z" fill="#82BBFF"/>
<path d="M257.668 355.664H257.541V362.815H257.668V355.664Z" fill="#81BBFF"/>
<path d="M257.668 355.664H257.541V362.815H257.668V355.664Z" fill="#80BAFF"/>
<path d="M257.796 355.664H257.668V362.815H257.796V355.664Z" fill="#7FB9FF"/>
<path d="M257.923 355.664H257.796V362.815H257.923V355.664Z" fill="#7EB8FF"/>
<path d="M257.923 355.664H257.796V362.815H257.923V355.664Z" fill="#7DB7FF"/>
<path d="M258.051 355.664H257.923V362.815H258.051V355.664Z" fill="#7CB7FF"/>
<path d="M258.051 355.664H257.923V362.815H258.051V355.664Z" fill="#7BB6FF"/>
<path d="M258.179 355.664H258.051V362.815H258.179V355.664Z" fill="#7AB5FF"/>
<path d="M258.306 355.664H258.179V362.815H258.306V355.664Z" fill="#79B4FF"/>
<path d="M258.306 355.664H258.179V362.815H258.306V355.664Z" fill="#78B4FF"/>
<path d="M258.434 355.664H258.306V362.815H258.434V355.664Z" fill="#77B3FF"/>
<path d="M258.434 355.664H258.306V362.815H258.434V355.664Z" fill="#76B2FF"/>
<path d="M258.561 355.664H258.434V362.815H258.561V355.664Z" fill="#74B1FF"/>
<path d="M258.561 355.664H258.434V362.815H258.561V355.664Z" fill="#73B0FF"/>
<path d="M258.689 355.664H258.562V362.815H258.689V355.664Z" fill="#72B0FF"/>
<path d="M258.817 355.664H258.689V362.815H258.817V355.664Z" fill="#71AFFF"/>
<path d="M258.817 355.664H258.689V362.815H258.817V355.664Z" fill="#70AEFF"/>
<path d="M258.944 355.664H258.817V362.815H258.944V355.664Z" fill="#6FADFF"/>
<path d="M258.944 355.664H258.817V362.815H258.944V355.664Z" fill="#6EADFF"/>
<path d="M259.072 355.664H258.944V362.815H259.072V355.664Z" fill="#6DACFF"/>
<path d="M259.199 355.664H259.072V362.815H259.199V355.664Z" fill="#6CABFF"/>
<path d="M259.199 355.664H259.072V362.815H259.199V355.664Z" fill="#6BAAFF"/>
<path d="M259.327 355.664H259.199V362.815H259.327V355.664Z" fill="#6AA9FF"/>
<path d="M259.327 355.664H259.199V362.815H259.327V355.664Z" fill="#69A9FF"/>
<path d="M259.455 355.664H259.327V362.815H259.455V355.664Z" fill="#68A8FF"/>
<path d="M259.455 355.664H259.327V362.815H259.455V355.664Z" fill="#67A7FF"/>
<path d="M259.582 355.664H259.455V362.815H259.582V355.664Z" fill="#66A6FF"/>
<path d="M259.71 355.664H259.583V362.815H259.71V355.664Z" fill="#65A6FF"/>
<path d="M259.71 355.664H259.583V362.815H259.71V355.664Z" fill="#64A5FF"/>
<path d="M259.838 355.664H259.71V362.815H259.838V355.664Z" fill="#63A4FF"/>
<path d="M259.838 355.664H259.71V362.815H259.838V355.664Z" fill="#62A3FF"/>
<path d="M259.965 355.664H259.838V362.815H259.965V355.664Z" fill="#61A2FF"/>
<path d="M259.965 355.664H259.838V362.815H259.965V355.664Z" fill="#60A2FF"/>
<path d="M260.093 355.664H259.965V362.815H260.093V355.664Z" fill="#5FA1FF"/>
<path d="M260.22 355.664H260.093V362.815H260.22V355.664Z" fill="#5EA0FF"/>
<path d="M260.22 355.664H260.093V362.815H260.22V355.664Z" fill="#5D9FFF"/>
<path d="M260.348 355.664H260.22V362.815H260.348V355.664Z" fill="#5C9EFF"/>
<path d="M260.348 355.664H260.22V362.815H260.348V355.664Z" fill="#5B9EFF"/>
<path d="M260.476 355.664H260.348V362.815H260.476V355.664Z" fill="#5A9DFF"/>
<path d="M260.603 355.664H260.476V362.815H260.603V355.664Z" fill="#599CFF"/>
<path d="M260.603 355.664H260.476V362.815H260.603V355.664Z" fill="#589BFF"/>
<path d="M260.731 355.664H260.604V362.815H260.731V355.664Z" fill="#579BFF"/>
<path d="M260.731 355.664H260.604V362.815H260.731V355.664Z" fill="#569AFF"/>
<path d="M260.859 355.664H260.731V362.815H260.859V355.664Z" fill="#5599FF"/>
<path d="M259.327 357.324C259.327 357.324 257.413 358.345 257.54 358.729C257.668 359.112 257.923 359.112 257.923 359.112L257.285 359.878C257.285 359.878 257.157 360.644 258.051 360.516C258.051 360.516 257.923 361.155 258.689 361.027C258.689 361.027 258.817 361.538 259.199 361.538C259.582 361.538 260.859 360.772 260.859 360.772C260.859 360.772 260.986 360.516 260.731 360.133C260.731 360.133 260.986 359.622 260.603 359.239C260.603 359.239 260.731 358.856 260.348 358.473C260.348 358.473 260.476 357.579 259.71 357.324C259.582 357.196 259.455 357.324 259.327 357.324Z" fill="#DB9C7C"/>
<path d="M252.818 350.3H252.691V357.196H252.818V350.3Z" fill="#96CBFF"/>
<path d="M252.947 350.3H252.819V357.196H252.947V350.3Z" fill="#95CAFF"/>
<path d="M252.947 350.3H252.819V357.196H252.947V350.3Z" fill="#94C9FF"/>
<path d="M253.073 350.3H252.946V357.196H253.073V350.3Z" fill="#93C9FF"/>
<path d="M253.201 350.3H253.073V357.196H253.201V350.3Z" fill="#92C8FF"/>
<path d="M253.329 350.3H253.201V357.196H253.329V350.3Z" fill="#91C7FF"/>
<path d="M253.456 350.3H253.329V357.196H253.456V350.3Z" fill="#90C6FF"/>
<path d="M253.584 350.3H253.457V357.196H253.584V350.3Z" fill="#8FC6FF"/>
<path d="M253.712 350.3H253.584V357.196H253.712V350.3Z" fill="#8EC5FF"/>
<path d="M253.839 350.3H253.712V357.196H253.839V350.3Z" fill="#8DC4FF"/>
<path d="M253.967 350.3H253.839V357.196H253.967V350.3Z" fill="#8CC3FF"/>
<path d="M254.094 350.3H253.967V357.196H254.094V350.3Z" fill="#8BC2FF"/>
<path d="M254.222 350.3H254.094V357.196H254.222V350.3Z" fill="#8AC2FF"/>
<path d="M254.35 350.3H254.222V357.196H254.35V350.3Z" fill="#89C1FF"/>
<path d="M254.477 350.3H254.35V357.196H254.477V350.3Z" fill="#88C0FF"/>
<path d="M254.605 350.3H254.477V357.196H254.605V350.3Z" fill="#87BFFF"/>
<path d="M254.733 350.3H254.605V357.196H254.733V350.3Z" fill="#86BFFF"/>
<path d="M254.86 350.3H254.733V357.196H254.86V350.3Z" fill="#85BEFF"/>
<path d="M254.988 350.3H254.86V357.196H254.988V350.3Z" fill="#84BDFF"/>
<path d="M255.115 350.3H254.988V357.196H255.115V350.3Z" fill="#83BCFF"/>
<path d="M255.243 350.3H255.115V357.196H255.243V350.3Z" fill="#82BBFF"/>
<path d="M255.243 350.3H255.115V357.196H255.243V350.3Z" fill="#81BBFF"/>
<path d="M255.371 350.3H255.243V357.196H255.371V350.3Z" fill="#80BAFF"/>
<path d="M255.498 350.3H255.371V357.196H255.498V350.3Z" fill="#7FB9FF"/>
<path d="M255.626 350.3H255.498V357.196H255.626V350.3Z" fill="#7EB8FF"/>
<path d="M255.754 350.3H255.626V357.196H255.754V350.3Z" fill="#7DB7FF"/>
<path d="M255.881 350.3H255.754V357.196H255.881V350.3Z" fill="#7CB7FF"/>
<path d="M256.009 350.3H255.881V357.196H256.009V350.3Z" fill="#7BB6FF"/>
<path d="M256.136 350.3H256.009V357.196H256.136V350.3Z" fill="#7AB5FF"/>
<path d="M256.264 350.3H256.136V357.196H256.264V350.3Z" fill="#79B4FF"/>
<path d="M256.392 350.3H256.264V357.196H256.392V350.3Z" fill="#78B4FF"/>
<path d="M256.519 350.3H256.392V357.196H256.519V350.3Z" fill="#77B3FF"/>
<path d="M256.647 350.3H256.519V357.196H256.647V350.3Z" fill="#76B2FF"/>
<path d="M256.775 350.3H256.647V357.196H256.775V350.3Z" fill="#74B1FF"/>
<path d="M256.902 350.3H256.775V357.196H256.902V350.3Z" fill="#73B0FF"/>
<path d="M257.03 350.3H256.902V357.196H257.03V350.3Z" fill="#72B0FF"/>
<path d="M257.157 350.3H257.03V357.196H257.157V350.3Z" fill="#71AFFF"/>
<path d="M257.285 350.3H257.157V357.196H257.285V350.3Z" fill="#70AEFF"/>
<path d="M257.413 350.3H257.285V357.196H257.413V350.3Z" fill="#6FADFF"/>
<path d="M257.54 350.3H257.413V357.196H257.54V350.3Z" fill="#6EADFF"/>
<path d="M257.668 350.3H257.54V357.196H257.668V350.3Z" fill="#6DACFF"/>
<path d="M257.668 350.3H257.54V357.196H257.668V350.3Z" fill="#6CABFF"/>
<path d="M257.796 350.3H257.668V357.196H257.796V350.3Z" fill="#6BAAFF"/>
<path d="M257.923 350.3H257.795V357.196H257.923V350.3Z" fill="#6AA9FF"/>
<path d="M258.051 350.3H257.923V357.196H258.051V350.3Z" fill="#69A9FF"/>
<path d="M258.178 350.3H258.051V357.196H258.178V350.3Z" fill="#68A8FF"/>
<path d="M258.306 350.3H258.178V357.196H258.306V350.3Z" fill="#67A7FF"/>
<path d="M258.434 350.3H258.306V357.196H258.434V350.3Z" fill="#66A6FF"/>
<path d="M258.561 350.3H258.434V357.196H258.561V350.3Z" fill="#65A6FF"/>
<path d="M258.689 350.3H258.561V357.196H258.689V350.3Z" fill="#64A5FF"/>
<path d="M258.817 350.3H258.689V357.196H258.817V350.3Z" fill="#63A4FF"/>
<path d="M258.944 350.3H258.816V357.196H258.944V350.3Z" fill="#62A3FF"/>
<path d="M259.072 350.3H258.944V357.196H259.072V350.3Z" fill="#61A2FF"/>
<path d="M259.199 350.3H259.072V357.196H259.199V350.3Z" fill="#60A2FF"/>
<path d="M259.327 350.3H259.199V357.196H259.327V350.3Z" fill="#5FA1FF"/>
<path d="M259.455 350.3H259.327V357.196H259.455V350.3Z" fill="#5EA0FF"/>
<path d="M259.582 350.3H259.455V357.196H259.582V350.3Z" fill="#5D9FFF"/>
<path d="M259.71 350.3H259.582V357.196H259.71V350.3Z" fill="#5C9EFF"/>
<path d="M259.838 350.3H259.71V357.196H259.838V350.3Z" fill="#5B9EFF"/>
<path d="M259.965 350.3H259.837V357.196H259.965V350.3Z" fill="#5A9DFF"/>
<path d="M259.965 350.3H259.837V357.196H259.965V350.3Z" fill="#599CFF"/>
<path d="M260.093 350.3H259.965V357.196H260.093V350.3Z" fill="#589BFF"/>
<path d="M260.22 350.3H260.093V357.196H260.22V350.3Z" fill="#579BFF"/>
<path d="M260.348 350.3H260.22V357.196H260.348V350.3Z" fill="#569AFF"/>
<path d="M260.476 350.3H260.348V357.196H260.476V350.3Z" fill="#5599FF"/>
<path d="M256.009 358.729C256.009 358.729 257.54 358.729 258.306 358.984C258.434 359.112 258.689 359.112 258.689 359.367C258.689 359.622 258.434 359.878 257.796 359.878C257.158 359.878 256.264 360.261 256.264 360.261C256.264 360.261 255.498 360.261 256.009 358.729Z" fill="#EEA886"/>
<path d="M241.077 412.748C240.95 413.387 240.822 414.026 240.694 414.536L236.866 404.32C237.376 405.341 241.077 412.748 241.077 412.748Z" fill="#293B57"/>
<path d="M412.218 270.483C412.218 270.483 426.894 227.574 398.945 214.292C370.996 201.011 347.386 220.167 342.919 230.639C338.452 240.983 339.601 260.011 343.43 273.165C347.258 286.319 346.748 306.496 338.452 313.137C330.157 319.906 319.82 331.016 320.33 353.748C320.585 367.796 375.718 317.735 375.718 317.735L412.218 270.483Z" fill="#252E3B"/>
<path d="M373.038 321.438C373.038 321.438 350.066 326.546 341.005 331.91C331.944 337.274 311.652 361.666 311.652 372.265C311.652 382.737 400.094 392.571 400.094 392.571L416.812 453.742C416.812 453.742 461.48 442.887 466.84 433.82C472.2 424.753 449.866 359.878 446.037 346.852C442.209 333.443 426.128 324.12 407.496 321.566C388.863 318.884 373.038 321.438 373.038 321.438Z" fill="#79109E"/>
<path d="M405.964 321.183C405.964 321.183 405.454 349.023 383.375 349.917C361.297 350.683 365.891 323.226 365.891 323.226C365.891 323.226 381.971 316.713 405.964 321.183Z" fill="#EEA886"/>
<path d="M415.281 237.151C415.281 237.151 423.065 281.977 400.859 314.414C377.76 347.873 415.281 237.151 415.281 237.151Z" fill="#252E3B"/>
<path d="M401.115 301.516C401.115 301.516 399.583 314.797 402.136 323.098C404.688 331.399 368.316 331.655 368.316 324.758C368.316 316.968 372.017 310.583 368.571 297.301C365.125 284.02 401.115 301.516 401.115 301.516Z" fill="#EEA886"/>
<path d="M372.91 303.176C372.91 303.176 384.396 315.18 399.073 304.453C399.073 304.453 397.796 312.115 387.331 313.137C376.739 314.159 372.91 303.176 372.91 303.176Z" fill="#A77860"/>
<path d="M387.331 221.571C387.331 221.571 416.302 230.128 412.218 270.483C408.134 310.711 389.118 308.667 387.331 309.05C385.545 309.306 363.083 310.838 355.937 261.927C348.79 212.887 387.331 221.571 387.331 221.571Z" fill="#EEA886"/>
<path d="M379.802 239.45C379.802 239.45 395.627 264.609 412.218 270.355C412.218 270.355 421.279 228.212 383.886 219.4C346.493 210.589 352.363 261.927 355.171 275.591C355.043 275.719 362.828 255.541 379.802 239.45Z" fill="#252E3B"/>
<path d="M358.744 235.747C358.744 235.747 367.04 219.656 381.078 218.89C395.116 218.123 403.412 230.383 403.412 230.383C403.412 230.383 397.924 216.719 381.078 216.719C364.104 216.719 358.744 235.747 358.744 235.747Z" fill="#88C0FF"/>
<path d="M415.791 362.177L425.618 453.742H296.082L286.255 362.177H415.791Z" fill="#A055FF"/>
<path d="M422.427 450.55H291.871L281.916 357.834H412.6L422.427 450.55ZM292.891 449.528H421.151L411.452 359.112H283.065L292.891 449.528Z" fill="#A055FF"/>
<path d="M363.977 406.491C365.125 412.238 362.445 417.601 358.106 418.495C353.639 419.389 349.173 415.558 348.024 409.811C346.875 404.064 349.556 398.701 353.895 397.807C358.234 396.913 362.828 400.744 363.977 406.491Z" fill="#7840BF"/>
<path d="M413.365 453.749H437.486V444.554H413.365V453.749Z" fill="#5FA0FF"/>
<path d="M425.934 93.8689C425.934 93.8689 423.088 91.3586 417.926 87.7346L418.925 86.3142C424.089 90.0658 427.063 92.5742 427.063 92.5742L425.934 93.8689ZM409.54 81.9894C406.703 80.1175 403.868 78.3733 400.906 76.6311L401.777 75.2127C404.74 76.9549 407.702 78.6971 410.54 80.5689L409.54 81.9894ZM392.024 71.7876C389.063 70.1731 385.977 68.6883 382.892 67.3311L383.634 65.787C386.719 67.1441 389.807 68.7566 392.766 70.2434L392.024 71.7876ZM373.639 63.2597C370.43 62.0322 367.347 60.8028 364.139 59.703L364.624 58.0351C367.832 59.1349 371.042 60.3623 374.252 61.5898L373.639 63.2597ZM244.853 63.212L244.827 61.552C248.143 61.3729 251.457 61.0661 254.767 60.5039L255.048 62.1599C251.61 62.7241 248.171 63.1606 244.853 63.212ZM234.637 62.8594C231.313 62.5278 227.985 61.9407 224.524 60.9726L224.881 59.3067C228.213 60.1491 231.54 60.7361 234.737 61.0698L234.637 62.8594ZM265.093 59.7052L264.557 58.0532C265.699 57.6523 266.716 57.3811 267.859 56.9802C270.016 56.1805 272.176 55.5084 274.207 54.8383L274.744 56.4904C272.584 57.1624 270.552 57.8325 268.393 58.5046C267.25 58.9055 266.108 59.3064 265.093 59.7052ZM354.394 56.7887C351.188 55.8166 347.858 55.1018 344.528 54.3871L344.885 52.7212C348.215 53.4359 351.547 54.2783 354.751 55.1227L354.394 56.7887ZM214.777 57.9306C211.824 56.8268 208.739 55.4697 205.398 53.9888L206.14 52.4447C209.481 53.9255 212.438 55.2847 215.391 56.3884L214.777 57.9306ZM284.404 53.9139L283.996 52.2599C287.303 51.57 290.739 50.8781 294.051 50.4437L294.332 52.0997C291.022 52.6619 287.712 53.2241 284.404 53.9139ZM334.673 52.624C331.347 52.1647 327.894 51.7073 324.7 51.5013L324.802 49.8394C328.126 50.171 331.577 50.5007 334.903 50.9601L334.673 52.624ZM37.0695 55.5757L36.1545 54.1849C39.0597 52.2241 41.967 50.3909 44.7486 48.6874L45.6636 50.0782C42.7544 51.7836 39.8471 53.6168 37.0695 55.5757ZM304.401 51.1773L304.247 49.5193C307.563 49.3402 311.007 49.1591 314.454 49.2334L314.48 50.8934C311.162 50.9448 307.716 50.9982 304.401 51.1773ZM196.137 49.4066C193.178 47.9198 190.345 46.3033 187.127 44.5651L187.997 43.0189C191.215 44.7572 194.046 46.246 196.879 47.8624L196.137 49.4066ZM54.2616 44.836L53.3447 43.3176C56.3815 41.6101 59.4183 39.9027 62.3315 38.4526L63.1209 39.973C60.2097 41.5508 57.1709 43.1306 54.2616 44.836ZM178.247 39.8492C174.902 38.113 171.943 36.6262 169.242 35.2631L169.984 33.7189C172.685 35.082 175.771 36.5668 179.117 38.3031L178.247 39.8492ZM72.2432 35.6168L71.5814 34.0944C74.7498 32.6404 77.9202 31.314 80.9649 30.1173L81.6267 31.6397C78.4544 32.8384 75.284 34.1647 72.2432 35.6168ZM159.989 31.1917C156.777 29.8365 153.569 28.7367 150.491 27.7626L150.975 26.0947C154.181 27.0668 157.262 28.1686 160.601 29.5218L159.989 31.1917ZM91.0221 28.4288L90.4859 26.7767C93.7879 25.7038 97.0938 24.8862 100.402 24.1963L100.81 25.8504C97.6299 26.5383 94.324 27.3558 91.0221 28.4288ZM140.751 25.2314C137.421 24.5167 134.096 24.0573 130.772 23.7257L130.874 22.0637C134.197 22.3954 137.651 22.8527 140.98 23.5675L140.751 25.2314ZM110.74 24.1638L110.586 22.5058C114.026 22.0694 117.469 21.8883 120.787 21.8369L120.813 23.4968C117.493 23.4206 114.179 23.7274 110.74 24.1638Z" fill="#C2BEBC"/>
<path d="M0 80.7884L37.5207 59.7168L24.631 58.8229L0 80.7884Z" fill="#D6D6D6"/>
<path d="M0 80.7884L11.4859 62.1432L21.1852 61.8878L0 80.7884Z" fill="#E8E8E8"/>
<path d="M28.8425 64.5697L29.6082 69.2949L0 80.7885L28.8425 64.5697Z" fill="#C2C2C2"/>
</g>
<defs>
<clipPath id="clip0">
<rect width="572" height="460" fill="white"/>
</clipPath>
</defs>
</svg>
