<svg width="365" height="380" viewBox="0 0 365 380" fill="none" xmlns="http://www.w3.org/2000/svg">
<path d="M255.643 281.184C258.777 275.892 261.128 270.306 262.695 264.524L275.232 262.172L275.33 248.353L275.428 234.535L262.989 231.889C261.519 226.107 259.267 220.423 256.23 215.131L263.38 204.645L253.684 194.747L243.987 184.849L233.311 191.807C228.021 188.671 222.438 186.319 216.66 184.751L214.309 172.207L200.498 172.109L186.688 172.011L184.043 184.457C178.264 185.927 172.583 188.181 167.294 191.219L156.814 184.065L146.921 193.767L137.028 203.469L143.983 214.053C140.848 219.345 138.498 224.931 136.93 230.713L124.393 233.065L124.295 246.883L124.197 260.702L136.637 263.348C138.106 269.13 140.359 274.814 143.395 280.106L136.245 290.592L145.942 300.49L155.638 310.388L166.315 303.43C171.604 306.566 177.187 308.918 182.966 310.486L185.316 323.03L199.127 323.128L212.938 323.226L215.582 310.78C221.361 309.31 227.042 307.056 232.331 304.018L242.811 311.172L252.704 301.47L262.597 291.768L255.643 281.184ZM175.62 271.384C162.495 258.056 162.691 236.593 176.109 223.461C189.43 210.329 210.881 210.525 224.006 223.951C237.131 237.279 236.935 258.742 223.516 271.874C210.195 284.908 188.745 284.712 175.62 271.384Z" fill="#704ABE"/>
<path d="M162.592 311.662C161.711 310.584 160.437 309.8 158.87 309.8C156.813 309.8 154.952 311.074 154.365 313.034C154.169 313.524 154.169 314.014 154.071 314.504C154.071 315.092 154.169 315.68 154.365 316.17C154.659 317.052 155.246 317.738 155.932 318.326C156.617 318.816 157.499 319.208 158.38 319.306C158.478 319.306 158.674 319.306 158.772 319.306C158.87 319.306 158.968 319.306 158.968 319.306H159.066C159.556 319.306 159.948 319.208 160.437 319.012C162.2 318.326 163.474 316.66 163.572 314.602C163.572 313.524 163.18 312.544 162.592 311.662ZM160.046 317.836C159.752 317.934 159.36 318.032 159.066 318.032C158.968 318.032 158.87 318.032 158.87 318.032C158.576 318.032 158.185 317.934 157.891 317.836C157.499 317.738 157.107 317.542 156.715 317.248C156.617 317.15 156.519 317.052 156.324 316.954C155.638 316.268 155.246 315.386 155.344 314.406C155.344 314.112 155.344 313.916 155.442 313.622C155.442 313.524 155.54 313.426 155.54 313.23C156.03 311.858 157.401 310.78 158.968 310.78C160.144 310.78 161.123 311.368 161.711 312.152C162.2 312.74 162.494 313.524 162.396 314.308C162.298 316.072 161.319 317.346 160.046 317.836Z" fill="#4DA8F2"/>
<path d="M261.519 375.069H0V379.871H261.519V375.069Z" fill="#DFAFF6"/>
<path d="M227.923 201.607C227.923 201.607 230.47 205.919 231.547 206.703C233.017 207.683 232.135 208.663 231.351 208.663C230.666 208.663 227.14 208.957 226.356 208.075C225.572 207.193 225.181 204.547 224.495 203.861C223.809 203.175 223.026 200.431 224.887 199.745C226.454 198.961 227.923 201.607 227.923 201.607Z" fill="#6069A8"/>
<path d="M226.748 199.647C226.748 199.647 229.686 204.743 230.176 205.527C230.666 206.311 229.196 206.311 228.315 205.919C227.433 205.527 225.18 201.901 224.789 201.215C224.397 200.431 224.691 199.549 224.691 199.549L226.748 199.647Z" fill="#202338"/>
<path d="M223.81 202.391L224.495 207.683H224.887L224.789 203.861L223.81 202.391Z" fill="#6069A8"/>
<path d="M202.457 201.607C202.457 201.607 205.004 205.919 206.081 206.703C207.55 207.683 206.669 208.663 205.885 208.663C205.199 208.663 201.673 208.957 200.89 208.075C200.106 207.193 199.714 204.547 199.029 203.861C198.343 203.175 197.56 200.333 199.421 199.745C201.086 199.059 202.457 201.607 202.457 201.607Z" fill="#6069A8"/>
<path d="M201.576 199.647C201.576 199.647 204.318 204.743 204.906 205.429C205.396 206.213 203.926 206.213 203.045 205.821C202.163 205.429 199.91 201.803 199.519 201.117C199.127 200.333 199.421 199.451 199.421 199.451L201.576 199.647Z" fill="#202338"/>
<path d="M198.441 202.391L199.127 207.683H199.421L199.323 203.861L198.441 202.391Z" fill="#6069A8"/>
<path d="M191.095 162.015L214.309 172.599C214.309 172.599 216.855 173.481 217.149 176.323C218.031 185.339 224.789 199.549 224.789 199.549C226.944 200.627 226.748 199.647 226.748 199.647C225.377 195.335 223.712 177.303 223.124 170.149C223.026 168.581 222.928 167.601 222.928 167.209C222.928 167.013 222.634 166.719 222.242 166.327C219.108 163.779 205.983 158.389 205.983 158.389C196.188 158.193 191.095 162.015 191.095 162.015Z" fill="#202338"/>
<path d="M186.785 166.621C187.471 172.893 196.482 172.207 196.482 172.207H207.354C207.354 172.207 204.514 178.577 203.437 183.869C202.261 189.553 199.519 199.549 199.519 199.549C199.519 199.549 199.715 199.843 201.673 199.745C201.673 199.745 210.195 182.791 213.427 178.479C214.113 177.597 216.17 172.599 216.464 169.561C216.561 168.581 216.464 167.797 216.17 167.503C215.778 167.209 214.896 166.621 213.819 165.837C210.391 163.681 204.514 160.348 201.282 159.662C196.874 158.682 189.92 156.82 189.92 156.82C189.92 156.82 186.1 160.348 186.785 166.621Z" fill="#202338"/>
<path d="M194.131 118.306C194.131 118.306 192.466 115.268 193.348 111.936C194.131 108.702 197.168 105.37 201.673 106.84C206.179 108.31 209.705 111.838 207.06 115.856C204.416 119.874 209.509 121.638 208.138 123.598C206.865 125.46 207.354 127.518 207.844 127.91C208.432 128.4 210.195 129.968 209.999 131.83C209.803 133.692 201.379 126.342 201.379 126.342C201.379 126.342 196.776 117.13 194.131 118.306Z" fill="#464240"/>
<path d="M207.746 157.702C207.746 157.702 207.06 160.936 189.724 156.82C189.724 156.82 195.503 154.86 207.746 157.702Z" fill="#EB4747"/>
<path d="M189.528 157.8C189.234 158.29 189.038 158.78 188.744 159.368C195.111 159.564 201.379 159.76 207.746 159.956C206.766 156.624 207.06 152.018 207.256 148.588C207.452 144.374 209.803 141.434 209.509 137.22C210.782 137.416 210.978 137.416 212.251 137.612C210.293 132.124 209.705 129.478 203.73 127.322C201.771 126.636 200.498 126.538 198.441 126.636C191.585 127.224 189.43 127.322 186.1 133.496C191.389 134.378 190.507 136.24 192.172 141.532C192.956 144.08 193.739 147.02 193.348 149.666C192.858 152.41 189.528 155.35 189.528 157.8Z" fill="#5F8CC9"/>
<path d="M200.596 128.596C197.756 128.106 198.343 126.538 198.343 126.538C198.343 126.538 198.441 125.656 198.539 124.578C198.539 124.284 198.539 123.99 198.539 123.696C198.539 123.206 198.539 122.716 198.441 122.324C198.245 120.462 203.535 121.54 203.535 121.54C203.535 121.54 203.241 125.362 203.926 126.538C204.71 127.518 203.339 129.086 200.596 128.596Z" fill="#EEA886"/>
<path d="M195.209 126.44C195.209 126.44 200.89 133.006 203.045 134.574C203.045 134.574 205.493 132.418 203.926 126.636C203.926 126.636 201.184 125.264 195.209 126.44Z" fill="#EEA886"/>
<path d="M195.307 110.662C195.307 110.662 192.369 116.346 195.307 121.736C198.245 127.126 204.024 119.384 204.416 118.502C204.808 117.62 206.767 112.426 202.849 110.858C198.833 109.29 196.188 109.094 195.307 110.662Z" fill="#EEA886"/>
<path d="M196.287 112.622C196.287 112.622 194.23 115.268 194.034 117.228C194.034 117.228 193.25 113.504 195.503 109.878C197.756 106.252 203.633 109.682 204.416 111.152C205.2 112.622 207.453 113.896 203.633 119.972C203.633 120.07 196.776 115.268 196.287 112.622Z" fill="#464240"/>
<path d="M201.086 122.324C201.086 122.324 200.596 123.402 198.539 124.48C198.539 124.186 198.539 123.892 198.539 123.598C198.539 123.598 199.91 123.402 201.086 122.324Z" fill="#A77860"/>
<path d="M171.114 152.606C171.114 152.606 169.742 153.194 169.057 152.9C168.371 152.606 167.392 152.606 167 152.606C166.608 152.606 165.237 152.116 165.237 152.606C165.237 153.096 167.49 153.488 167.881 153.684C168.371 153.88 166.51 154.86 166.412 155.252C166.216 155.644 168.273 158.584 169.351 157.702C170.526 156.918 171.114 155.252 171.31 155.154C171.505 155.056 172.191 154.566 172.191 154.566L171.114 152.606Z" fill="#EEA886"/>
<path d="M166.608 155.056C166.608 155.056 163.278 157.8 163.278 158.192C163.18 158.584 163.376 158.78 163.768 158.486C164.061 158.29 167 155.938 167 155.938C167 155.938 163.67 159.858 163.572 160.152C163.474 160.348 163.866 160.642 163.964 160.544C164.159 160.446 167.686 156.722 167.686 156.722C167.686 156.722 164.649 160.348 164.551 160.642C164.551 160.838 164.943 161.132 165.139 160.838C165.433 160.544 168.469 157.408 168.469 157.408C168.469 157.408 166.412 160.25 166.51 160.446C166.608 160.642 166.804 160.936 167.392 160.152C167.881 159.368 169.253 157.8 169.253 157.8L166.608 155.056Z" fill="#EEA886"/>
<path d="M206.179 172.109H196.482C196.482 172.109 187.569 172.795 186.786 166.523C186.1 160.25 189.724 156.82 189.724 156.82C189.724 156.82 194.425 158.094 198.539 159.074C200.596 158.682 203.143 158.388 205.983 158.388C205.983 158.388 223.516 164.171 222.928 167.209C223.026 167.307 215.68 163.387 206.179 172.109Z" fill="#79109E"/>
<path d="M199.812 161.328L218.325 161.034L209.02 165.738L199.812 161.328Z" fill="#5E5853"/>
<path d="M205.591 158.878C205.591 158.878 201.379 160.446 196.286 159.074L196.09 157.212L206.571 157.8L205.591 158.878Z" fill="#5F8CC9"/>
<path d="M209.02 165.739L199.812 162.211V161.328L209.705 164.857L209.02 165.739Z" fill="#91887F"/>
<path d="M205.493 159.76C205.395 160.447 206.179 160.937 206.767 160.643L207.844 160.152C208.138 160.054 208.334 159.662 208.334 159.368C207.844 156.526 206.963 145.648 208.334 143.786C208.824 143.1 209.215 142.512 209.313 141.924C210.195 144.276 211.37 147.412 211.86 149.078L220.577 160.741L223.516 161.525C219.892 152.704 216.953 148 216.953 148C216.366 146.432 214.7 141.826 213.329 137.71C212.448 135.064 211.566 132.712 211.076 131.34C210.881 130.654 210.391 130.164 209.803 129.772C208.432 128.988 206.179 127.714 204.122 126.734C204.024 126.734 204.024 126.636 203.926 126.636C207.746 132.516 206.277 149.176 205.493 159.76Z" fill="#EDDAD3"/>
<path d="M191.095 127.126C189.822 127.322 186.785 130.36 185.12 133.398C183.259 136.828 181.3 140.748 179.929 142.12C177.285 144.472 169.938 152.9 169.547 152.704C169.449 152.606 171.604 155.252 171.799 155.35C171.897 155.448 183.847 145.06 185.022 143.492C186.1 142.022 189.038 135.75 189.92 135.848C190.018 135.946 190.997 138.298 192.075 141.63C192.075 141.728 192.075 141.728 192.173 141.826C192.858 144.178 192.76 146.726 192.466 149.568C192.173 151.724 190.605 155.252 189.626 157.016C189.528 157.212 189.528 157.604 189.626 157.899C189.724 158.095 189.822 158.193 189.92 158.291L193.446 159.565L194.229 159.859C194.817 160.055 195.405 159.957 195.895 159.663C196.286 159.369 196.58 158.977 196.58 158.487C197.364 152.508 198.343 146.334 199.127 144.08C202.555 133.888 197.756 126.342 197.756 126.342C197.756 126.342 192.173 126.734 191.095 127.126Z" fill="#EDDAD3"/>
<path d="M209.02 165.739L214.505 150.744L232.233 151.038L227.042 164.857L209.02 165.739Z" fill="#6E6760"/>
<path d="M220.185 157.408C219.598 158.486 219.794 159.662 220.577 160.054C221.361 160.446 222.34 159.858 222.928 158.78C223.516 157.702 223.32 156.526 222.536 156.134C221.753 155.742 220.675 156.33 220.185 157.408Z" fill="#807066"/>
<path d="M201.478 116.346C201.478 116.346 202.653 118.11 201.576 119.678C200.498 121.246 201.87 122.716 202.065 124.284C202.261 125.852 197.658 130.164 202.849 132.32C207.942 134.476 209.607 130.948 208.334 128.988C207.061 127.028 206.081 125.46 205.983 122.618C205.787 119.776 204.906 115.366 201.478 116.346Z" fill="#464240"/>
<path d="M176.403 108.996H187.079V116.738V118.404L185.414 116.738H176.403V108.996Z" fill="#A055FF"/>
<path d="M116.361 228.067C116.361 228.067 93.05 250.314 104.412 267.562C115.774 284.81 121.063 269.718 121.063 269.718C121.063 269.718 128.703 272.07 117.341 250.706C111.954 240.611 116.361 228.067 116.361 228.067Z" fill="#BBD070"/>
<path d="M32.2245 303.724C32.2245 303.724 32.7142 302.45 32.8122 302.254C32.9101 302.058 33.3999 301.764 33.9875 301.47C34.5752 301.176 35.5547 300.98 35.6527 301.078C35.7506 301.176 35.8486 301.176 36.0445 301.372C36.1424 301.666 36.1424 301.96 36.1424 301.96C36.1424 301.96 36.4362 302.254 36.3383 302.548C36.3383 302.548 36.6321 302.842 36.4362 303.234C36.4362 303.234 36.7301 303.528 36.5342 303.724C36.5342 303.724 36.0445 304.018 35.8486 304.214C35.6527 304.41 34.6732 304.998 33.4978 305.39C33.5958 305.292 32.5183 305.39 32.2245 303.724Z" fill="#EEA886"/>
<path d="M34.0856 303.038C34.0856 303.038 34.0855 303.724 33.9876 303.92C33.8897 304.116 35.3589 304.508 35.3589 304.508C35.3589 304.508 34.8691 303.038 34.0856 303.038Z" fill="#CF8C6C"/>
<path d="M6.46448 369.679L7.1501 367.719L9.89262 368.111L9.50083 369.973L6.46448 369.679Z" fill="#3B3F66"/>
<path d="M28.8943 369.483L28.9922 370.561L32.0286 370.071L31.8327 368.405L28.8943 369.483Z" fill="#555C94"/>
<path d="M22.4299 338.515C22.4299 338.515 22.0381 340.867 21.4504 343.611C21.3525 344.101 21.2545 344.591 21.1566 344.983C20.6668 347.531 20.1771 349.981 19.9812 350.569C19.5894 351.745 10.3824 368.503 10.3824 368.503C10.3824 368.503 6.66037 368.209 6.46448 367.719C6.46448 367.719 14.1044 349.491 14.1044 348.903C14.1044 348.217 15.0838 329.596 15.0838 329.596C15.0838 329.596 22.234 337.437 22.4299 338.515Z" fill="#354C70"/>
<path d="M26.5437 328.42C26.5437 328.42 30.1677 346.747 30.4615 348.119C30.7554 349.491 32.1266 368.307 32.1266 368.307C32.1266 368.307 31.3431 369.973 28.3067 369.385C28.3067 369.385 24.2908 349.197 23.8991 348.511C22.5278 345.865 16.0633 333.223 15.4756 331.36C14.8879 329.498 14.9859 327.44 14.9859 327.44C14.9859 327.44 19.8832 324.696 26.5437 328.42Z" fill="#354C70"/>
<path d="M25.0745 304.704C25.0745 304.704 26.6416 308.624 27.0334 308.526C27.4252 308.428 31.9308 303.136 31.9308 303.136C31.9308 303.136 33.9876 305.684 33.6938 305.978C33.302 306.37 28.0129 315.288 27.2293 315.092C26.5437 314.896 23.2135 309.506 23.2135 309.506C23.2135 309.506 23.1155 305.39 25.0745 304.704Z" fill="#79109E"/>
<path d="M18.316 297.256C18.316 297.256 22.4298 300.392 23.5072 301.568C24.5846 302.842 27.7189 307.938 27.523 309.506C26.6415 315.386 26.2497 320.482 26.2497 324.5C26.2497 328.028 27.3271 328.91 26.6415 328.91C25.8579 329.008 15.5735 332.634 14.1042 333.124C14.1042 333.124 15.0837 320.776 15.5735 319.306C16.0632 317.836 14.0063 302.94 18.316 297.256Z" fill="#79109E"/>
<path d="M44.5659 291.278L45.4474 295.884L46.3289 300.49C46.3289 300.49 41.1377 298.824 35.163 300L34.7712 297.942L34.3794 295.884C40.3542 294.806 44.5659 291.278 44.5659 291.278Z" fill="#D9D0C4"/>
<path d="M28.9923 370.561C28.9923 370.561 31.245 370.169 31.343 370.071C31.4409 369.973 31.9307 369.091 32.2245 369.287C32.6163 369.483 32.6163 370.561 32.9101 370.757C33.204 370.953 35.9465 372.717 36.2404 373.109C36.5342 373.403 38.5911 373.207 38.8849 373.795C39.0808 374.383 39.1788 375.755 36.1424 375.363C33.106 375.069 29.6779 375.559 28.9923 375.167C28.3066 374.775 28.7964 371.443 28.9923 370.561Z" fill="#84BDFF"/>
<path d="M6.46441 369.679C6.46441 369.679 8.71718 369.581 8.81513 369.581C8.91308 369.483 9.50076 368.699 9.7946 368.895C10.0884 369.091 9.9905 370.169 10.2843 370.365C10.5782 370.561 12.9289 372.815 13.2228 373.207C13.5166 373.599 15.5735 373.697 15.6714 374.285C15.7694 374.873 15.5735 376.245 12.6351 375.461C9.69665 374.677 6.17055 374.579 5.58287 374.089C5.09314 373.697 6.17056 370.463 6.46441 369.679Z" fill="#84BDFF"/>
<path d="M24.2908 329.302C24.2908 329.302 24.5846 330.38 24.9764 330.674C25.3682 330.87 22.9195 333.32 22.9195 333.32C22.9195 333.32 21.9401 331.066 21.9401 330.87C22.038 330.576 24.2908 329.302 24.2908 329.302Z" fill="#EEA987"/>
<path d="M16.553 302.058C16.553 302.058 13.6146 315.974 13.4187 317.346C13.2228 318.718 21.9401 331.556 21.9401 331.556L24.8785 329.792C24.8785 329.792 17.8263 316.856 17.8263 316.268C17.8263 315.68 21.2544 304.508 21.2544 304.508C21.2544 304.508 22.6257 302.058 20.177 300.882C17.6304 299.706 16.553 302.058 16.553 302.058Z" fill="#79109E"/>
<path d="M25.9559 330.184C25.9559 330.184 26.9354 334.888 26.8375 336.358C26.7395 337.829 21.3524 334.104 21.6462 332.634L25.9559 330.184Z" fill="#3C5780"/>
<path d="M18.3159 297.256C18.3159 297.256 25.7599 305.39 25.2702 304.41C23.6051 301.176 22.5277 300.686 22.5277 300.098C22.5277 299.608 22.7236 298.334 22.7236 297.844C22.8215 296.962 22.8215 296.276 22.8215 296.276C22.8215 296.276 19.0995 291.082 19.2954 292.846C19.5892 294.61 18.3159 297.256 18.3159 297.256Z" fill="#EEA886"/>
<path d="M25.3682 287.652C25.3682 287.652 26.3477 290.004 26.4457 290.592C26.4457 291.18 26.3477 291.572 26.4457 292.258C26.5436 292.944 27.1313 294.316 27.0333 294.708C26.9354 295.198 25.9559 294.904 25.858 295.688C25.76 296.472 24.9764 297.942 24.6826 297.942C23.8011 298.04 20.275 296.57 19.9811 295.884C19.7852 295.1 18.5119 291.082 18.1201 290.298C17.7283 289.514 24.2908 285.202 24.8785 286.476C25.3682 287.652 25.3682 287.652 25.3682 287.652Z" fill="#EEA886"/>
<path d="M16.4549 289.416C15.9652 287.358 18.3159 287.162 18.3159 287.162C18.3159 287.162 19.8831 285.398 23.5071 285.594C27.1312 285.79 26.5435 290.592 26.5435 290.592C26.5435 290.592 23.9969 290.2 22.9194 290.494C22.9194 290.494 22.8215 292.552 22.9194 293.042L21.5482 292.944C21.5482 292.944 21.7441 291.18 21.0585 291.082C20.3728 290.984 20.1769 294.904 19.0016 295.786C19.0016 295.786 19.0016 295.492 18.8057 295.198C18.5118 294.806 18.218 294.022 17.8262 293.238C17.3365 291.964 16.6508 290.494 16.4549 289.416Z" fill="#16202E"/>
<path d="M21.9401 291.474C21.9401 291.474 21.4503 290.102 20.177 290.984C19.2955 291.67 20.177 293.924 21.0585 293.924C22.038 293.924 22.3318 292.65 21.9401 291.474Z" fill="#EEA886"/>
<path d="M19.6873 295.198C19.6873 295.198 19.8831 295.884 20.079 296.08C20.2749 296.276 21.1565 296.962 22.8216 297.55L22.7236 299.02C22.6257 299.02 19.5893 297.844 19.6873 295.198Z" fill="#C48A6F"/>
<path d="M33.0081 299.804H32.9102V305.292H33.0081V299.804Z" fill="#96CBFF"/>
<path d="M33.0081 299.804H32.9102V305.292H33.0081V299.804Z" fill="#95CAFF"/>
<path d="M33.1083 299.804H33.0104V305.292H33.1083V299.804Z" fill="#94C9FF"/>
<path d="M33.1083 299.804H33.0104V305.292H33.1083V299.804Z" fill="#93C9FF"/>
<path d="M33.2039 299.804H33.106V305.292H33.2039V299.804Z" fill="#92C8FF"/>
<path d="M33.3019 299.804H33.204V305.292H33.3019V299.804Z" fill="#91C7FF"/>
<path d="M33.3019 299.804H33.204V305.292H33.3019V299.804Z" fill="#90C6FF"/>
<path d="M33.3999 299.804H33.302V305.292H33.3999V299.804Z" fill="#8FC6FF"/>
<path d="M33.3999 299.804H33.302V305.292H33.3999V299.804Z" fill="#8EC5FF"/>
<path d="M33.4978 299.804H33.3999V305.292H33.4978V299.804Z" fill="#8DC4FF"/>
<path d="M33.5959 299.804H33.4979V305.292H33.5959V299.804Z" fill="#8CC3FF"/>
<path d="M33.5959 299.804H33.4979V305.292H33.5959V299.804Z" fill="#8BC2FF"/>
<path d="M33.6937 299.804H33.5957V305.292H33.6937V299.804Z" fill="#8AC2FF"/>
<path d="M33.6937 299.804H33.5957V305.292H33.6937V299.804Z" fill="#89C1FF"/>
<path d="M33.7917 299.804H33.6937V305.292H33.7917V299.804Z" fill="#88C0FF"/>
<path d="M33.7917 299.804H33.6937V305.292H33.7917V299.804Z" fill="#87BFFF"/>
<path d="M33.8897 299.804H33.7917V305.292H33.8897V299.804Z" fill="#86BFFF"/>
<path d="M33.9875 299.804H33.8895V305.292H33.9875V299.804Z" fill="#85BEFF"/>
<path d="M33.9875 299.804H33.8895V305.292H33.9875V299.804Z" fill="#84BDFF"/>
<path d="M34.0855 299.804H33.9875V305.292H34.0855V299.804Z" fill="#83BCFF"/>
<path d="M34.0855 299.804H33.9875V305.292H34.0855V299.804Z" fill="#82BBFF"/>
<path d="M34.1835 299.804H34.0856V305.292H34.1835V299.804Z" fill="#81BBFF"/>
<path d="M34.1835 299.804H34.0856V305.292H34.1835V299.804Z" fill="#80BAFF"/>
<path d="M34.2814 299.804H34.1835V305.292H34.2814V299.804Z" fill="#7FB9FF"/>
<path d="M34.3793 299.804H34.2814V305.292H34.3793V299.804Z" fill="#7EB8FF"/>
<path d="M34.3793 299.804H34.2814V305.292H34.3793V299.804Z" fill="#7DB7FF"/>
<path d="M34.4773 299.804H34.3794V305.292H34.4773V299.804Z" fill="#7CB7FF"/>
<path d="M34.4773 299.804H34.3794V305.292H34.4773V299.804Z" fill="#7BB6FF"/>
<path d="M34.5753 299.804H34.4773V305.292H34.5753V299.804Z" fill="#7AB5FF"/>
<path d="M34.6732 299.804H34.5753V305.292H34.6732V299.804Z" fill="#79B4FF"/>
<path d="M34.6732 299.804H34.5753V305.292H34.6732V299.804Z" fill="#78B4FF"/>
<path d="M34.7712 299.804H34.6732V305.292H34.7712V299.804Z" fill="#77B3FF"/>
<path d="M34.7712 299.804H34.6732V305.292H34.7712V299.804Z" fill="#76B2FF"/>
<path d="M34.869 299.804H34.7711V305.292H34.869V299.804Z" fill="#74B1FF"/>
<path d="M34.869 299.804H34.7711V305.292H34.869V299.804Z" fill="#73B0FF"/>
<path d="M34.9671 299.804H34.8691V305.292H34.9671V299.804Z" fill="#72B0FF"/>
<path d="M35.065 299.804H34.967V305.292H35.065V299.804Z" fill="#71AFFF"/>
<path d="M35.065 299.804H34.967V305.292H35.065V299.804Z" fill="#70AEFF"/>
<path d="M35.1629 299.804H35.0649V305.292H35.1629V299.804Z" fill="#6FADFF"/>
<path d="M35.1629 299.804H35.0649V305.292H35.1629V299.804Z" fill="#6EADFF"/>
<path d="M35.2609 299.804H35.163V305.292H35.2609V299.804Z" fill="#6DACFF"/>
<path d="M35.3588 299.804H35.2609V305.292H35.3588V299.804Z" fill="#6CABFF"/>
<path d="M35.3588 299.804H35.2609V305.292H35.3588V299.804Z" fill="#6BAAFF"/>
<path d="M35.4568 299.804H35.3589V305.292H35.4568V299.804Z" fill="#6AA9FF"/>
<path d="M35.4568 299.804H35.3589V305.292H35.4568V299.804Z" fill="#69A9FF"/>
<path d="M35.5547 299.804H35.4568V305.292H35.5547V299.804Z" fill="#68A8FF"/>
<path d="M35.5547 299.804H35.4568V305.292H35.5547V299.804Z" fill="#67A7FF"/>
<path d="M35.6526 299.804H35.5547V305.292H35.6526V299.804Z" fill="#66A6FF"/>
<path d="M35.7506 299.804H35.6527V305.292H35.7506V299.804Z" fill="#65A6FF"/>
<path d="M35.7506 299.804H35.6527V305.292H35.7506V299.804Z" fill="#64A5FF"/>
<path d="M35.8484 299.804H35.7505V305.292H35.8484V299.804Z" fill="#63A4FF"/>
<path d="M35.8484 299.804H35.7505V305.292H35.8484V299.804Z" fill="#62A3FF"/>
<path d="M35.9466 299.804H35.8486V305.292H35.9466V299.804Z" fill="#61A2FF"/>
<path d="M35.9466 299.804H35.8486V305.292H35.9466V299.804Z" fill="#60A2FF"/>
<path d="M36.0445 299.804H35.9465V305.292H36.0445V299.804Z" fill="#5FA1FF"/>
<path d="M36.1424 299.804H36.0444V305.292H36.1424V299.804Z" fill="#5EA0FF"/>
<path d="M36.1424 299.804H36.0444V305.292H36.1424V299.804Z" fill="#5D9FFF"/>
<path d="M36.2404 299.804H36.1425V305.292H36.2404V299.804Z" fill="#5C9EFF"/>
<path d="M36.2404 299.804H36.1425V305.292H36.2404V299.804Z" fill="#5B9EFF"/>
<path d="M36.3383 299.804H36.2404V305.292H36.3383V299.804Z" fill="#5A9DFF"/>
<path d="M36.4362 299.804H36.3383V305.292H36.4362V299.804Z" fill="#599CFF"/>
<path d="M36.4362 299.804H36.3383V305.292H36.4362V299.804Z" fill="#589BFF"/>
<path d="M36.5342 299.804H36.4363V305.292H36.5342V299.804Z" fill="#579BFF"/>
<path d="M36.5342 299.804H36.4363V305.292H36.5342V299.804Z" fill="#569AFF"/>
<path d="M36.6321 299.804H36.5342V305.292H36.6321V299.804Z" fill="#5599FF"/>
<path d="M35.4569 301.078C35.4569 301.078 33.9877 301.862 34.0856 302.156C34.1836 302.45 34.3795 302.45 34.3795 302.45L33.8897 303.038C33.8897 303.038 33.7918 303.626 34.4774 303.528C34.4774 303.528 34.3795 304.018 34.9671 303.92C34.9671 303.92 35.0651 304.312 35.3589 304.312C35.6528 304.312 36.6322 303.724 36.6322 303.724C36.6322 303.724 36.7302 303.528 36.5343 303.234C36.5343 303.234 36.7302 302.842 36.4364 302.548C36.4364 302.548 36.5343 302.254 36.2405 301.96C36.2405 301.96 36.3384 301.274 35.7507 301.078C35.6528 300.98 35.5548 301.078 35.4569 301.078Z" fill="#DB9C7C"/>
<path d="M30.4615 295.69H30.3635V300.982H30.4615V295.69Z" fill="#96CBFF"/>
<path d="M30.5617 295.69H30.4637V300.982H30.5617V295.69Z" fill="#95CAFF"/>
<path d="M30.5617 295.69H30.4637V300.982H30.5617V295.69Z" fill="#94C9FF"/>
<path d="M30.6573 295.688H30.5593V300.98H30.6573V295.688Z" fill="#93C9FF"/>
<path d="M30.7553 295.688H30.6573V300.98H30.7553V295.688Z" fill="#92C8FF"/>
<path d="M30.8532 295.688H30.7552V300.98H30.8532V295.688Z" fill="#91C7FF"/>
<path d="M30.9512 295.688H30.8533V300.98H30.9512V295.688Z" fill="#90C6FF"/>
<path d="M31.0491 295.688H30.9512V300.98H31.0491V295.688Z" fill="#8FC6FF"/>
<path d="M31.147 295.688H31.0491V300.98H31.147V295.688Z" fill="#8EC5FF"/>
<path d="M31.245 295.688H31.1471V300.98H31.245V295.688Z" fill="#8DC4FF"/>
<path d="M31.343 295.688H31.245V300.98H31.343V295.688Z" fill="#8CC3FF"/>
<path d="M31.4408 295.688H31.3429V300.98H31.4408V295.688Z" fill="#8BC2FF"/>
<path d="M31.5389 295.688H31.4409V300.98H31.5389V295.688Z" fill="#8AC2FF"/>
<path d="M31.6368 295.688H31.5388V300.98H31.6368V295.688Z" fill="#89C1FF"/>
<path d="M31.7348 295.688H31.6368V300.98H31.7348V295.688Z" fill="#88C0FF"/>
<path d="M31.8327 295.688H31.7347V300.98H31.8327V295.688Z" fill="#87BFFF"/>
<path d="M31.9306 295.688H31.8326V300.98H31.9306V295.688Z" fill="#86BFFF"/>
<path d="M32.0286 295.688H31.9307V300.98H32.0286V295.688Z" fill="#85BEFF"/>
<path d="M32.1265 295.688H32.0286V300.98H32.1265V295.688Z" fill="#84BDFF"/>
<path d="M32.2245 295.688H32.1266V300.98H32.2245V295.688Z" fill="#83BCFF"/>
<path d="M32.3224 295.688H32.2245V300.98H32.3224V295.688Z" fill="#82BBFF"/>
<path d="M32.3224 295.688H32.2245V300.98H32.3224V295.688Z" fill="#81BBFF"/>
<path d="M32.4205 295.688H32.3225V300.98H32.4205V295.688Z" fill="#80BAFF"/>
<path d="M32.5184 295.688H32.4204V300.98H32.5184V295.688Z" fill="#7FB9FF"/>
<path d="M32.6163 295.688H32.5183V300.98H32.6163V295.688Z" fill="#7EB8FF"/>
<path d="M32.7141 295.688H32.6162V300.98H32.7141V295.688Z" fill="#7DB7FF"/>
<path d="M32.8121 295.688H32.7141V300.98H32.8121V295.688Z" fill="#7CB7FF"/>
<path d="M32.9102 295.688H32.8123V300.98H32.9102V295.688Z" fill="#7BB6FF"/>
<path d="M33.0081 295.688H32.9102V300.98H33.0081V295.688Z" fill="#7AB5FF"/>
<path d="M33.106 295.688H33.0081V300.98H33.106V295.688Z" fill="#79B4FF"/>
<path d="M33.204 295.688H33.1061V300.98H33.204V295.688Z" fill="#78B4FF"/>
<path d="M33.3019 295.688H33.204V300.98H33.3019V295.688Z" fill="#77B3FF"/>
<path d="M33.3998 295.688H33.3019V300.98H33.3998V295.688Z" fill="#76B2FF"/>
<path d="M33.4978 295.688H33.3999V300.98H33.4978V295.688Z" fill="#74B1FF"/>
<path d="M33.5957 295.688H33.4978V300.98H33.5957V295.688Z" fill="#73B0FF"/>
<path d="M33.6938 295.688H33.5958V300.98H33.6938V295.688Z" fill="#72B0FF"/>
<path d="M33.7917 295.688H33.6937V300.98H33.7917V295.688Z" fill="#71AFFF"/>
<path d="M33.8896 295.688H33.7916V300.98H33.8896V295.688Z" fill="#70AEFF"/>
<path d="M33.9876 295.688H33.8896V300.98H33.9876V295.688Z" fill="#6FADFF"/>
<path d="M34.0855 295.688H33.9875V300.98H34.0855V295.688Z" fill="#6EADFF"/>
<path d="M34.1835 295.688H34.0856V300.98H34.1835V295.688Z" fill="#6DACFF"/>
<path d="M34.1835 295.688H34.0856V300.98H34.1835V295.688Z" fill="#6CABFF"/>
<path d="M34.2814 295.688H34.1835V300.98H34.2814V295.688Z" fill="#6BAAFF"/>
<path d="M34.3793 295.688H34.2814V300.98H34.3793V295.688Z" fill="#6AA9FF"/>
<path d="M34.4773 295.688H34.3794V300.98H34.4773V295.688Z" fill="#69A9FF"/>
<path d="M34.5752 295.688H34.4773V300.98H34.5752V295.688Z" fill="#68A8FF"/>
<path d="M34.6732 295.688H34.5753V300.98H34.6732V295.688Z" fill="#67A7FF"/>
<path d="M34.7712 295.688H34.6732V300.98H34.7712V295.688Z" fill="#66A6FF"/>
<path d="M34.869 295.688H34.7711V300.98H34.869V295.688Z" fill="#65A6FF"/>
<path d="M34.9671 295.688H34.8691V300.98H34.9671V295.688Z" fill="#64A5FF"/>
<path d="M35.065 295.688H34.967V300.98H35.065V295.688Z" fill="#63A4FF"/>
<path d="M35.1629 295.688H35.0649V300.98H35.1629V295.688Z" fill="#62A3FF"/>
<path d="M35.2609 295.688H35.163V300.98H35.2609V295.688Z" fill="#61A2FF"/>
<path d="M35.3588 295.688H35.2609V300.98H35.3588V295.688Z" fill="#60A2FF"/>
<path d="M35.4568 295.688H35.3589V300.98H35.4568V295.688Z" fill="#5FA1FF"/>
<path d="M35.5547 295.688H35.4568V300.98H35.5547V295.688Z" fill="#5EA0FF"/>
<path d="M35.6526 295.688H35.5547V300.98H35.6526V295.688Z" fill="#5D9FFF"/>
<path d="M35.7505 295.688H35.6526V300.98H35.7505V295.688Z" fill="#5C9EFF"/>
<path d="M35.8486 295.688H35.7506V300.98H35.8486V295.688Z" fill="#5B9EFF"/>
<path d="M35.9465 295.688H35.8485V300.98H35.9465V295.688Z" fill="#5A9DFF"/>
<path d="M35.9465 295.688H35.8485V300.98H35.9465V295.688Z" fill="#599CFF"/>
<path d="M36.0444 295.688H35.9464V300.98H36.0444V295.688Z" fill="#589BFF"/>
<path d="M36.1424 295.688H36.0444V300.98H36.1424V295.688Z" fill="#579BFF"/>
<path d="M36.2403 295.688H36.1423V300.98H36.2403V295.688Z" fill="#569AFF"/>
<path d="M36.3383 295.688H36.2404V300.98H36.3383V295.688Z" fill="#5599FF"/>
<path d="M32.9102 302.156C32.9102 302.156 34.0855 302.156 34.6732 302.352C34.7712 302.45 34.9671 302.45 34.9671 302.646C34.9671 302.842 34.7712 303.038 34.2814 303.038C33.7917 303.038 33.1061 303.332 33.1061 303.332C33.1061 303.332 32.5184 303.332 32.9102 302.156Z" fill="#EEA886"/>
<path d="M21.4504 343.611C21.3524 344.101 21.2545 344.591 21.1566 344.983L18.2181 337.142C18.6099 337.926 21.4504 343.611 21.4504 343.611Z" fill="#293B57"/>
<path d="M152.798 234.437C152.798 234.437 164.062 201.509 142.611 191.317C121.161 181.125 103.041 195.825 99.6124 203.861C96.1842 211.799 97.0657 226.401 100.004 236.495C102.943 246.589 102.551 262.074 96.1842 267.17C89.8176 272.364 81.8839 280.89 82.2757 298.334C82.4716 309.114 124.785 270.698 124.785 270.698L152.798 234.437Z" fill="#252E3B"/>
<path d="M122.728 273.54C122.728 273.54 105.097 277.46 98.1431 281.576C91.1889 285.692 75.6152 304.41 75.6152 312.544C75.6152 320.58 143.493 328.126 143.493 328.126L156.324 375.069C156.324 375.069 190.605 366.739 194.719 359.781C198.833 352.823 181.692 303.038 178.754 293.042C175.815 282.752 163.474 275.598 149.174 273.638C134.873 271.58 122.728 273.54 122.728 273.54Z" fill="#79109E"/>
<path d="M147.998 273.344C147.998 273.344 147.607 294.708 130.662 295.394C113.717 295.982 117.243 274.912 117.243 274.912C117.243 274.912 129.584 269.914 147.998 273.344Z" fill="#EEA886"/>
<path d="M155.148 208.859C155.148 208.859 161.123 243.257 144.08 268.15C126.352 293.826 155.148 208.859 155.148 208.859Z" fill="#252E3B"/>
<path d="M144.276 258.252C144.276 258.252 143.101 268.444 145.06 274.814C147.019 281.184 119.104 281.38 119.104 276.088C119.104 270.11 121.944 265.21 119.3 255.018C116.655 244.825 144.276 258.252 144.276 258.252Z" fill="#EEA886"/>
<path d="M122.63 259.526C122.63 259.526 131.445 268.738 142.709 260.506C142.709 260.506 141.73 266.386 133.698 267.17C125.568 267.954 122.63 259.526 122.63 259.526Z" fill="#A77860"/>
<path d="M133.698 196.903C133.698 196.903 155.932 203.469 152.798 234.437C149.663 265.308 135.069 263.74 133.698 264.034C132.327 264.23 115.088 265.406 109.603 227.871C104.118 190.239 133.698 196.903 133.698 196.903Z" fill="#EEA886"/>
<path d="M127.919 210.623C127.919 210.623 140.065 229.929 152.798 234.339C152.798 234.339 159.752 201.999 131.053 195.237C102.355 188.475 106.86 227.871 109.015 238.357C108.917 238.455 114.892 222.971 127.919 210.623Z" fill="#252E3B"/>
<path d="M111.758 207.781C111.758 207.781 118.124 195.433 128.899 194.845C139.673 194.257 146.039 203.665 146.039 203.665C146.039 203.665 141.828 193.179 128.899 193.179C115.872 193.179 111.758 207.781 111.758 207.781Z" fill="#88C0FF"/>
<path d="M155.54 304.802L163.082 375.069H63.6655L56.1235 304.802H155.54Z" fill="#A055FF"/>
<path d="M160.634 372.619H60.4334L52.7935 301.47H153.092L160.634 372.619ZM61.2169 371.835H159.654L152.21 302.45H53.675L61.2169 371.835Z" fill="#A055FF"/>
<path d="M115.773 338.808C116.655 343.219 114.598 347.335 111.268 348.021C107.84 348.707 104.412 345.767 103.53 341.357C102.649 336.946 104.705 332.83 108.036 332.144C111.366 331.458 114.892 334.398 115.773 338.808Z" fill="#7840BF"/>
<path d="M153.679 375.074H172.191V368.018H153.679V375.074Z" fill="#5FA0FF"/>
<path d="M363.325 58.9053C363.325 58.9053 361.14 56.9789 357.179 54.1979L357.945 53.1079C361.908 55.9869 364.191 57.9117 364.191 57.9117L363.325 58.9053ZM350.743 49.789C348.566 48.3526 346.39 47.0141 344.116 45.6772L344.785 44.5887C347.059 45.9256 349.332 47.2626 351.51 48.699L350.743 49.789ZM337.299 41.9603C335.027 40.7213 332.658 39.5819 330.291 38.5404L330.86 37.3555C333.228 38.3969 335.598 39.6344 337.869 40.7753L337.299 41.9603ZM323.19 35.416C320.726 34.4741 318.36 33.5306 315.898 32.6867L316.27 31.4067C318.732 32.2507 321.196 33.1926 323.659 34.1346L323.19 35.416ZM224.348 35.3794L224.328 34.1056C226.873 33.9681 229.417 33.7327 231.957 33.3013L232.172 34.5721C229.534 35.005 226.895 35.34 224.348 35.3794ZM216.507 35.1089C213.956 34.8544 211.403 34.4039 208.746 33.6609L209.02 32.3825C211.577 33.029 214.131 33.4795 216.584 33.7355L216.507 35.1089ZM239.882 32.6884L239.471 31.4206C240.347 31.113 241.128 30.9049 242.005 30.5972C243.661 29.9835 245.318 29.4678 246.877 28.9535L247.289 30.2213C245.631 30.7371 244.072 31.2513 242.415 31.767C241.538 32.0747 240.661 32.3823 239.882 32.6884ZM308.419 30.4502C305.958 29.7043 303.403 29.1558 300.847 28.6073L301.121 27.3289C303.677 27.8774 306.234 28.5238 308.693 29.1718L308.419 30.4502ZM201.265 31.3265C198.999 30.4795 196.632 29.4381 194.067 28.3017L194.637 27.1167C197.201 28.2531 199.47 29.2961 201.737 30.1431L201.265 31.3265ZM254.703 28.2442L254.389 26.9749C256.928 26.4455 259.565 25.9146 262.107 25.5811L262.322 26.852C259.782 27.2834 257.242 27.7148 254.703 28.2442ZM293.283 27.2543C290.731 26.9018 288.081 26.5508 285.629 26.3928L285.708 25.1174C288.258 25.3719 290.907 25.6249 293.46 25.9774L293.283 27.2543ZM64.878 29.5194L64.1757 28.4522C66.4054 26.9474 68.6367 25.5407 70.7715 24.2334L71.4738 25.3007C69.241 26.6094 67.0098 28.0162 64.878 29.5194ZM270.05 26.1441L269.932 24.8718C272.477 24.7344 275.12 24.5954 277.766 24.6524L277.785 25.9263C275.239 25.9657 272.595 26.0067 270.05 26.1441ZM186.96 24.7853C184.689 23.6444 182.515 22.4039 180.045 21.07L180.712 19.8835C183.182 21.2174 185.355 22.3599 187.529 23.6003L186.96 24.7853ZM78.0727 21.2779L77.3689 20.1127C79.6996 18.8024 82.0303 17.4921 84.2661 16.3793L84.872 17.5461C82.6377 18.7568 80.3054 19.9691 78.0727 21.2779ZM173.23 17.4511C170.662 16.1187 168.391 14.9777 166.318 13.9317L166.887 12.7467C168.961 13.7927 171.329 14.9322 173.897 16.2646L173.23 17.4511ZM91.8732 14.2032L91.3653 13.0349C93.797 11.919 96.2302 10.9012 98.567 9.98289L99.0749 11.1512C96.6401 12.071 94.2069 13.0889 91.8732 14.2032ZM159.216 10.8073C156.751 9.76738 154.289 8.92342 151.927 8.17592L152.299 6.89599C154.759 7.64197 157.123 8.48745 159.686 9.52588L159.216 10.8073ZM106.286 8.68713L105.874 7.41934C108.408 6.59597 110.946 5.96857 113.484 5.43917L113.798 6.70848C111.357 7.23637 108.82 7.86376 106.286 8.68713ZM144.452 6.23348C141.896 5.685 139.344 5.3325 136.793 5.07799L136.871 3.80261C139.422 4.05712 142.072 4.40811 144.628 4.95659L144.452 6.23348ZM121.419 5.41424L121.301 4.14189C123.941 3.80695 126.583 3.66799 129.13 3.62853L129.149 4.90239C126.602 4.84386 124.058 5.0793 121.419 5.41424Z" fill="#C2BEBC"/>
<path d="M36.4277 48.8673L65.2243 32.6971L55.3316 32.0111L36.4277 48.8673Z" fill="#D6D6D6"/>
<path d="M36.4277 48.8673L45.243 34.5592L52.687 34.3632L36.4277 48.8673Z" fill="#E8E8E8"/>
<path d="M58.5638 36.4211L59.1515 40.0472L36.4277 48.8673L58.5638 36.4211Z" fill="#C2C2C2"/>
</svg>
