<svg width="185" height="147" viewBox="0 0 185 147" fill="none" xmlns="http://www.w3.org/2000/svg">
<path d="M111.22 44.1528H74.7795C71.7278 44.1528 69.2146 41.6355 69.2146 38.5789V11.069C69.2146 8.01236 71.7278 5.49512 74.7795 5.49512H111.22C114.272 5.49512 116.785 8.01236 116.785 11.069V38.5789C116.785 41.6355 114.272 44.1528 111.22 44.1528Z" stroke="#DFAFF6" stroke-width="10" stroke-miterlimit="10"/>
<path d="M171.716 147H14.2839C10.8732 147 8.00098 144.123 8.00098 140.707V22.2168H177.999V140.527C177.999 144.123 175.127 147 171.716 147Z" fill="#CA66FF"/>
<path d="M177.999 93.0592H8.00107L1.00009 29.0493C0.641066 25.4533 3.51326 22.2168 7.10351 22.2168H178.717C182.307 22.2168 185.18 25.4533 184.821 29.0493L177.999 93.0592Z" fill="#B149E8"/>
<path d="M177.999 90.0025H8.00107L1.00009 29.0493C0.641066 25.4533 3.51326 22.2168 7.10351 22.2168H178.717C182.307 22.2168 185.18 25.4533 184.821 29.0493L177.999 90.0025Z" fill="#CA66FF"/>
<path d="M108.169 99.5317H77.8312C75.4975 99.5317 73.7024 97.7336 73.7024 95.3962V84.7878C73.7024 82.4504 75.4975 80.6523 77.8312 80.6523H108.169C110.502 80.6523 112.298 82.4504 112.298 84.7878V95.3962C112.298 97.5538 110.502 99.5317 108.169 99.5317Z" fill="#DFAFF6"/>
</svg>
