<svg width="214" height="130" viewBox="0 0 214 130" fill="none" xmlns="http://www.w3.org/2000/svg">
<rect width="214" height="130" fill="#E5E5E5"/>
<g clip-path="url(#clip0)">
<rect width="1920" height="7255" transform="translate(-426 -127)" fill="#1C1D2E"/>
<path d="M-2.95999 0.966583L0.640015 -1.20516V-4.54633L-8.47998 0.966583H-2.95999Z" fill="black" fill-opacity="0.4"/>
<path d="M210.4 0.966583L214 -1.20516V-4.54633L204.88 0.966583H210.4Z" fill="black" fill-opacity="0.4"/>
<path d="M159.28 -59.0908H156.48V1.05011H159.28V-59.0908Z" fill="black" fill-opacity="0.4"/>
<path d="M168.8 -64.6873H166V1.05011H168.8V-64.6873Z" fill="black" fill-opacity="0.4"/>
<path d="M178.4 -70.6179H175.6V1.05011H178.4V-70.6179Z" fill="black" fill-opacity="0.4"/>
<path d="M187.92 -64.6873H185.12V1.05011H187.92V-64.6873Z" fill="black" fill-opacity="0.4"/>
<path d="M197.52 -59.0908H194.72V1.05011H197.52V-59.0908Z" fill="black" fill-opacity="0.4"/>
<path d="M132.8 -1.8734L137.52 0.966583H143.12L134.16 -4.37927L132.8 -1.8734Z" fill="black" fill-opacity="0.4"/>
<path d="M62.1599 -0.703995H59.3599V1.05011H62.1599V-0.703995Z" fill="black" fill-opacity="0.4"/>
<path d="M71.6799 -6.63456H68.8799V1.05011H71.6799V-6.63456Z" fill="black" fill-opacity="0.4"/>
<path d="M81.28 -0.703995H78.48V1.05011H81.28V-0.703995Z" fill="black" fill-opacity="0.4"/>
<path d="M0.639893 -23.591L41.5199 0.966583H47.0399L0.639893 -26.9321V-23.591Z" fill="black" fill-opacity="0.4"/>
<path d="M0.639893 -12.0639L22.3999 0.966583H27.9199L0.639893 -15.4886V-12.0639Z" fill="black" fill-opacity="0.4"/>
<path d="M10.6399 0.966583H13.4399L12.7199 -0.286354L10.6399 0.966583Z" fill="black" fill-opacity="0.4"/>
<path d="M138.56 -29.7721L88.4797 0.381882L88.7998 0.966583H93.1198L139.92 -27.2663L138.56 -29.7721Z" fill="black" fill-opacity="0.4"/>
<path d="M138.56 -18.2451L106.64 0.966583H112.24L139.92 -15.7392L138.56 -18.2451Z" fill="black" fill-opacity="0.4"/>
<path d="M-1.11985 76.8946L-2.55981 79.4004L0.640137 81.3216V77.9804L-1.11985 76.8946Z" fill="black" fill-opacity="0.4"/>
<path d="M-2.55981 90.9274L0.640137 92.8486V89.5074L-1.19983 88.4215L-2.55981 90.9274Z" fill="black" fill-opacity="0.4"/>
<path d="M-2.55981 102.454L0.640137 104.376V101.034L-1.19983 99.8651L-2.55981 102.454Z" fill="black" fill-opacity="0.4"/>
<path d="M-2.55981 113.898L0.640137 115.903V112.561L-1.19983 111.392L-2.55981 113.898Z" fill="black" fill-opacity="0.4"/>
<path d="M-2.95999 129.017L0.640015 126.845V123.504L-8.47998 129.017H-2.95999Z" fill="black" fill-opacity="0.4"/>
<path d="M-35.6798 32.29L0.640198 10.3218V6.98067L-37.0398 29.7006L-35.6798 32.29Z" fill="black" fill-opacity="0.4"/>
<path d="M-35.6798 43.7335L0.640198 21.8489V18.5077L-37.0398 41.2276L-35.6798 43.7335Z" fill="black" fill-opacity="0.4"/>
<path d="M-35.6798 55.2605L0.640198 33.3759V30.0347L-37.0398 52.7546L-35.6798 55.2605Z" fill="black" fill-opacity="0.4"/>
<path d="M-26.2399 61.1075L0.640045 44.9029V41.5617L-27.6799 58.6017L-26.2399 61.1075Z" fill="black" fill-opacity="0.4"/>
<path d="M-16.7999 66.9546L0.640076 56.4299V53.0887L-18.1599 64.4487L-16.7999 66.9546Z" fill="black" fill-opacity="0.4"/>
<path d="M-7.11983 72.6346L0.640167 67.9569V64.5322L-8.55981 70.1287L-7.11983 72.6346Z" fill="black" fill-opacity="0.4"/>
<path d="M212.16 76.8946L210.8 79.4004L214 81.3216V77.9804L212.16 76.8946Z" fill="black" fill-opacity="0.4"/>
<path d="M210.72 90.9274L214 92.8486V89.5074L212.16 88.4215L210.72 90.9274Z" fill="black" fill-opacity="0.4"/>
<path d="M210.72 102.454L214 104.376V101.034L212.16 99.8651L210.72 102.454Z" fill="black" fill-opacity="0.4"/>
<path d="M210.72 113.898L214 115.903V112.561L212.16 111.392L210.72 113.898Z" fill="black" fill-opacity="0.4"/>
<path d="M210.4 129.017L214 126.845V123.504L204.88 129.017H210.4Z" fill="black" fill-opacity="0.4"/>
<path d="M149.76 74.7228H146.96V123.337H149.76V74.7228Z" fill="black" fill-opacity="0.4"/>
<path d="M159.28 68.8758H156.48V129.017H159.28V68.8758Z" fill="black" fill-opacity="0.4"/>
<path d="M168.8 63.2793H166V129.017H168.8V63.2793Z" fill="black" fill-opacity="0.4"/>
<path d="M178.4 57.3487H175.6V129.017H178.4V57.3487Z" fill="black" fill-opacity="0.4"/>
<path d="M187.92 63.2793H185.12V129.017H187.92V63.2793Z" fill="black" fill-opacity="0.4"/>
<path d="M197.52 68.8758H194.72V129.017H197.52V68.8758Z" fill="black" fill-opacity="0.4"/>
<path d="M207.04 74.7228H204.24V123.337H207.04V74.7228Z" fill="black" fill-opacity="0.4"/>
<path d="M132.8 126.093L137.52 129.017H143.12L134.16 123.587L132.8 126.093Z" fill="black" fill-opacity="0.4"/>
<path d="M62.1599 127.263H59.3599V129.017H62.1599V127.263Z" fill="black" fill-opacity="0.4"/>
<path d="M71.6799 121.332H68.8799V129.017H71.6799V121.332Z" fill="black" fill-opacity="0.4"/>
<path d="M81.28 127.263H78.48V129.017H81.28V127.263Z" fill="black" fill-opacity="0.4"/>
<path d="M27.4962 59.624L26.0962 62.1558L66.3478 86.421L67.7478 83.8892L27.4962 59.624Z" fill="black" fill-opacity="0.4"/>
<path d="M17.8316 65.2852L16.4316 67.817L66.3133 97.8875L67.7133 95.3557L17.8316 65.2852Z" fill="black" fill-opacity="0.4"/>
<path d="M8.41245 71.0993L7.01245 73.6311L66.3854 109.423L67.7854 106.892L8.41245 71.0993Z" fill="black" fill-opacity="0.4"/>
<path d="M67.7599 118.408L0.639893 77.9804V81.3216L66.3199 120.914L67.7599 118.408Z" fill="black" fill-opacity="0.4"/>
<path d="M58.3199 124.256L0.639893 89.5074V92.8486L56.9599 126.761L58.3199 124.256Z" fill="black" fill-opacity="0.4"/>
<path d="M0.639893 104.376L41.5199 129.017H47.0399L0.639893 101.034V104.376Z" fill="black" fill-opacity="0.4"/>
<path d="M0.639893 115.903L22.3999 129.017H27.9199L0.639893 112.561V115.903Z" fill="black" fill-opacity="0.4"/>
<path d="M3.11993 122L0.639893 123.504V126.845L4.47989 124.506L3.11993 122Z" fill="black" fill-opacity="0.4"/>
<path d="M10.6399 129.017H13.4399L12.7199 127.68L10.6399 129.017Z" fill="black" fill-opacity="0.4"/>
<path d="M177.68 20.763L210.4 0.966583H204.88L176.24 18.1736L177.68 20.763Z" fill="black" fill-opacity="0.4"/>
<path d="M177.68 32.29L214 10.3218V6.98067L176.24 29.7006L177.68 32.29Z" fill="black" fill-opacity="0.4"/>
<path d="M177.68 43.7335L214 21.8489V18.5077L176.24 41.2276L177.68 43.7335Z" fill="black" fill-opacity="0.4"/>
<path d="M177.68 55.2605L214 33.3759V30.0347L176.24 52.7546L177.68 55.2605Z" fill="black" fill-opacity="0.4"/>
<path d="M187.04 61.1075L214 44.9029V41.5617L185.68 58.6017L187.04 61.1075Z" fill="black" fill-opacity="0.4"/>
<path d="M196.56 66.9546L214 56.4299V53.0887L195.12 64.4487L196.56 66.9546Z" fill="black" fill-opacity="0.4"/>
<path d="M206.16 72.6346L214 67.9569V64.5322L204.8 70.1287L206.16 72.6346Z" fill="black" fill-opacity="0.4"/>
<path d="M159.28 0.966583H156.48V1.13364H159.28V0.966583Z" fill="black" fill-opacity="0.4"/>
<path d="M168.8 0.966583H166V6.7301H168.8V0.966583Z" fill="black" fill-opacity="0.4"/>
<path d="M178.4 0.966583H175.6V12.4101H178.4V0.966583Z" fill="black" fill-opacity="0.4"/>
<path d="M187.92 0.966583H185.12V6.7301H187.92V0.966583Z" fill="black" fill-opacity="0.4"/>
<path d="M197.52 0.966583H194.72V1.13364H197.52V0.966583Z" fill="black" fill-opacity="0.4"/>
<path d="M174.4 19.8442L143.12 0.966583H137.52L173.04 22.4336L174.4 19.8442Z" fill="black" fill-opacity="0.4"/>
<path d="M124.498 1.32126L123.098 3.85302L172.98 33.9235L174.38 31.3917L124.498 1.32126Z" fill="black" fill-opacity="0.4"/>
<path d="M115.009 7.09378L113.609 9.62555L172.982 45.4178L174.382 42.886L115.009 7.09378Z" fill="black" fill-opacity="0.4"/>
<path d="M105.483 12.9153L104.083 15.4471L172.947 56.961L174.347 54.4292L105.483 12.9153Z" fill="black" fill-opacity="0.4"/>
<path d="M105.487 24.4377L104.087 26.9694L163.599 62.8452L164.999 60.3134L105.487 24.4377Z" fill="black" fill-opacity="0.4"/>
<path d="M105.451 35.9324L104.051 38.4642L154.002 68.5764L155.402 66.0447L105.451 35.9324Z" fill="black" fill-opacity="0.4"/>
<path d="M105.483 47.4524L104.083 49.9842L144.404 74.2912L145.804 71.7594L105.483 47.4524Z" fill="black" fill-opacity="0.4"/>
<path d="M109.693 57.9997L69.5798 82.1814L70.9798 84.7132L111.093 60.5315L109.693 57.9997Z" fill="black" fill-opacity="0.4"/>
<path d="M119.379 63.7603L69.6355 93.7473L71.0355 96.279L120.779 66.292L119.379 63.7603Z" fill="black" fill-opacity="0.4"/>
<path d="M128.948 69.4762L69.5752 105.268L70.9752 107.8L130.348 72.0079L128.948 69.4762Z" fill="black" fill-opacity="0.4"/>
<path d="M138.433 75.2263L69.5691 116.74L70.9691 119.272L139.833 77.7581L138.433 75.2263Z" fill="black" fill-opacity="0.4"/>
<path d="M138.519 86.7153L79.0073 122.591L80.4073 125.123L139.919 89.2471L138.519 86.7153Z" fill="black" fill-opacity="0.4"/>
<path d="M138.56 98.278L88.4797 128.432L88.7998 129.017H93.1198L139.92 100.784L138.56 98.278Z" fill="black" fill-opacity="0.4"/>
<path d="M138.56 109.721L106.64 129.017H112.24L139.92 112.311L138.56 109.721Z" fill="black" fill-opacity="0.4"/>
<path d="M43.04 10.7395H40.24V59.3534H43.04V10.7395Z" fill="black" fill-opacity="0.4"/>
<path d="M52.6398 4.89246H49.8398V65.1169H52.6398V4.89246Z" fill="black" fill-opacity="0.4"/>
<path d="M62.1599 0.966583H59.3599V70.7134H62.1599V0.966583Z" fill="black" fill-opacity="0.4"/>
<path d="M71.6799 0.966583H68.8799V76.4769H71.6799V0.966583Z" fill="black" fill-opacity="0.4"/>
<path d="M81.28 0.966583H78.48V70.7134H81.28V0.966583Z" fill="black" fill-opacity="0.4"/>
<path d="M90.8 4.89246H88V65.1169H90.8V4.89246Z" fill="black" fill-opacity="0.4"/>
<path d="M100.4 10.7395H97.5999V59.3534H100.4V10.7395Z" fill="black" fill-opacity="0.4"/>
<path d="M48.72 2.05247L47.04 0.966583H41.52L47.36 4.55835L48.72 2.05247Z" fill="black" fill-opacity="0.4"/>
<path d="M39.1199 7.73244L27.9199 0.966583H22.3999L37.7599 10.2383L39.1199 7.73244Z" fill="black" fill-opacity="0.4"/>
<path d="M13.4399 0.966583H10.6399L0.639893 6.98068V10.3219L14.0799 2.21952L13.4399 0.966583Z" fill="black" fill-opacity="0.4"/>
<path d="M22.3199 5.47716L0.639893 18.5077V21.8488L23.6799 7.98303L22.3199 5.47716Z" fill="black" fill-opacity="0.4"/>
<path d="M31.8399 11.2407L0.639893 30.0347V33.3759L33.1999 13.7465L31.8399 11.2407Z" fill="black" fill-opacity="0.4"/>
<path d="M31.9199 22.6841L0.639893 41.5617V44.9029L33.2799 25.2736L31.9199 22.6841Z" fill="black" fill-opacity="0.4"/>
<path d="M31.9199 34.2112L0.639893 53.0888V56.4299L33.2799 36.717L31.9199 34.2112Z" fill="black" fill-opacity="0.4"/>
<path d="M31.9199 45.7382L0.639893 64.5323V67.9569L33.2799 48.2441L31.9199 45.7382Z" fill="black" fill-opacity="0.4"/>
<path d="M93.1198 0.966583H88.7998L89.8398 2.9713L93.1198 0.966583Z" fill="black" fill-opacity="0.4"/>
<path d="M99.5199 8.65126L112.24 0.966583H106.64L98.1599 6.14539L99.5199 8.65126Z" fill="black" fill-opacity="0.4"/>
<path d="M177.68 148.73L210.4 129.017H204.88L176.24 146.224L177.68 148.73Z" fill="black" fill-opacity="0.4"/>
<path d="M159.28 129.017H156.48V129.184H159.28V129.017Z" fill="black" fill-opacity="0.4"/>
<path d="M168.8 129.017H166V134.78H168.8V129.017Z" fill="black" fill-opacity="0.4"/>
<path d="M178.4 129.017H175.6V140.46H178.4V129.017Z" fill="black" fill-opacity="0.4"/>
<path d="M187.92 129.017H185.12V134.78H187.92V129.017Z" fill="black" fill-opacity="0.4"/>
<path d="M197.52 129.017H194.72V129.184H197.52V129.017Z" fill="black" fill-opacity="0.4"/>
<path d="M174.4 147.894L143.12 129.017H137.52L173.04 150.4L174.4 147.894Z" fill="black" fill-opacity="0.4"/>
<path d="M124.541 129.344L123.141 131.876L173.022 161.947L174.422 159.415L124.541 129.344Z" fill="black" fill-opacity="0.4"/>
<path d="M62.1599 129.017H59.3599V198.764H62.1599V129.017Z" fill="black" fill-opacity="0.4"/>
<path d="M71.6799 129.017H68.8799V204.527H71.6799V129.017Z" fill="black" fill-opacity="0.4"/>
<path d="M81.28 129.017H78.48V198.764H81.28V129.017Z" fill="black" fill-opacity="0.4"/>
<path d="M48.72 130.019L47.04 129.017H41.52L47.36 132.525L48.72 130.019Z" fill="black" fill-opacity="0.4"/>
<path d="M39.1199 135.699L27.9199 129.017H22.3999L37.7599 138.205L39.1199 135.699Z" fill="black" fill-opacity="0.4"/>
<path d="M13.4399 129.017H10.6399L0.639893 134.947V138.372L14.0799 130.27L13.4399 129.017Z" fill="black" fill-opacity="0.4"/>
<path d="M93.1198 129.017H88.7998L89.8398 130.938L93.1198 129.017Z" fill="black" fill-opacity="0.4"/>
<path d="M99.5199 136.618L112.24 129.017H106.64L98.1599 134.112L99.5199 136.618Z" fill="black" fill-opacity="0.4"/>
<g filter="url(#filter0_f)">
<path d="M550.543 -193.486C-30.4079 -116.336 -25.1692 377.52 50.0692 614.805C-43.0035 614.805 -818.237 1969.95 -457.093 2299.39C-95.949 2628.84 61.2157 3461.1 21.6459 3650.63C-17.9238 3840.16 -195.425 3951.45 -67.5255 4484.01C29.2694 4887.05 -905.709 5325.64 -467.373 5352.5C37.2692 5383.42 2017.13 5352.5 1816.22 4484.01C1710.15 4025.48 1290.67 3582.63 1373.15 3325.64C1455.63 3068.66 1873.62 3053.61 1805.63 2806.67C1737.64 2559.72 1419.41 2595.95 1294.57 2080.88C1169.73 1565.8 1784.45 1501.69 1823.46 1376.83C1862.48 1251.96 1863.03 772.003 1823.46 507.776C1783.89 243.548 1276.73 -289.924 550.543 -193.486Z" fill="#1C1C2D"/>
</g>
<g filter="url(#filter1_f)">
<path d="M1389.4 632.418C1441 202.018 805.896 -47.9156 481.896 -119.082C249.229 -132.916 -7.60419 -165.182 778.396 -183.582C1760.9 -206.582 1652.9 53.4177 1675.4 366.918C1697.9 680.418 1324.9 1170.42 1389.4 632.418Z" fill="#F400BF" fill-opacity="0.1"/>
</g>
<path d="M-55.392 157H-62.304V123.4H-55.392V136.648L-43.008 123.4H-34.56L-48.816 138.808L-32.112 157H-40.944L-55.392 141.496V157ZM-25.0687 145C-25.0687 146.92 -24.4447 148.52 -23.1967 149.8C-21.9487 151.08 -20.3647 151.72 -18.4447 151.72C-16.5247 151.72 -14.9407 151.08 -13.6927 149.8C-12.4447 148.488 -11.8207 146.888 -11.8207 145C-11.8207 143.08 -12.4447 141.496 -13.6927 140.248C-14.9407 138.968 -16.5247 138.328 -18.4447 138.328C-20.3647 138.328 -21.9487 138.968 -23.1967 140.248C-24.4447 141.496 -25.0687 143.08 -25.0687 145ZM-31.7407 145C-31.7407 141.448 -30.4927 138.472 -27.9967 136.072C-25.5327 133.64 -22.3487 132.424 -18.4447 132.424C-14.5407 132.424 -11.3567 133.64 -8.89275 136.072C-6.39675 138.504 -5.14875 141.48 -5.14875 145C-5.14875 148.584 -6.39675 151.592 -8.89275 154.024C-11.3887 156.424 -14.5727 157.624 -18.4447 157.624C-22.3167 157.624 -25.5007 156.424 -27.9967 154.024C-30.4927 151.592 -31.7407 148.584 -31.7407 145ZM6.61125 157H-0.15675V133.048H6.61125V141.928H16.4513V133.048H23.2193V157H16.4513V147.592H6.61125V157ZM41.2673 157.624C37.7153 157.624 34.6593 156.472 32.0993 154.168C29.5393 151.8 28.2593 148.728 28.2593 144.952C28.2593 141.176 29.5393 138.152 32.0993 135.88C34.6913 133.576 37.7793 132.424 41.3633 132.424C43.9873 132.424 46.3553 132.952 48.4673 134.008V139.768C46.3873 138.808 44.3553 138.328 42.3713 138.328C40.2593 138.328 38.4833 138.952 37.0433 140.2C35.6353 141.416 34.9313 143.016 34.9313 145C34.9313 146.984 35.6513 148.6 37.0913 149.848C38.5313 151.096 40.2913 151.72 42.3713 151.72C44.8353 151.72 46.9953 151.176 48.8513 150.088V155.848C46.6113 157.032 44.0833 157.624 41.2673 157.624ZM57.7133 166.888C55.7293 166.888 54.1293 166.568 52.9133 165.928V160.024C54.0333 160.664 55.2493 160.984 56.5613 160.984C57.7773 160.984 58.7853 160.6 59.5853 159.832C60.4173 159.096 61.1853 157.88 61.8893 156.184L51.5693 133.048H58.8653L65.2013 148.792L71.2013 133.048H78.3533L67.2653 159.496C65.1533 164.424 61.9693 166.888 57.7133 166.888ZM97.7884 138.712H90.3964L90.3004 142.072C90.1404 145.624 89.7724 148.424 89.1964 150.472C88.5884 152.616 87.6284 154.264 86.3164 155.416C85.0364 156.536 83.2604 157.128 80.9884 157.192C79.8044 157.192 78.9564 157.048 78.4444 156.76V151.24C78.7964 151.368 79.2604 151.432 79.8364 151.432C81.4044 151.432 82.4444 150.408 82.9564 148.36C83.4364 146.536 83.6924 143.784 83.7244 140.104L83.8684 133.048H104.556V157H97.7884V138.712ZM124.035 157H111.171V133.048H117.939V140.056H123.699C126.707 140.056 129.107 140.824 130.899 142.36C132.691 143.896 133.587 145.944 133.587 148.504C133.587 150.936 132.755 152.968 131.091 154.6C129.395 156.2 127.043 157 124.035 157ZM117.939 145.096V151.768H122.643C123.955 151.768 124.979 151.48 125.715 150.904C126.451 150.328 126.819 149.512 126.819 148.456C126.819 147.4 126.451 146.584 125.715 146.008C124.979 145.4 123.955 145.096 122.643 145.096H117.939ZM148.289 157H141.521V138.712H134.033V133.048H155.873V138.712H148.289V157ZM182.675 151.768C183.251 151.768 183.715 151.672 184.067 151.48V156.424C183.203 157.096 181.987 157.432 180.419 157.432C177.699 157.432 175.891 156.408 174.995 154.36C172.883 156.536 170.131 157.624 166.739 157.624C164.115 157.624 161.987 156.888 160.355 155.416C158.723 153.944 157.907 152.008 157.907 149.608C157.907 147.048 158.835 145.096 160.691 143.752C162.547 142.408 164.771 141.736 167.363 141.736C170.083 141.736 172.387 142.232 174.275 143.224V142.504C174.275 139.496 172.163 137.992 167.939 137.992C165.347 137.992 162.931 138.664 160.691 140.008V134.344C163.123 133.064 166.083 132.424 169.571 132.424C173.027 132.424 175.779 133.256 177.827 134.92C179.939 136.584 180.995 138.888 180.995 141.832V149.944C180.995 151.16 181.555 151.768 182.675 151.768ZM174.275 149.944V147.544C172.867 146.616 171.203 146.152 169.283 146.152C167.843 146.152 166.691 146.424 165.827 146.968C164.995 147.512 164.579 148.28 164.579 149.272C164.579 150.296 164.963 151.08 165.731 151.624C166.499 152.136 167.539 152.392 168.851 152.392C171.219 152.392 173.027 151.576 174.275 149.944ZM215.87 163.096H209.342V157H188.75V133.048H195.518V151.336H205.166V133.048H211.934V151.336H215.87V163.096ZM226.867 157H220.531V133.048H227.203V147.16L238.051 133.048H244.387V157H237.715V142.888L226.867 157ZM257.336 157H251V133.048H257.672V147.16L268.52 133.048H274.856V157H268.184V142.888L257.336 157ZM300.518 157H293.75V133.048H316.838V157H310.07V138.712H300.518V157ZM328.556 145C328.556 146.92 329.18 148.52 330.428 149.8C331.676 151.08 333.26 151.72 335.18 151.72C337.1 151.72 338.684 151.08 339.932 149.8C341.18 148.488 341.804 146.888 341.804 145C341.804 143.08 341.18 141.496 339.932 140.248C338.684 138.968 337.1 138.328 335.18 138.328C333.26 138.328 331.676 138.968 330.428 140.248C329.18 141.496 328.556 143.08 328.556 145ZM321.884 145C321.884 141.448 323.132 138.472 325.628 136.072C328.092 133.64 331.276 132.424 335.18 132.424C339.084 132.424 342.268 133.64 344.732 136.072C347.228 138.504 348.476 141.48 348.476 145C348.476 148.584 347.228 151.592 344.732 154.024C342.236 156.424 339.052 157.624 335.18 157.624C331.308 157.624 328.124 156.424 325.628 154.024C323.132 151.592 321.884 148.584 321.884 145ZM370.838 145C370.838 146.92 371.462 148.52 372.71 149.8C373.958 151.08 375.542 151.72 377.462 151.72C379.382 151.72 380.966 151.08 382.214 149.8C383.462 148.488 384.086 146.888 384.086 145C384.086 143.08 383.462 141.496 382.214 140.248C380.966 138.968 379.382 138.328 377.462 138.328C375.542 138.328 373.958 138.968 372.71 140.248C371.462 141.496 370.838 143.08 370.838 145ZM364.166 145C364.166 141.448 365.414 138.472 367.91 136.072C370.374 133.64 373.558 132.424 377.462 132.424C381.366 132.424 384.55 133.64 387.014 136.072C389.51 138.504 390.758 141.48 390.758 145C390.758 148.584 389.51 151.592 387.014 154.024C384.518 156.424 381.334 157.624 377.462 157.624C373.59 157.624 370.406 156.424 367.91 154.024C365.414 151.592 364.166 148.584 364.166 145ZM410.39 132.424C413.654 132.424 416.342 133.64 418.454 136.072C420.598 138.44 421.67 141.432 421.67 145.048C421.67 148.6 420.598 151.592 418.454 154.024C416.342 156.424 413.654 157.624 410.39 157.624C407.03 157.624 404.406 156.44 402.518 154.072V166.6H395.75V133.048H402.518V135.976C404.31 133.608 406.934 132.424 410.39 132.424ZM408.47 138.328C407.19 138.328 406.022 138.664 404.966 139.336C403.91 140.008 403.094 140.872 402.518 141.928V148.168C403.094 149.224 403.91 150.088 404.966 150.76C406.022 151.4 407.19 151.72 408.47 151.72C410.39 151.72 411.942 151.08 413.126 149.8C414.342 148.488 414.95 146.904 414.95 145.048C414.95 143.16 414.342 141.56 413.126 140.248C411.942 138.968 410.39 138.328 408.47 138.328ZM433.408 157H426.64V133.048H445.648V138.712H433.408V157ZM471.471 151.768C472.047 151.768 472.511 151.672 472.863 151.48V156.424C471.999 157.096 470.783 157.432 469.215 157.432C466.495 157.432 464.687 156.408 463.791 154.36C461.679 156.536 458.927 157.624 455.535 157.624C452.911 157.624 450.783 156.888 449.151 155.416C447.519 153.944 446.703 152.008 446.703 149.608C446.703 147.048 447.631 145.096 449.487 143.752C451.343 142.408 453.567 141.736 456.159 141.736C458.879 141.736 461.183 142.232 463.071 143.224V142.504C463.071 139.496 460.959 137.992 456.735 137.992C454.143 137.992 451.727 138.664 449.487 140.008V134.344C451.919 133.064 454.879 132.424 458.367 132.424C461.823 132.424 464.575 133.256 466.623 134.92C468.735 136.584 469.791 138.888 469.791 141.832V149.944C469.791 151.16 470.351 151.768 471.471 151.768ZM463.071 149.944V147.544C461.663 146.616 459.999 146.152 458.079 146.152C456.639 146.152 455.487 146.424 454.623 146.968C453.791 147.512 453.375 148.28 453.375 149.272C453.375 150.296 453.759 151.08 454.527 151.624C455.295 152.136 456.335 152.392 457.647 152.392C460.015 152.392 461.823 151.576 463.071 149.944ZM484.314 157H477.546V133.048H484.314V141.928H494.154V133.048H500.922V157H494.154V147.592H484.314V157ZM513.882 157H507.546V133.048H514.218V147.16L525.066 133.048H531.402V157H524.73V142.888L513.882 157ZM546.415 157.624C542.703 157.624 539.599 157.016 537.103 155.8V150.328C539.567 151.608 542.351 152.248 545.455 152.248C547.279 152.248 548.687 152.008 549.679 151.528C550.703 151.048 551.215 150.36 551.215 149.464C551.215 147.896 549.807 147.112 546.991 147.112H542.287V142.216H546.991C549.295 142.216 550.447 141.512 550.447 140.104C550.447 138.568 548.815 137.8 545.551 137.8C542.575 137.8 539.983 138.344 537.775 139.432V134.152C540.239 133 543.327 132.424 547.039 132.424C549.951 132.424 552.399 133.048 554.383 134.296C556.367 135.544 557.359 137.112 557.359 139C557.359 141.656 556.207 143.368 553.903 144.136C555.215 144.552 556.271 145.256 557.071 146.248C557.903 147.208 558.319 148.408 558.319 149.848C558.319 152.12 557.215 153.992 555.007 155.464C552.863 156.904 549.999 157.624 546.415 157.624ZM586.362 151.768C586.938 151.768 587.402 151.672 587.754 151.48V156.424C586.89 157.096 585.674 157.432 584.106 157.432C581.386 157.432 579.578 156.408 578.682 154.36C576.57 156.536 573.818 157.624 570.426 157.624C567.802 157.624 565.674 156.888 564.042 155.416C562.41 153.944 561.594 152.008 561.594 149.608C561.594 147.048 562.522 145.096 564.378 143.752C566.234 142.408 568.458 141.736 571.05 141.736C573.77 141.736 576.074 142.232 577.962 143.224V142.504C577.962 139.496 575.85 137.992 571.626 137.992C569.034 137.992 566.618 138.664 564.378 140.008V134.344C566.81 133.064 569.77 132.424 573.258 132.424C576.714 132.424 579.466 133.256 581.514 134.92C583.626 136.584 584.682 138.888 584.682 141.832V149.944C584.682 151.16 585.242 151.768 586.362 151.768ZM577.962 149.944V147.544C576.554 146.616 574.89 146.152 572.97 146.152C571.53 146.152 570.378 146.424 569.514 146.968C568.682 147.512 568.266 148.28 568.266 149.272C568.266 150.296 568.65 151.08 569.418 151.624C570.186 152.136 571.226 152.392 572.538 152.392C574.906 152.392 576.714 151.576 577.962 149.944ZM619.557 163.096H613.029V157H592.437V133.048H599.205V151.336H608.853V133.048H615.621V151.336H619.557V163.096ZM630.554 157H624.218V133.048H630.89V147.16L641.738 133.048H648.074V157H641.402V142.888L630.554 157ZM661.023 157H654.687V133.048H661.359V147.16L672.207 133.048H678.543V157H671.871V142.888L661.023 157ZM-56.352 217H-62.688V193.048H-56.016V207.16L-45.168 193.048H-38.832V217H-45.504V202.888L-56.352 217ZM-5.826 217H-19.938V193.048H-6.402C-3.97 193.048 -2.082 193.624 -0.737999 194.776C0.606001 195.896 1.278 197.368 1.278 199.192C1.278 201.592 0.302001 203.288 -1.65 204.28C1.39 205.336 2.91 207.384 2.91 210.424C2.91 212.472 2.142 214.088 0.606 215.272C-0.929999 216.424 -3.074 217 -5.826 217ZM-13.266 206.872V212.248H-7.506C-5.17 212.248 -4.002 211.352 -4.002 209.56C-4.002 207.768 -5.17 206.872 -7.506 206.872H-13.266ZM-13.266 197.704V202.6H-8.562C-6.418 202.6 -5.346 201.784 -5.346 200.152C-5.346 198.52 -6.418 197.704 -8.562 197.704H-13.266ZM19.8521 217.624C16.1081 217.624 12.9561 216.472 10.3961 214.168C7.83613 211.864 6.55613 208.808 6.55613 205C6.55613 201.448 7.70813 198.472 10.0121 196.072C12.3161 193.64 15.3241 192.424 19.0361 192.424C22.4921 192.424 25.2601 193.656 27.3401 196.12C29.4201 198.584 30.4601 201.576 30.4601 205.096V206.872H13.2761C13.6281 208.472 14.5081 209.704 15.9161 210.568C17.3561 211.432 19.1481 211.864 21.2921 211.864C23.9481 211.864 26.5081 211.16 28.9721 209.752V215.176C26.8281 216.808 23.7881 217.624 19.8521 217.624ZM13.2761 202.552H23.7881C23.7241 201.176 23.2281 200.04 22.3001 199.144C21.4041 198.216 20.2201 197.752 18.7481 197.752C17.2441 197.752 15.9961 198.2 15.0041 199.096C14.0121 199.96 13.4361 201.112 13.2761 202.552ZM39.7838 223.096H33.3038V211.336H36.3758C38.1998 208.488 39.1598 203.944 39.2558 197.704L39.3518 193.048H59.5118V211.336H63.4478V223.096H57.0638V217H39.7838V223.096ZM43.2878 211.336H52.8878V198.712H45.3998C45.3998 203.672 44.6958 207.88 43.2878 211.336ZM79.8053 217.624C76.0613 217.624 72.9093 216.472 70.3493 214.168C67.7893 211.864 66.5093 208.808 66.5093 205C66.5093 201.448 67.6613 198.472 69.9653 196.072C72.2693 193.64 75.2773 192.424 78.9893 192.424C82.4453 192.424 85.2133 193.656 87.2933 196.12C89.3733 198.584 90.4133 201.576 90.4133 205.096V206.872H73.2293C73.5813 208.472 74.4613 209.704 75.8693 210.568C77.3093 211.432 79.1013 211.864 81.2453 211.864C83.9013 211.864 86.4613 211.16 88.9253 209.752V215.176C86.7813 216.808 83.7413 217.624 79.8053 217.624ZM73.2293 202.552H83.7413C83.6773 201.176 83.1813 200.04 82.2533 199.144C81.3573 198.216 80.1733 197.752 78.7013 197.752C77.1973 197.752 75.9493 198.2 74.9573 199.096C73.9653 199.96 73.3893 201.112 73.2293 202.552ZM102.377 217H95.6089V193.048H102.377V201.928H112.217V193.048H118.985V217H112.217V207.592H102.377V217ZM131.945 217H125.609V193.048H132.281V207.16L143.129 193.048H149.465V217H142.793V202.888L131.945 217ZM178.83 217.624C175.662 217.624 172.958 216.68 170.718 214.792C168.574 212.936 167.23 210.52 166.686 207.544H162.846V217H156.078V193.048H162.846V201.88H166.83C167.47 199.096 168.846 196.824 170.958 195.064C173.102 193.304 175.726 192.424 178.83 192.424C182.478 192.424 185.454 193.64 187.758 196.072C190.094 198.44 191.262 201.416 191.262 205C191.262 208.584 190.094 211.592 187.758 214.024C185.454 216.424 182.478 217.624 178.83 217.624ZM178.83 211.72C180.526 211.72 181.902 211.08 182.958 209.8C184.046 208.52 184.59 206.92 184.59 205C184.59 203.08 184.046 201.496 182.958 200.248C181.902 198.968 180.526 198.328 178.83 198.328C177.102 198.328 175.694 198.968 174.606 200.248C173.518 201.496 172.974 203.08 172.974 205C172.974 206.888 173.502 208.488 174.558 209.8C175.646 211.08 177.07 211.72 178.83 211.72ZM222.163 194.584C225.299 194.584 227.843 195.56 229.795 197.512C231.779 199.496 232.771 202.088 232.771 205.288C232.771 208.904 231.571 211.864 229.171 214.168C226.835 216.472 223.859 217.624 220.243 217.624C215.987 217.624 212.739 216.216 210.499 213.4C208.227 210.552 207.091 206.76 207.091 202.024C207.091 198.792 207.539 196.088 208.435 193.912C209.331 191.704 210.771 189.88 212.755 188.44C214.803 186.936 217.139 185.752 219.763 184.888C222.355 183.992 225.763 183.208 229.987 182.536V188.824L227.443 189.256L224.947 189.688C224.275 189.816 223.523 189.976 222.691 190.168C221.443 190.424 220.083 190.824 218.611 191.368C217.587 191.752 216.547 192.424 215.491 193.384C214.179 194.536 213.427 196.296 213.235 198.664C215.379 195.944 218.355 194.584 222.163 194.584ZM220.195 211.912C221.923 211.912 223.331 211.336 224.419 210.184C225.539 209.032 226.099 207.56 226.099 205.768C226.099 204.072 225.571 202.728 224.515 201.736C223.459 200.712 222.099 200.2 220.435 200.2C219.123 200.2 217.843 200.552 216.595 201.256C215.347 201.928 214.387 202.792 213.715 203.848C213.747 206.44 214.323 208.44 215.443 209.848C216.595 211.224 218.179 211.912 220.195 211.912ZM244.117 217H237.781V193.048H244.453V207.16L255.301 193.048H261.637V217H254.965V202.888L244.117 217ZM276.65 217.624C272.938 217.624 269.834 217.016 267.338 215.8V210.328C269.802 211.608 272.586 212.248 275.69 212.248C277.514 212.248 278.922 212.008 279.914 211.528C280.938 211.048 281.45 210.36 281.45 209.464C281.45 207.896 280.042 207.112 277.226 207.112H272.522V202.216H277.226C279.53 202.216 280.682 201.512 280.682 200.104C280.682 198.568 279.05 197.8 275.786 197.8C272.81 197.8 270.218 198.344 268.01 199.432V194.152C270.474 193 273.562 192.424 277.273 192.424C280.186 192.424 282.634 193.048 284.618 194.296C286.602 195.544 287.594 197.112 287.594 199C287.594 201.656 286.442 203.368 284.138 204.136C285.45 204.552 286.506 205.256 287.306 206.248C288.138 207.208 288.554 208.408 288.554 209.848C288.554 212.12 287.45 213.992 285.242 215.464C283.098 216.904 280.234 217.624 276.65 217.624ZM300.564 217H293.796V193.048H300.564V201.928H310.404V193.048H317.172V217H310.404V207.592H300.564V217ZM335.508 217.624C331.764 217.624 328.612 216.472 326.052 214.168C323.492 211.864 322.212 208.808 322.212 205C322.212 201.448 323.364 198.472 325.668 196.072C327.972 193.64 330.98 192.424 334.692 192.424C338.148 192.424 340.916 193.656 342.996 196.12C345.076 198.584 346.116 201.576 346.116 205.096V206.872H328.932C329.284 208.472 330.164 209.704 331.572 210.568C333.012 211.432 334.804 211.864 336.948 211.864C339.604 211.864 342.164 211.16 344.628 209.752V215.176C342.484 216.808 339.444 217.624 335.508 217.624ZM328.932 202.552H339.444C339.38 201.176 338.884 200.04 337.956 199.144C337.06 198.216 335.876 197.752 334.404 197.752C332.9 197.752 331.652 198.2 330.66 199.096C329.668 199.96 329.092 201.112 328.932 202.552ZM362.736 217.624C359.184 217.624 356.128 216.472 353.568 214.168C351.008 211.8 349.728 208.728 349.728 204.952C349.728 201.176 351.008 198.152 353.568 195.88C356.16 193.576 359.248 192.424 362.832 192.424C365.456 192.424 367.824 192.952 369.936 194.008V199.768C367.856 198.808 365.824 198.328 363.84 198.328C361.728 198.328 359.952 198.952 358.512 200.2C357.104 201.416 356.4 203.016 356.4 205C356.4 206.984 357.12 208.6 358.56 209.848C360 211.096 361.76 211.72 363.84 211.72C366.304 211.72 368.464 211.176 370.32 210.088V215.848C368.08 217.032 365.552 217.624 362.736 217.624ZM398.862 211.768C399.438 211.768 399.902 211.672 400.254 211.48V216.424C399.39 217.096 398.174 217.432 396.606 217.432C393.886 217.432 392.078 216.408 391.182 214.36C389.07 216.536 386.318 217.624 382.926 217.624C380.302 217.624 378.174 216.888 376.542 215.416C374.91 213.944 374.094 212.008 374.094 209.608C374.094 207.048 375.022 205.096 376.878 203.752C378.734 202.408 380.958 201.736 383.55 201.736C386.27 201.736 388.574 202.232 390.462 203.224V202.504C390.462 199.496 388.35 197.992 384.126 197.992C381.534 197.992 379.118 198.664 376.878 200.008V194.344C379.31 193.064 382.27 192.424 385.758 192.424C389.214 192.424 391.966 193.256 394.014 194.92C396.126 196.584 397.182 198.888 397.182 201.832V209.944C397.182 211.16 397.742 211.768 398.862 211.768ZM390.462 209.944V207.544C389.054 206.616 387.39 206.152 385.47 206.152C384.03 206.152 382.878 206.424 382.014 206.968C381.182 207.512 380.766 208.28 380.766 209.272C380.766 210.296 381.15 211.08 381.918 211.624C382.686 212.136 383.726 212.392 385.038 212.392C387.406 212.392 389.214 211.576 390.462 209.944ZM421.346 223.096H414.866V211.336H417.938C419.762 208.488 420.722 203.944 420.818 197.704L420.914 193.048H441.074V211.336H445.01V223.096H438.626V217H421.346V223.096ZM424.85 211.336H434.45V198.712H426.962C426.962 203.672 426.258 207.88 424.85 211.336ZM466.648 198.712H459.256L459.16 202.072C459 205.624 458.632 208.424 458.056 210.472C457.448 212.616 456.488 214.264 455.176 215.416C453.896 216.536 452.12 217.128 449.848 217.192C448.664 217.192 447.816 217.048 447.304 216.76V211.24C447.656 211.368 448.12 211.432 448.696 211.432C450.264 211.432 451.304 210.408 451.816 208.36C452.296 206.536 452.552 203.784 452.584 200.104L452.728 193.048H473.416V217H466.648V198.712ZM485.503 217H477.919L484.351 207.88C481.183 206.728 479.599 204.376 479.599 200.824C479.599 198.488 480.399 196.616 481.999 195.208C483.631 193.768 485.967 193.048 489.007 193.048H501.871V217H495.103V209.08H491.023L485.503 217ZM490.111 204.184H495.103V198.328H490.111C488.991 198.328 488.111 198.584 487.471 199.096C486.831 199.608 486.511 200.328 486.511 201.256C486.511 202.184 486.831 202.904 487.471 203.416C488.111 203.928 488.991 204.184 490.111 204.184ZM534.877 217H520.765V193.048H534.301C536.733 193.048 538.621 193.624 539.965 194.776C541.309 195.896 541.981 197.368 541.981 199.192C541.981 201.592 541.005 203.288 539.053 204.28C542.093 205.336 543.613 207.384 543.613 210.424C543.613 212.472 542.845 214.088 541.309 215.272C539.773 216.424 537.629 217 534.877 217ZM527.437 206.872V212.248H533.197C535.533 212.248 536.701 211.352 536.701 209.56C536.701 207.768 535.533 206.872 533.197 206.872H527.437ZM527.437 197.704V202.6H532.141C534.285 202.6 535.357 201.784 535.357 200.152C535.357 198.52 534.285 197.704 532.141 197.704H527.437ZM565.835 198.712H558.443L558.347 202.072C558.187 205.624 557.819 208.424 557.243 210.472C556.635 212.616 555.675 214.264 554.363 215.416C553.083 216.536 551.307 217.128 549.035 217.192C547.851 217.192 547.003 217.048 546.491 216.76V211.24C546.843 211.368 547.307 211.432 547.883 211.432C549.451 211.432 550.491 210.408 551.003 208.36C551.483 206.536 551.739 203.784 551.771 200.104L551.915 193.048H572.603V217H565.835V198.712ZM602.018 211.768C602.594 211.768 603.058 211.672 603.41 211.48V216.424C602.546 217.096 601.33 217.432 599.762 217.432C597.042 217.432 595.234 216.408 594.338 214.36C592.226 216.536 589.474 217.624 586.082 217.624C583.458 217.624 581.33 216.888 579.698 215.416C578.066 213.944 577.25 212.008 577.25 209.608C577.25 207.048 578.178 205.096 580.034 203.752C581.89 202.408 584.114 201.736 586.706 201.736C589.426 201.736 591.73 202.232 593.618 203.224V202.504C593.618 199.496 591.506 197.992 587.282 197.992C584.69 197.992 582.274 198.664 580.034 200.008V194.344C582.466 193.064 585.426 192.424 588.914 192.424C592.37 192.424 595.122 193.256 597.17 194.92C599.282 196.584 600.338 198.888 600.338 201.832V209.944C600.338 211.16 600.898 211.768 602.018 211.768ZM593.618 209.944V207.544C592.21 206.616 590.546 206.152 588.626 206.152C587.186 206.152 586.034 206.424 585.17 206.968C584.338 207.512 583.922 208.28 583.922 209.272C583.922 210.296 584.306 211.08 585.074 211.624C585.842 212.136 586.882 212.392 588.194 212.392C590.562 212.392 592.37 211.576 593.618 209.944ZM612.221 223.096H605.741V211.336H608.813C610.637 208.488 611.597 203.944 611.693 197.704L611.789 193.048H631.949V211.336H635.885V223.096H629.501V217H612.221V223.096ZM615.725 211.336H625.325V198.712H617.837C617.837 203.672 617.133 207.88 615.725 211.336ZM652.243 217.624C648.499 217.624 645.347 216.472 642.787 214.168C640.227 211.864 638.947 208.808 638.947 205C638.947 201.448 640.099 198.472 642.403 196.072C644.707 193.64 647.715 192.424 651.427 192.424C654.883 192.424 657.651 193.656 659.731 196.12C661.811 198.584 662.851 201.576 662.851 205.096V206.872H645.667C646.019 208.472 646.899 209.704 648.307 210.568C649.747 211.432 651.539 211.864 653.683 211.864C656.339 211.864 658.899 211.16 661.363 209.752V215.176C659.219 216.808 656.179 217.624 652.243 217.624ZM645.667 202.552H656.179C656.115 201.176 655.619 200.04 654.691 199.144C653.795 198.216 652.611 197.752 651.139 197.752C649.635 197.752 648.387 198.2 647.395 199.096C646.403 199.96 645.827 201.112 645.667 202.552ZM685.038 198.712H677.646L677.55 202.072C677.39 205.624 677.022 208.424 676.446 210.472C675.838 212.616 674.878 214.264 673.566 215.416C672.286 216.536 670.51 217.128 668.238 217.192C667.054 217.192 666.206 217.048 665.694 216.76V211.24C666.046 211.368 666.51 211.432 667.086 211.432C668.654 211.432 669.694 210.408 670.206 208.36C670.686 206.536 670.942 203.784 670.974 200.104L671.118 193.048H691.806V217H685.038V198.712ZM711.285 217H698.421V193.048H705.189V200.056H710.949C713.957 200.056 716.357 200.824 718.149 202.36C719.941 203.896 720.837 205.944 720.837 208.504C720.837 210.936 720.005 212.968 718.341 214.6C716.645 216.2 714.293 217 711.285 217ZM705.189 205.096V211.768H709.893C711.205 211.768 712.229 211.48 712.965 210.904C713.701 210.328 714.069 209.512 714.069 208.456C714.069 207.4 713.701 206.584 712.965 206.008C712.229 205.4 711.205 205.096 709.893 205.096H705.189ZM752.916 223.096H746.388V217H725.796V193.048H732.564V211.336H742.212V193.048H748.98V211.336H752.916V223.096ZM769.29 217.624C765.546 217.624 762.394 216.472 759.834 214.168C757.274 211.864 755.994 208.808 755.994 205C755.994 201.448 757.146 198.472 759.45 196.072C761.754 193.64 764.762 192.424 768.474 192.424C771.93 192.424 774.698 193.656 776.778 196.12C778.858 198.584 779.898 201.576 779.898 205.096V206.872H762.714C763.066 208.472 763.946 209.704 765.354 210.568C766.794 211.432 768.586 211.864 770.73 211.864C773.386 211.864 775.946 211.16 778.41 209.752V215.176C776.266 216.808 773.226 217.624 769.29 217.624ZM762.714 202.552H773.226C773.162 201.176 772.666 200.04 771.738 199.144C770.842 198.216 769.658 197.752 768.186 197.752C766.682 197.752 765.434 198.2 764.442 199.096C763.45 199.96 762.874 201.112 762.714 202.552ZM799.205 217H785.093V193.048H798.629C801.061 193.048 802.949 193.624 804.293 194.776C805.637 195.896 806.309 197.368 806.309 199.192C806.309 201.592 805.333 203.288 803.381 204.28C806.421 205.336 807.941 207.384 807.941 210.424C807.941 212.472 807.173 214.088 805.637 215.272C804.101 216.424 801.957 217 799.205 217ZM791.765 206.872V212.248H797.525C799.861 212.248 801.029 211.352 801.029 209.56C801.029 207.768 799.861 206.872 797.525 206.872H791.765ZM791.765 197.704V202.6H796.469C798.613 202.6 799.685 201.784 799.685 200.152C799.685 198.52 798.613 197.704 796.469 197.704H791.765ZM-48.048 252.424C-44.784 252.424 -42.096 253.64 -39.984 256.072C-37.84 258.44 -36.768 261.432 -36.768 265.048C-36.768 268.6 -37.84 271.592 -39.984 274.024C-42.096 276.424 -44.784 277.624 -48.048 277.624C-51.408 277.624 -54.032 276.44 -55.92 274.072V286.6H-62.688V253.048H-55.92V255.976C-54.128 253.608 -51.504 252.424 -48.048 252.424ZM-49.968 258.328C-51.248 258.328 -52.416 258.664 -53.472 259.336C-54.528 260.008 -55.344 260.872 -55.92 261.928V268.168C-55.344 269.224 -54.528 270.088 -53.472 270.76C-52.416 271.4 -51.248 271.72 -49.968 271.72C-48.048 271.72 -46.496 271.08 -45.312 269.8C-44.096 268.488 -43.488 266.904 -43.488 265.048C-43.488 263.16 -44.096 261.56 -45.312 260.248C-46.496 258.968 -48.048 258.328 -49.968 258.328ZM-20.0854 277.624C-23.8294 277.624 -26.9814 276.472 -29.5414 274.168C-32.1014 271.864 -33.3814 268.808 -33.3814 265C-33.3814 261.448 -32.2294 258.472 -29.9254 256.072C-27.6214 253.64 -24.6134 252.424 -20.9014 252.424C-17.4454 252.424 -14.6774 253.656 -12.5974 256.12C-10.5174 258.584 -9.47737 261.576 -9.47737 265.096V266.872H-26.6614C-26.3094 268.472 -25.4294 269.704 -24.0214 270.568C-22.5814 271.432 -20.7894 271.864 -18.6454 271.864C-15.9894 271.864 -13.4294 271.16 -10.9654 269.752V275.176C-13.1094 276.808 -16.1494 277.624 -20.0854 277.624ZM-26.6614 262.552H-16.1494C-16.2134 261.176 -16.7094 260.04 -17.6374 259.144C-18.5334 258.216 -19.7174 257.752 -21.1894 257.752C-22.6934 257.752 -23.9414 258.2 -24.9334 259.096C-25.9254 259.96 -26.5014 261.112 -26.6614 262.552ZM2.48625 277H-4.28175V253.048H2.48625V261.784L10.7423 253.048H19.0463L8.63025 263.848L20.6783 277H11.9423L2.48625 266.68V277ZM41.4446 258.712H34.0526L33.9566 262.072C33.7966 265.624 33.4286 268.424 32.8526 270.472C32.2446 272.616 31.2846 274.264 29.9726 275.416C28.6926 276.536 26.9166 277.128 24.6446 277.192C23.4606 277.192 22.6126 277.048 22.1006 276.76V271.24C22.4526 271.368 22.9166 271.432 23.4926 271.432C25.0606 271.432 26.1006 270.408 26.6126 268.36C27.0926 266.536 27.3486 263.784 27.3806 260.104L27.5246 253.048H48.2126V277H41.4446V258.712ZM77.6276 271.768C78.2036 271.768 78.6676 271.672 79.0196 271.48V276.424C78.1556 277.096 76.9396 277.432 75.3716 277.432C72.6516 277.432 70.8436 276.408 69.9476 274.36C67.8356 276.536 65.0836 277.624 61.6916 277.624C59.0676 277.624 56.9396 276.888 55.3076 275.416C53.6756 273.944 52.8596 272.008 52.8596 269.608C52.8596 267.048 53.7876 265.096 55.6436 263.752C57.4996 262.408 59.7236 261.736 62.3156 261.736C65.0356 261.736 67.3396 262.232 69.2276 263.224V262.504C69.2276 259.496 67.1156 257.992 62.8916 257.992C60.2996 257.992 57.8836 258.664 55.6436 260.008V254.344C58.0756 253.064 61.0356 252.424 64.5236 252.424C67.9796 252.424 70.7316 253.256 72.7796 254.92C74.8916 256.584 75.9476 258.888 75.9476 261.832V269.944C75.9476 271.16 76.5076 271.768 77.6276 271.768ZM69.2276 269.944V267.544C67.8196 266.616 66.1556 266.152 64.2356 266.152C62.7956 266.152 61.6436 266.424 60.7796 266.968C59.9476 267.512 59.5316 268.28 59.5316 269.272C59.5316 270.296 59.9156 271.08 60.6836 271.624C61.4516 272.136 62.4916 272.392 63.8036 272.392C66.1716 272.392 67.9796 271.576 69.2276 269.944ZM90.0866 277H83.7026V253.048H90.3746L97.3346 261.976L104.343 253.048H111.015V277H104.631V262.216L98.6786 269.656H95.9906L90.0866 262.216V277ZM124.408 277H117.64V253.048H124.408V261.928H134.248V253.048H141.016V277H134.248V267.592H124.408V277ZM178.744 277H172.072V253.048H178.744V277ZM159.64 277H147.64V253.048H154.408V260.056H159.304C162.312 260.056 164.712 260.824 166.504 262.36C168.296 263.896 169.192 265.944 169.192 268.504C169.192 270.936 168.36 272.968 166.696 274.6C165 276.2 162.648 277 159.64 277ZM154.408 265.096V271.768H158.248C159.56 271.768 160.584 271.48 161.32 270.904C162.056 270.328 162.424 269.512 162.424 268.456C162.424 267.4 162.056 266.584 161.32 266.008C160.584 265.4 159.56 265.096 158.248 265.096H154.408ZM183.695 253.048H191.279L196.079 259.768L200.927 253.048H208.415L200.015 264.472L209.135 277H201.551L195.983 269.32L190.367 277H182.879L192.047 264.52L183.695 253.048ZM248.909 271.768C249.485 271.768 249.949 271.672 250.301 271.48V276.424C249.437 277.096 248.221 277.432 246.653 277.432C243.933 277.432 242.125 276.408 241.229 274.36C239.117 276.536 236.365 277.624 232.973 277.624C230.349 277.624 228.221 276.888 226.589 275.416C224.957 273.944 224.141 272.008 224.141 269.608C224.141 267.048 225.069 265.096 226.925 263.752C228.781 262.408 231.005 261.736 233.597 261.736C236.317 261.736 238.621 262.232 240.509 263.224V262.504C240.509 259.496 238.397 257.992 234.173 257.992C231.581 257.992 229.165 258.664 226.925 260.008V254.344C229.357 253.064 232.317 252.424 235.805 252.424C239.261 252.424 242.013 253.256 244.061 254.92C246.173 256.584 247.229 258.888 247.229 261.832V269.944C247.229 271.16 247.789 271.768 248.909 271.768ZM240.509 269.944V267.544C239.101 266.616 237.437 266.152 235.517 266.152C234.077 266.152 232.925 266.424 232.061 266.968C231.229 267.512 230.813 268.28 230.813 269.272C230.813 270.296 231.197 271.08 231.965 271.624C232.733 272.136 233.773 272.392 235.085 272.392C237.453 272.392 239.261 271.576 240.509 269.944ZM261.752 277H254.984V253.048H273.992V258.712H261.752V277ZM289.618 277.624C285.874 277.624 282.722 276.472 280.162 274.168C277.602 271.864 276.322 268.808 276.322 265C276.322 261.448 277.474 258.472 279.778 256.072C282.082 253.64 285.09 252.424 288.802 252.424C292.258 252.424 295.026 253.656 297.106 256.12C299.186 258.584 300.226 261.576 300.226 265.096V266.872H283.042C283.394 268.472 284.274 269.704 285.682 270.568C287.122 271.432 288.914 271.864 291.058 271.864C293.714 271.864 296.274 271.16 298.738 269.752V275.176C296.594 276.808 293.554 277.624 289.618 277.624ZM283.042 262.552H293.554C293.49 261.176 292.994 260.04 292.066 259.144C291.17 258.216 289.986 257.752 288.514 257.752C287.01 257.752 285.762 258.2 284.77 259.096C283.778 259.96 283.202 261.112 283.042 262.552ZM312.189 277H305.421V253.048H312.189V261.928H322.029V253.048H328.797V277H322.029V267.592H312.189V277ZM347.085 277H340.317V258.712H332.829V253.048H354.669V258.712H347.085V277ZM370.095 277.624C366.543 277.624 363.487 276.472 360.927 274.168C358.367 271.8 357.087 268.728 357.087 264.952C357.087 261.176 358.367 258.152 360.927 255.88C363.519 253.576 366.607 252.424 370.191 252.424C372.815 252.424 375.183 252.952 377.295 254.008V259.768C375.215 258.808 373.183 258.328 371.199 258.328C369.087 258.328 367.311 258.952 365.871 260.2C364.463 261.416 363.759 263.016 363.759 265C363.759 266.984 364.479 268.6 365.919 269.848C367.359 271.096 369.119 271.72 371.199 271.72C373.663 271.72 375.823 271.176 377.679 270.088V275.848C375.439 277.032 372.911 277.624 370.095 277.624ZM395.085 277H388.317V258.712H380.829V253.048H402.669V258.712H395.085V277ZM420.783 277H406.671V253.048H420.207C422.639 253.048 424.527 253.624 425.871 254.776C427.215 255.896 427.887 257.368 427.887 259.192C427.887 261.592 426.911 263.288 424.959 264.28C427.999 265.336 429.519 267.384 429.519 270.424C429.519 272.472 428.751 274.088 427.215 275.272C425.679 276.424 423.535 277 420.783 277ZM413.343 266.872V272.248H419.103C421.439 272.248 422.607 271.352 422.607 269.56C422.607 267.768 421.439 266.872 419.103 266.872H413.343ZM413.343 257.704V262.6H418.047C420.191 262.6 421.263 261.784 421.263 260.152C421.263 258.52 420.191 257.704 418.047 257.704H413.343ZM451.159 283.096H444.679V271.336H447.751C449.575 268.488 450.535 263.944 450.631 257.704L450.727 253.048H470.887V271.336H474.823V283.096H468.439V277H451.159V283.096ZM454.663 271.336H464.263V258.712H456.775C456.775 263.672 456.071 267.88 454.663 271.336ZM484.556 265C484.556 266.92 485.18 268.52 486.428 269.8C487.676 271.08 489.26 271.72 491.18 271.72C493.1 271.72 494.684 271.08 495.932 269.8C497.18 268.488 497.804 266.888 497.804 265C497.804 263.08 497.18 261.496 495.932 260.248C494.684 258.968 493.1 258.328 491.18 258.328C489.26 258.328 487.676 258.968 486.428 260.248C485.18 261.496 484.556 263.08 484.556 265ZM477.884 265C477.884 261.448 479.132 258.472 481.628 256.072C484.092 253.64 487.276 252.424 491.18 252.424C495.084 252.424 498.268 253.64 500.732 256.072C503.228 258.504 504.476 261.48 504.476 265C504.476 268.584 503.228 271.592 500.732 274.024C498.236 276.424 495.052 277.624 491.18 277.624C487.308 277.624 484.124 276.424 481.628 274.024C479.132 271.592 477.884 268.584 477.884 265ZM533.27 277H526.502V250.792L519.398 254.392V247.624L527.27 243.4H533.27V277ZM554.085 277.672C551.109 277.672 548.501 276.84 546.261 275.176C544.085 273.544 542.421 271.432 541.269 268.84C540.149 266.248 539.589 263.368 539.589 260.2C539.589 257.064 540.133 254.216 541.221 251.656C542.373 248.968 544.069 246.808 546.309 245.176C548.581 243.544 551.173 242.728 554.085 242.728C558.501 242.728 562.005 244.44 564.597 247.864C567.221 251.256 568.533 255.368 568.533 260.2C568.533 265.032 567.221 269.144 564.597 272.536C562.005 275.96 558.501 277.672 554.085 277.672ZM548.565 268.024C549.973 270.136 551.813 271.192 554.085 271.192C556.389 271.192 558.213 270.136 559.557 268.024C560.933 265.88 561.621 263.272 561.621 260.2C561.621 257.096 560.933 254.504 559.557 252.424C558.213 250.28 556.389 249.208 554.085 249.208C551.781 249.208 549.941 250.28 548.565 252.424C547.189 254.504 546.501 257.096 546.501 260.2C546.501 263.272 547.189 265.88 548.565 268.024ZM590.424 266.728H575.592V260.632H590.424V266.728ZM609.863 277H603.095V250.792L595.991 254.392V247.624L603.863 243.4H609.863V277ZM625.542 277.672C622.022 277.672 618.838 276.872 615.99 275.272V268.792C618.838 270.584 621.926 271.48 625.254 271.48C627.43 271.48 629.206 270.984 630.582 269.992C631.99 269 632.694 267.624 632.694 265.864C632.694 264.2 632.006 262.856 630.63 261.832C629.286 260.808 627.478 260.296 625.206 260.296C622.55 260.296 619.862 260.776 617.142 261.736L619.35 243.4H637.302V249.352H624.438L623.718 255.064C624.71 254.84 625.782 254.728 626.934 254.728C630.646 254.728 633.67 255.752 636.006 257.8C638.406 259.848 639.606 262.536 639.606 265.864C639.606 269.544 638.246 272.44 635.526 274.552C632.806 276.632 629.478 277.672 625.542 277.672ZM678.572 277H671.804V269.128C670.236 269.672 668.492 269.944 666.572 269.944C659.756 269.944 656.348 266.68 656.348 260.152V253.048H663.116V259.48C663.116 261.208 663.452 262.44 664.124 263.176C664.828 263.88 665.996 264.232 667.628 264.232C669.324 264.232 670.716 263.928 671.804 263.32V253.048H678.572V277ZM696.915 277.624C693.171 277.624 690.019 276.472 687.459 274.168C684.899 271.864 683.619 268.808 683.619 265C683.619 261.448 684.771 258.472 687.075 256.072C689.379 253.64 692.387 252.424 696.099 252.424C699.555 252.424 702.323 253.656 704.403 256.12C706.483 258.584 707.523 261.576 707.523 265.096V266.872H690.339C690.691 268.472 691.571 269.704 692.979 270.568C694.419 271.432 696.211 271.864 698.355 271.864C701.011 271.864 703.571 271.16 706.035 269.752V275.176C703.891 276.808 700.851 277.624 696.915 277.624ZM690.339 262.552H700.851C700.787 261.176 700.291 260.04 699.363 259.144C698.467 258.216 697.283 257.752 695.811 257.752C694.307 257.752 693.059 258.2 692.067 259.096C691.075 259.96 690.499 261.112 690.339 262.552ZM729.71 258.712H722.318L722.222 262.072C722.062 265.624 721.694 268.424 721.118 270.472C720.51 272.616 719.55 274.264 718.238 275.416C716.958 276.536 715.182 277.128 712.91 277.192C711.726 277.192 710.878 277.048 710.366 276.76V271.24C710.718 271.368 711.182 271.432 711.758 271.432C713.326 271.432 714.366 270.408 714.878 268.36C715.358 266.536 715.614 263.784 715.646 260.104L715.79 253.048H736.478V277H729.71V258.712ZM748.181 265C748.181 266.92 748.805 268.52 750.053 269.8C751.301 271.08 752.885 271.72 754.805 271.72C756.725 271.72 758.309 271.08 759.557 269.8C760.805 268.488 761.429 266.888 761.429 265C761.429 263.08 760.805 261.496 759.557 260.248C758.309 258.968 756.725 258.328 754.805 258.328C752.885 258.328 751.301 258.968 750.053 260.248C748.805 261.496 748.181 263.08 748.181 265ZM741.509 265C741.509 261.448 742.757 258.472 745.253 256.072C747.717 253.64 750.901 252.424 754.805 252.424C758.709 252.424 761.893 253.64 764.357 256.072C766.853 258.504 768.101 261.48 768.101 265C768.101 268.584 766.853 271.592 764.357 274.024C761.861 276.424 758.677 277.624 754.805 277.624C750.933 277.624 747.749 276.424 745.253 274.024C742.757 271.592 741.509 268.584 741.509 265ZM787.205 277H773.093V253.048H786.629C789.061 253.048 790.949 253.624 792.293 254.776C793.637 255.896 794.309 257.368 794.309 259.192C794.309 261.592 793.333 263.288 791.381 264.28C794.421 265.336 795.941 267.384 795.941 270.424C795.941 272.472 795.173 274.088 793.637 275.272C792.101 276.424 789.957 277 787.205 277ZM779.765 266.872V272.248H785.525C787.861 272.248 789.029 271.352 789.029 269.56C789.029 267.768 787.861 266.872 785.525 266.872H779.765ZM779.765 257.704V262.6H784.469C786.613 262.6 787.685 261.784 787.685 260.152C787.685 258.52 786.613 257.704 784.469 257.704H779.765ZM812.883 277.624C809.139 277.624 805.987 276.472 803.427 274.168C800.867 271.864 799.587 268.808 799.587 265C799.587 261.448 800.739 258.472 803.043 256.072C805.347 253.64 808.355 252.424 812.067 252.424C815.523 252.424 818.291 253.656 820.371 256.12C822.451 258.584 823.491 261.576 823.491 265.096V266.872H806.307C806.659 268.472 807.539 269.704 808.947 270.568C810.387 271.432 812.179 271.864 814.323 271.864C816.979 271.864 819.539 271.16 822.003 269.752V275.176C819.859 276.808 816.819 277.624 812.883 277.624ZM806.307 262.552H816.819C816.755 261.176 816.259 260.04 815.331 259.144C814.435 258.216 813.251 257.752 811.779 257.752C810.275 257.752 809.027 258.2 808.035 259.096C807.043 259.96 806.467 261.112 806.307 262.552ZM835.455 277H828.687V253.048H835.455V261.784L843.711 253.048H852.015L841.599 263.848L853.647 277H844.911L835.455 266.68V277Z" fill="white"/>
<path d="M317.875 -453.75L285.473 -134.87L-11.5075 -67.4876L-212.793 -113.404L-240.866 146.353L-359.622 333.42L-497.276 379.001L-592.466 487.91L-737.816 -104.184L-497.851 376.658L-432.3 114.764L-212.793 -113.404L-613.342 -145.401L-251.047 -265.366L-212.793 -113.404L-21.0782 -228.384L-11.5075 -67.4876L317.875 -453.75ZM317.875 -453.75L-31.3858 -338.101L-21.0782 -228.384L-251.047 -265.366L-566.118 -39.4656L-626.668 -140.988" stroke="white" stroke-miterlimit="10"/>
</g>
<defs>
<filter id="filter0_f" x="-835" y="-455" width="2937.93" height="6064.73" filterUnits="userSpaceOnUse" color-interpolation-filters="sRGB">
<feFlood flood-opacity="0" result="BackgroundImageFix"/>
<feBlend mode="normal" in="SourceGraphic" in2="BackgroundImageFix" result="shape"/>
<feGaussianBlur stdDeviation="125" result="effect1_foregroundBlur"/>
</filter>
<filter id="filter1_f" x="-2" y="-435" width="1928.38" height="1557.58" filterUnits="userSpaceOnUse" color-interpolation-filters="sRGB">
<feFlood flood-opacity="0" result="BackgroundImageFix"/>
<feBlend mode="normal" in="SourceGraphic" in2="BackgroundImageFix" result="shape"/>
<feGaussianBlur stdDeviation="125" result="effect1_foregroundBlur"/>
</filter>
<clipPath id="clip0">
<rect width="1920" height="7255" fill="white" transform="translate(-426 -127)"/>
</clipPath>
</defs>
</svg>
