<svg width="64" height="64" viewBox="0 0 64 64" fill="none" xmlns="http://www.w3.org/2000/svg">
<circle cx="32" cy="32" r="32" fill="#A055FF"/>
<g clip-path="url(#clip0)">
<path d="M31.5541 34.6392L29.4302 32.7701C29.1753 32.5577 28.8355 32.5577 28.5806 32.7701L21.3169 39.0144C20.8921 39.3967 21.1045 40.1613 21.6992 40.1613H42.216C42.8107 40.1613 43.0231 39.3967 42.5983 39.0144L35.3771 32.7701C35.1222 32.5577 34.7824 32.5577 34.5275 32.7701L32.4036 34.6392C32.1913 34.8515 31.809 34.8515 31.5541 34.6392Z" fill="white"/>
<path d="M42.683 24.1469C43.1078 23.7646 42.8954 23 42.3007 23H21.7414C21.1467 23 20.8919 23.7646 21.3166 24.1469L31.5538 32.9398C31.8087 33.1522 32.1485 33.1522 32.4034 32.9398L42.683 24.1469Z" fill="white"/>
<path d="M20 25.9308V37.3574C20 37.9096 20.6372 38.2069 21.0619 37.8671L27.6885 32.2175C27.9858 31.9627 27.9858 31.4954 27.6885 31.2405L21.0619 25.4211C20.6372 25.0813 20 25.3786 20 25.9308Z" fill="white"/>
<path d="M36.2692 32.1753L42.9382 37.8248C43.363 38.1646 44.0001 37.8673 44.0001 37.3151V25.931C44.0001 25.3788 43.363 25.0815 42.9382 25.4638L36.2692 31.1983C35.9718 31.4531 35.9718 31.9204 36.2692 32.1753Z" fill="white"/>
</g>
<defs>
<clipPath id="clip0">
<rect width="24" height="17.1186" fill="white" transform="translate(20 23)"/>
</clipPath>
</defs>
</svg>
