<svg width="890" height="840" viewBox="0 0 890 840" fill="none" xmlns="http://www.w3.org/2000/svg">
<path d="M219.976 449.969L219.595 346.946L302.339 384.277L219.976 449.969Z" stroke="white" stroke-opacity="0.7" stroke-width="2"/>
<path d="M171.792 810.986L84.1669 763.027L144.292 711L171.792 810.986Z" stroke="white" stroke-opacity="0.7" stroke-width="2"/>
<path d="M743.875 -326.75L711.473 -7.86951L414.492 59.5124L213.207 13.5963L185.134 273.353L66.3778 460.42L-71.2765 506.001L-166.466 614.91L-311.816 22.816L-71.8515 503.658L-6.30044 241.764L213.207 13.5963L-187.342 -18.4007L174.953 -138.366L213.207 13.5963L404.922 -101.384L414.492 59.5124L743.875 -326.75ZM743.875 -326.75L394.614 -211.101L404.922 -101.384L174.953 -138.366L-140.118 87.5344L-200.668 -13.9881" stroke="white" stroke-miterlimit="10"/>
<path d="M202.004 269.808L3.51679 236.768L78.9933 465.076" stroke="white" stroke-miterlimit="10"/>
<path d="M213.66 -6.45363L-137.051 66.3884L-5.64274 218.256L-184.685 246.765L-137.051 66.3884" stroke="white" stroke-miterlimit="10"/>
<path d="M696.592 -1.39093L597.748 -177.389L370.272 -212.556" stroke="white" stroke-miterlimit="10"/>
</svg>
