<svg width="64" height="64" viewBox="0 0 64 64" fill="none" xmlns="http://www.w3.org/2000/svg">
<circle cx="32" cy="32" r="32" fill="#A055FF"/>
<g clip-path="url(#clip0)">
<path d="M32 17C27.05 17 23 21.0781 23 26.0625C23 35.125 32 46 32 46C32 46 41 35.125 41 26.0625C41 21.0781 37.0143 17 32 17ZM32 31.6295C28.9786 31.6295 26.4714 29.1696 26.4714 26.0625C26.4714 23.0201 28.9143 20.4955 32 20.4955C35.0214 20.4955 37.5286 22.9554 37.5286 26.0625C37.5286 29.1696 35.0857 31.6295 32 31.6295Z" fill="white"/>
</g>
<defs>
<clipPath id="clip0">
<rect width="18" height="29" fill="white" transform="translate(23 17)"/>
</clipPath>
</defs>
</svg>
