<svg width="918" height="917" viewBox="0 0 918 917" fill="none" xmlns="http://www.w3.org/2000/svg">
<path d="M759.392 67.9439L736.168 283.125L524.497 328.386L381.071 297.253L360.957 472.536L276.248 598.698L178.131 629.36L110.249 702.791L6.91129 303.097L177.722 627.779L224.545 451.079L381.071 297.253L95.6349 275.371L353.873 194.67L381.071 297.253L517.744 219.794L524.497 328.386L759.392 67.9439ZM759.392 67.9439L510.444 145.741L517.744 219.794L353.873 194.67L129.245 346.898L86.1362 278.339" stroke="white" stroke-miterlimit="10"/>
<path d="M360.98 472.598L219.528 450.3L273.316 604.382" stroke="white" stroke-miterlimit="10"/>
<path d="M128.745 316.978L8.96556 270.978" stroke="white" stroke-miterlimit="10"/>
<path d="M197.771 623.233L101.541 611.167L108.706 454.971" stroke="white" stroke-miterlimit="10"/>
<path d="M725.448 287.622L655.007 168.843L492.896 145.109" stroke="white" stroke-miterlimit="10"/>
<path d="M784.5 916.5L865 844L844.5 916.5H784.5Z" stroke="white"/>
<path d="M359.101 788L389.098 863.741L343.373 830.288L359.101 788Z" stroke="white"/>
<path d="M841 467L832.87 380L899.5 454.5L841 467Z" stroke="white"/>
</svg>
