<svg width="236" height="162" viewBox="0 0 236 162" fill="none" xmlns="http://www.w3.org/2000/svg">
<path d="M120.109 124.757C117.427 126.249 113.851 125.354 112.361 122.967L62.5976 39.7078C61.1076 37.022 62.0016 33.441 64.3855 31.9489L108.487 5.38962C111.169 3.89753 114.745 4.79279 116.235 7.18014L165.999 90.1406C167.489 92.8264 166.595 96.4074 164.211 97.8995L120.109 124.757Z" fill="#A055FF"/>
<path d="M111.296 10.0945L67.1267 36.7183L117.224 120.072L161.393 93.4479L111.296 10.0945Z" fill="#DFAFF6"/>
<path d="M125.036 83.3121C135.19 77.1949 138.538 64.1074 132.515 54.0802C126.491 44.053 113.377 40.8834 103.223 47.0005C93.0698 53.1177 89.7216 66.2053 95.7451 76.2324C101.769 86.2596 114.883 89.4293 125.036 83.3121Z" fill="#A055FF"/>
<path d="M115.043 56.7179C118.619 54.6289 121.003 56.121 122.493 58.8068L124.578 57.6131L126.068 60.0005L123.982 61.1941C124.876 62.9847 125.472 64.4768 125.77 65.6704L122.791 67.4609C121.897 65.9689 120.705 63.2831 119.811 62.0894C118.917 60.5973 118.321 60.0005 117.129 60.8957L116.533 61.1941C115.639 61.791 115.341 62.3878 116.235 63.8799L117.427 65.6704C119.513 69.2515 117.129 71.6388 115.043 72.8325L114.149 73.4293C109.977 75.8167 107.593 74.0262 106.401 71.6388L104.315 72.8325L102.825 70.4451L104.911 69.2515C103.719 67.1625 103.421 66.5657 103.123 64.4768L106.103 62.6862C106.699 63.5815 107.891 66.2673 109.083 68.3562C109.679 69.2515 110.573 70.1467 111.467 69.5499L112.063 69.2515C112.957 68.6546 113.255 68.0578 112.659 66.8641L111.467 65.0736C108.785 60.8957 112.063 58.21 113.553 57.6131L115.043 56.7179Z" fill="#DFAFF6"/>
<path d="M117.725 17.3259L111.467 7.17969L102.23 12.8496C102.528 13.7449 102.826 14.3417 103.124 15.237C105.806 19.7133 111.765 21.2054 116.235 18.5196C116.831 17.9228 117.129 17.6244 117.725 17.3259Z" fill="#A055FF"/>
<path d="M68.5571 46.2729C69.7491 45.9745 70.941 45.6761 72.133 45.0792C76.6028 42.3935 78.0927 36.4251 75.4108 31.9488C74.8149 31.0535 74.5169 30.4567 73.9209 29.8599L62.5974 36.4251L68.5571 46.2729Z" fill="#A055FF"/>
<path d="M99.8455 41.1998C102.825 39.4093 103.719 35.8282 101.931 32.844C100.143 29.8599 96.5676 28.9646 93.5877 30.7551C90.6079 32.5456 89.7139 36.1267 91.5018 39.1109C93.2898 42.095 97.1636 42.9903 99.8455 41.1998Z" fill="#A055FF"/>
<path d="M117.129 151.317C115.639 154.002 112.063 154.898 109.381 153.406L25.3488 105.659C22.6669 104.166 21.773 100.585 23.2629 97.8997L48.5918 53.1368C50.0817 50.4511 53.6575 49.5558 56.3394 51.0479L140.372 98.7949C143.054 100.287 143.947 103.868 142.458 106.554L117.129 151.317Z" fill="#A055FF"/>
<path d="M53.318 55.6291L27.9133 100.549L112.438 148.491L137.843 103.571L53.318 55.6291Z" fill="#DFAFF6"/>
<path d="M101.212 112.633C107.054 102.309 103.549 89.2631 93.3828 83.4942C83.2171 77.7253 70.2406 81.4178 64.3989 91.7416C58.5572 102.065 62.0625 115.111 72.2282 120.88C82.3939 126.649 95.3704 122.957 101.212 112.633Z" fill="#A055FF"/>
<path d="M79.2845 94.3185C81.3704 90.7375 84.0523 91.0359 86.7341 92.2296L87.9261 90.1406L90.31 91.3343L89.118 93.4232C90.9059 94.6169 91.7999 95.5122 92.9919 96.4074L91.2039 99.3916C89.714 98.4963 87.3301 96.7058 86.1382 96.109C84.6482 95.2137 84.0523 94.9153 83.1583 96.4074L82.8603 97.0043C82.2643 98.1979 82.5623 98.7948 83.7543 99.3916L85.8402 100.585C89.416 102.674 88.522 105.957 87.3301 108.046L86.7341 108.941C84.3502 113.119 81.3704 112.522 78.9865 111.328L77.7945 113.417L75.4106 112.224L76.6026 110.135C74.5167 108.941 73.9207 108.344 72.7288 106.852L74.5167 103.868C75.4106 104.465 77.7945 105.957 79.8804 107.151C80.7744 107.747 81.9663 108.046 82.5623 106.852L82.8603 106.255C83.4563 105.36 83.4563 104.763 82.2643 104.166L80.4764 103.569C76.0066 101.182 77.7945 97.3027 78.6885 96.109L79.2845 94.3185Z" fill="#DFAFF6"/>
<path d="M62.2996 58.8068L51.8701 52.8384L46.5063 62.3878C47.1023 62.9846 47.6983 63.5815 48.5923 63.8799C53.062 66.5656 59.0218 64.7751 61.4057 60.2989C62.0016 60.0004 62.2996 59.4036 62.2996 58.8068Z" fill="#A055FF"/>
<path d="M33.6927 108.344C34.5866 107.449 35.4806 106.554 36.0766 105.36C38.7585 100.884 36.9705 94.9154 32.5007 92.5281C31.6068 92.2296 31.0108 91.6328 30.1169 91.6328L23.8591 102.674L33.6927 108.344Z" fill="#A055FF"/>
<path d="M119.215 141.767C118.619 141.17 118.023 140.573 117.129 140.275C112.659 137.589 106.7 139.379 104.316 143.856C103.72 145.049 103.422 146.243 103.124 147.437L112.957 153.107L119.215 141.767Z" fill="#A055FF"/>
<path d="M58.7236 88.3498C60.5115 85.3656 59.3195 81.7846 56.3397 79.9941C53.3598 78.2036 49.784 79.3973 47.9961 82.3815C46.2081 85.3656 47.4001 88.9467 50.3799 90.7372C53.3598 92.5277 57.2336 91.334 58.7236 88.3498Z" fill="#A055FF"/>
<path d="M146.21 148.419C167.172 141.048 178.198 118.055 170.838 97.062C163.477 76.0694 140.517 65.0272 119.555 72.3986C98.5928 79.7699 87.5665 102.763 94.9271 123.756C102.288 144.749 125.248 155.791 146.21 148.419Z" fill="#DFAFF6"/>
<path d="M160.337 91.3324C149.609 76.113 129.048 72.532 113.851 82.9766C98.6536 93.7197 95.0778 114.311 105.507 129.53C116.235 144.749 136.796 148.33 151.993 137.886C167.191 127.441 170.766 106.552 160.337 91.3324Z" fill="#A055FF"/>
<path d="M158.847 92.2275C148.716 77.9034 129.049 74.3224 114.447 84.4687C100.144 94.6149 96.568 114.311 106.7 128.933C116.831 143.257 136.498 146.838 151.1 136.692C165.403 126.546 168.979 106.552 158.847 92.2275Z" fill="#A055FF"/>
<path d="M116.533 110.431C112.063 104.165 114.745 99.39 119.215 95.809L116.533 91.9295L120.705 88.9453L123.386 92.8248C126.664 90.7358 129.346 89.5422 132.028 88.9453L135.902 94.6153C133.22 96.1074 128.154 99.39 126.068 100.882C123.386 102.673 122.492 103.568 123.982 106.254L124.876 107.447C126.068 109.238 127.558 109.536 129.942 108.044L133.518 105.657C140.074 101.18 145.139 105.358 147.523 108.939L148.715 110.73C153.781 118.19 150.801 122.965 146.331 125.949L148.715 129.53L144.543 132.514L142.16 128.337C138.584 130.724 137.094 131.321 133.518 132.514L129.644 126.845C131.432 125.651 135.902 122.965 140.074 120.279C141.862 119.086 143.054 117.594 141.862 115.505L140.968 114.311C139.776 112.819 138.584 112.222 136.498 113.714L133.22 116.101C125.472 121.473 120.407 115.505 118.619 113.117L116.533 110.431Z" fill="#DFAFF6"/>
<path d="M221.084 64.8503C229.102 50.8356 224.256 32.9657 210.262 24.9367C196.267 16.9078 178.423 21.7603 170.406 35.775C162.389 49.7897 167.234 67.6596 181.228 75.6885C195.223 83.7175 213.067 78.8651 221.084 64.8503Z" fill="#DFAFF6"/>
<path d="M219.338 56.1179C222.616 42.9875 214.868 29.8571 201.757 26.5745C188.645 23.2919 175.534 31.0508 172.256 44.1812C168.978 57.3116 176.726 70.4421 189.837 73.7247C202.949 77.3057 216.06 69.2484 219.338 56.1179Z" fill="#A055FF"/>
<path d="M218.444 55.8196C221.722 43.286 213.974 30.7524 201.757 27.7683C189.241 24.4856 176.726 32.2445 173.746 44.4797C170.468 57.0133 178.216 69.5469 190.433 72.5311C202.651 75.8137 215.166 68.3532 218.444 55.8196Z" fill="#A055FF"/>
<path d="M188.347 41.1971C189.837 35.8256 193.413 34.9303 197.585 35.8256L198.479 32.543L202.054 33.4382L201.161 36.7208C203.842 37.6161 205.63 38.5113 207.418 39.4066L206.226 44.1813C204.14 43.2861 199.969 42.0924 198.181 41.794C196.095 41.1971 194.903 41.1971 194.307 43.2861L194.009 44.1813C193.711 45.6734 194.009 46.5687 196.095 47.1655L199.075 48.0608C204.736 49.5529 204.736 54.3276 203.842 57.3117L203.544 58.8038C202.054 65.3691 197.883 65.6675 194.009 64.7722L193.115 67.7564L189.539 66.8612L190.433 63.5785C187.453 62.6833 186.261 62.0864 184.175 60.8928L185.367 56.1181C186.857 56.7149 190.433 57.9086 194.009 58.8038C195.499 59.1023 196.989 59.1023 197.287 57.6102L197.585 56.4165C197.883 54.9244 197.585 54.0291 195.797 53.7307L192.817 53.1339C185.963 51.3434 186.857 45.6734 187.453 43.5845L188.347 41.1971Z" fill="#DFAFF6"/>
<path d="M51.1221 29.7993C52.6604 16.5389 43.1735 4.54045 29.9323 2.99991C16.6912 1.45937 4.71003 10.9601 3.17168 24.2205C1.63332 37.4808 11.1203 49.4793 24.3614 51.0199C37.6026 52.5604 49.5837 43.0596 51.1221 29.7993Z" fill="#DFAFF6"/>
<path d="M46.8038 23.8889C45.0159 12.8474 34.8843 5.38689 23.8588 7.1774C13.1313 8.96792 5.68166 19.4126 7.17159 30.1557C8.95951 41.1972 19.0911 48.6576 30.1166 46.8671C41.1421 45.0766 48.5917 34.9304 46.8038 23.8889Z" fill="#A055FF"/>
<path d="M45.9103 24.1874C44.1224 13.7428 34.5868 6.5807 24.1573 8.37121C13.7277 9.86331 6.57606 19.7111 8.36398 30.1558C10.1519 40.6005 19.6875 47.7625 30.117 45.972C40.5465 44.1815 47.4002 34.6321 45.9103 24.1874Z" fill="#A055FF"/>
<path d="M18.4952 22.6956C17.6013 18.2194 20.2832 16.1304 23.561 15.5336L23.263 12.8478L26.2429 12.251L26.5409 14.9367C28.9248 14.9367 30.7127 14.9367 32.2026 15.2352L32.7986 19.413C31.0107 19.413 27.4348 20.0099 25.9449 20.3083C24.157 20.3083 23.263 20.6067 23.561 22.3972V23.2925C23.859 24.4862 24.455 25.083 26.2429 24.7846L28.9248 24.4862C33.6926 23.8893 35.1825 27.4703 35.4805 29.8577L35.7785 31.0514C36.6724 36.4229 33.6926 38.2134 30.4147 38.5118L30.7127 41.1976L27.7328 41.7945L27.4348 39.1087C24.753 39.4071 23.859 39.4071 21.7731 39.1087L21.1771 35.2292C22.3691 35.2292 25.6469 34.9308 28.6268 34.334C30.1167 34.0356 31.0107 33.7371 30.7127 32.245V31.3498C30.1167 30.1561 29.8187 29.5593 28.3288 29.5593L25.6469 30.1561C19.9852 31.0514 18.7932 26.2767 18.7932 24.7846L18.4952 22.6956Z" fill="#DFAFF6"/>
</svg>
