<svg width="64" height="64" viewBox="0 0 64 64" fill="none" xmlns="http://www.w3.org/2000/svg">
<circle cx="32" cy="32" r="32" fill="#A055FF"/>
<g clip-path="url(#clip0)">
<path d="M44 38.8936C44.0567 39.2908 43.9433 39.6312 43.6596 39.9149L40.2553 43.2624C40.0851 43.4326 39.9149 43.6028 39.6312 43.7163C39.4043 43.8298 39.1206 43.8865 38.8936 43.9433C38.8936 43.9433 38.8369 43.9433 38.7234 43.9433C38.6667 43.9433 38.5532 43.9433 38.383 43.9433C38.0426 43.9433 37.5319 43.8865 36.7943 43.7731C36.0567 43.6596 35.2057 43.3759 34.1277 42.9787C33.1064 42.5248 31.9149 41.9007 30.6099 41.0496C29.305 40.1986 27.8865 39.0071 26.4113 37.4752C25.2199 36.2837 24.2553 35.2057 23.461 34.1277C22.6667 33.0496 22.0426 32.0851 21.5887 31.1773C21.1348 30.2695 20.7376 29.4752 20.5106 28.7376C20.3404 28 20.1702 27.3759 20.1135 26.8085C20 26.2979 20 25.844 20 25.5603C20 25.2766 20 25.1064 20 25.0496C20.0567 24.8227 20.1135 24.5957 20.227 24.3121C20.3404 24.0851 20.5106 23.8582 20.6809 23.6879L24.0851 20.2837C24.3121 20.1135 24.5957 20 24.8794 20C25.1064 20 25.2766 20.0567 25.4468 20.1702C25.617 20.2837 25.7872 20.4539 25.9007 20.6241L28.6241 25.7872C28.7943 26.0709 28.7943 26.3546 28.7376 26.695C28.6809 27.0355 28.5106 27.2624 28.2837 27.4894L27.0355 28.7376C26.9787 28.7943 26.9787 28.8511 26.922 28.9078C26.922 28.9645 26.8652 29.0213 26.8652 29.078C26.922 29.4184 27.0922 29.8156 27.3191 30.2695C27.5461 30.6667 27.8298 31.1773 28.2837 31.7447C28.6809 32.3121 29.305 32.9929 30.0993 33.7872C30.8369 34.5816 31.5177 35.1489 32.1418 35.6028C32.7092 36.0567 33.2199 36.3404 33.617 36.5674C34.0142 36.7943 34.2979 36.9078 34.5248 36.9078L34.8652 36.9645C34.922 36.9645 34.9787 36.9645 35.0355 36.9078C35.0922 36.9078 35.1489 36.8511 35.2057 36.7943L36.6809 35.3191C36.9645 35.0355 37.3617 34.922 37.7589 34.922C38.0426 34.922 38.2695 34.9787 38.4397 35.0922L43.3191 37.9858C43.7163 38.3262 43.8865 38.5532 44 38.8936Z" fill="white"/>
</g>
<defs>
<clipPath id="clip0">
<rect width="24" height="24" fill="white" transform="translate(20 20)"/>
</clipPath>
</defs>
</svg>
