<svg width="1118" height="923" viewBox="0 0 1118 923" fill="none" xmlns="http://www.w3.org/2000/svg">
<path d="M1007.33 628.736L853.837 751.087L811.779 583.393L1007.33 628.736Z" stroke="white" stroke-opacity="0.7" stroke-width="2"/>
<path d="M729.256 773.268L744.452 875.165L657.199 850.124L729.256 773.268Z" stroke="white" stroke-opacity="0.7" stroke-width="2"/>
<path d="M958.674 103.777L687.854 681.806L463.037 226.86L958.674 103.777Z" stroke="white" stroke-opacity="0.7" stroke-width="2"/>
<g filter="url(#filter0_f)">
<path d="M800.674 54.2333L691.188 683.101L354.769 303.179L800.674 54.2333Z" stroke="url(#paint0_linear)" stroke-opacity="0.25"/>
</g>
<path d="M131.305 921.285L687.855 681.806L165.532 517.159L131.305 921.285Z" stroke="url(#paint1_linear)" stroke-opacity="0.7" stroke-width="2"/>
<path d="M483.319 44.9824L471.103 144.124L400.553 107.458L483.319 44.9824Z" stroke="white" stroke-opacity="0.7" stroke-width="2"/>
<defs>
<filter id="filter0_f" x="348.983" y="0.897461" width="718.971" height="718.396" filterUnits="userSpaceOnUse" color-interpolation-filters="sRGB">
<feFlood flood-opacity="0" result="BackgroundImageFix"/>
<feBlend mode="normal" in="SourceGraphic" in2="BackgroundImageFix" result="shape"/>
<feGaussianBlur stdDeviation="2.5" result="effect1_foregroundBlur"/>
</filter>
<linearGradient id="paint0_linear" x1="698.3" y1="675.17" x2="509.429" y2="182.211" gradientUnits="userSpaceOnUse">
<stop stop-color="white"/>
<stop offset="1" stop-color="white" stop-opacity="0"/>
</linearGradient>
<linearGradient id="paint1_linear" x1="693.576" y1="680.909" x2="513.564" y2="745.978" gradientUnits="userSpaceOnUse">
<stop stop-color="white"/>
<stop offset="1" stop-color="white" stop-opacity="0"/>
</linearGradient>
</defs>
</svg>
