<svg width="353" height="540" viewBox="0 0 353 540" fill="none" xmlns="http://www.w3.org/2000/svg">
<path d="M272.434 87.2475L254.13 9.15834L317.461 17.2094L272.434 87.2475Z" stroke="white" stroke-opacity="0.7" stroke-width="2"/>
<path d="M126.39 451.966L143.161 530.399L80.0001 521.108L126.39 451.966Z" stroke="white" stroke-opacity="0.7" stroke-width="2"/>
<path fill-rule="evenodd" clip-rule="evenodd" d="M273.977 353.166C272.981 352.17 270.135 353.024 264.443 351.459C258.752 349.894 252.918 350.89 252.064 352.313C251.068 353.736 258.325 359 261.028 359.427C263.732 359.854 265.439 363.696 269.139 363.554C272.838 363.554 274.688 360.566 274.688 360.566L273.977 353.166Z" fill="#3C3C6D"/>
<path fill-rule="evenodd" clip-rule="evenodd" d="M113.9 405.956C113.9 405.956 124.856 408.518 128.413 408.518C131.971 408.518 134.959 411.079 132.824 413.498C130.548 415.917 126.564 417.909 121.583 418.193C116.603 418.478 109.631 419.047 106.643 418.62C104.793 415.347 104.651 408.518 104.651 408.518L113.9 405.956Z" fill="#3C3C6D"/>
<path fill-rule="evenodd" clip-rule="evenodd" d="M244.238 366.684C244.238 366.684 233.281 369.245 229.724 369.245C226.167 369.245 223.179 371.807 225.313 374.225C227.59 376.644 231.574 378.636 236.554 378.921C241.534 379.206 248.506 379.775 251.495 379.348C253.344 376.075 253.487 369.245 253.487 369.245L244.238 366.684Z" fill="#3C3C6D"/>
<path fill-rule="evenodd" clip-rule="evenodd" d="M83.4495 397.846C84.4456 396.85 87.2914 397.703 92.983 396.138C98.6746 394.573 104.509 395.569 105.505 396.992C106.501 398.415 99.2438 403.68 96.5403 404.106C93.8367 404.533 92.1292 408.375 88.4297 408.233C84.7301 408.233 82.8804 405.245 82.8804 405.245L83.4495 397.846Z" fill="#3C3C6D"/>
<path fill-rule="evenodd" clip-rule="evenodd" d="M81.3153 418.478C81.3153 418.763 81.173 419.047 80.8884 419.332C80.4615 419.759 80.0346 420.043 79.3232 420.185C78.4694 420.47 77.3311 420.47 76.3351 420.185L63.8135 416.913C61.6792 416.344 59.4025 417.055 58.8334 418.336L56.1298 426.019C55.8453 427.015 54.2801 427.585 52.7149 427.585C52.5726 427.585 52.288 427.585 52.1457 427.585C51.0074 427.442 50.1536 427.158 49.5845 426.588C49.2999 426.304 49.1576 426.019 49.1576 425.735C49.1576 425.592 49.1576 425.45 49.1576 425.308L50.1536 419.901L50.5805 417.482C50.8651 416.201 48.873 415.063 46.5964 415.205L32.7942 416.059C32.6519 416.059 32.5096 416.059 32.3673 416.059C31.7982 416.059 31.229 415.917 30.8021 415.774C29.8061 415.49 29.0947 414.921 28.9524 414.209C28.6678 413.071 29.8061 412.075 31.6559 411.933L45.1735 410.367C45.7426 410.367 46.3118 410.083 46.7387 409.94C47.877 409.371 48.4462 408.375 47.7347 407.522L42.8968 401.545L41.9008 400.265C41.7585 399.98 41.6162 399.838 41.6162 399.553V399.411C41.6162 398.7 42.3277 397.988 43.466 397.561C45.1735 397.134 47.1655 397.419 48.1616 398.415L54.9915 405.387C56.1298 406.526 58.8334 406.81 60.3985 405.956L70.5012 400.549C71.2126 400.122 72.0664 399.98 72.9201 399.98C73.7739 399.98 74.7699 400.122 75.4813 400.549C76.1928 400.976 76.6197 401.545 76.4774 402.115C76.4774 402.541 76.1928 402.968 75.6236 403.395L74.7699 403.964L66.3747 409.371C64.8096 410.367 65.2364 411.79 67.2285 412.502C67.2285 412.502 67.2285 412.502 67.3708 412.502L79.3232 416.486C80.7461 417.197 81.3153 417.766 81.3153 418.478Z" fill="#3C3C6D"/>
<path fill-rule="evenodd" clip-rule="evenodd" d="M47.0233 410.367L42.1855 404.391C42.0432 404.106 41.9009 403.964 41.9009 403.68V400.122C41.9009 400.407 42.0432 400.549 42.1855 400.834L43.1815 402.114L48.0194 408.091C48.7308 408.802 48.1617 409.798 47.0233 410.367Z" fill="#3C3C6D"/>
<path fill-rule="evenodd" clip-rule="evenodd" d="M50.8652 417.766L50.4383 420.185C49.7269 419.474 48.4463 419.047 47.0234 419.189L33.2212 420.043C33.0789 420.043 32.9366 420.043 32.7943 420.043C31.0868 420.043 29.5216 419.332 29.2371 418.336V414.636C29.3794 415.347 30.0908 415.774 31.0868 416.201C31.5137 416.343 32.0829 416.486 32.652 416.486C32.7943 416.486 32.9366 416.486 33.0789 416.486L46.8811 415.632C49.1577 415.347 51.1498 416.486 50.8652 417.766Z" fill="#3C3C6D"/>
<path fill-rule="evenodd" clip-rule="evenodd" d="M81.3154 418.478V422.177C81.3154 422.462 81.1731 422.746 80.8885 423.031C80.0347 424.027 78.0427 424.454 76.3352 424.027L63.8136 420.754C61.6793 420.185 59.4026 420.897 58.8335 422.177L56.1299 429.861C55.8454 430.857 54.2802 431.426 52.715 431.426C52.5727 431.426 52.2881 431.426 52.1458 431.426C50.4383 431.284 49.3 430.572 49.1577 429.576C49.1577 429.576 49.1577 429.434 49.1577 429.149V425.877C49.1577 426.161 49.4423 426.446 49.5846 426.731C50.1537 427.3 51.0075 427.584 52.1458 427.727C52.2881 427.727 52.5727 427.727 52.715 427.727C54.4225 427.727 55.8454 427.015 56.1299 426.161L58.8335 418.478C59.2603 417.197 61.6793 416.486 63.8136 417.055L76.3352 420.327C77.3312 420.612 78.4696 420.612 79.3233 420.327C80.0347 420.185 80.4616 419.901 80.8885 419.474C81.3154 419.189 81.3154 418.905 81.3154 418.478Z" fill="#3C3C6D"/>
<path fill-rule="evenodd" clip-rule="evenodd" d="M76.9042 402.541V406.099C76.9042 406.525 76.6196 407.095 76.0504 407.521L67.6553 412.786C65.8055 412.075 65.3787 410.652 66.8016 409.656L75.1967 404.249L76.0504 403.68C76.4773 403.395 76.9042 402.968 76.9042 402.541Z" fill="#3C3C6D"/>
<path d="M81.1425 425.166C81.2583 423.441 79.9536 421.948 78.2286 421.833C76.5035 421.717 75.0113 423.022 74.8955 424.747C74.7798 426.472 76.0845 427.964 77.8095 428.08C79.5346 428.195 81.0268 426.891 81.1425 425.166Z" fill="#3C3C6D"/>
<path d="M56.0581 433.076C56.1738 431.35 54.8691 429.858 53.1441 429.743C51.419 429.627 49.9268 430.931 49.8111 432.657C49.6954 434.382 51 435.874 52.7251 435.99C54.4501 436.105 55.9424 434.801 56.0581 433.076Z" fill="#3C3C6D"/>
<path d="M35.4829 421.688C35.5986 419.963 34.294 418.471 32.5689 418.355C30.8438 418.239 29.3516 419.544 29.2359 421.269C29.1202 422.994 30.4248 424.486 32.1499 424.602C33.8749 424.718 35.3672 423.413 35.4829 421.688Z" fill="#3C3C6D"/>
<path d="M46.9383 408.482C47.054 406.757 45.7494 405.265 44.0243 405.149C42.2993 405.033 40.807 406.338 40.6913 408.063C40.5755 409.788 41.8801 411.28 43.6052 411.396C45.3303 411.512 46.8225 410.207 46.9383 408.482Z" fill="#3C3C6D"/>
<path d="M77.9312 409.967C78.0469 408.242 76.7423 406.75 75.0173 406.634C73.2922 406.518 71.7999 407.823 71.6842 409.548C71.5684 411.273 72.873 412.765 74.5981 412.881C76.3232 412.997 77.8154 411.692 77.9312 409.967Z" fill="#3C3C6D"/>
<path fill-rule="evenodd" clip-rule="evenodd" d="M60.3987 414.636C60.3987 418.762 51.5767 417.909 51.5767 414.636V385.751H60.3987V414.636Z" fill="#56548C"/>
<path fill-rule="evenodd" clip-rule="evenodd" d="M49.5844 359.57C49.5844 359.57 74.9121 350.89 85.7262 352.17C96.3979 353.451 94.1213 399.838 94.1213 399.838C94.1213 399.838 88.4297 400.834 82.7381 399.838C80.3191 386.889 76.4773 372.803 76.4773 372.803C76.4773 372.803 53.1416 379.49 49.7267 376.218C46.1694 372.803 49.5844 359.57 49.5844 359.57Z" fill="#3C3C6D"/>
<path fill-rule="evenodd" clip-rule="evenodd" d="M49.5844 359.57C49.5844 359.57 74.9121 350.89 85.7262 352.17C96.3979 353.451 94.1213 399.838 94.1213 399.838C93.2676 401.545 86.2953 405.245 82.7381 399.838C80.3191 386.889 76.4773 372.803 76.4773 372.803C76.4773 372.803 53.1416 379.49 49.7267 376.218C46.1694 372.803 49.5844 359.57 49.5844 359.57Z" fill="#3C3C6D"/>
<path fill-rule="evenodd" clip-rule="evenodd" d="M90.9913 385.609C88.7146 387.743 61.8218 402.683 56.6993 405.387C56.1301 405.672 55.2764 405.814 54.7072 405.387C51.8614 403.537 50.4385 397.276 55.8456 393.292C57.4108 392.154 86.1534 372.802 90.7067 374.083H90.849C90.9913 374.083 91.1336 374.225 91.2759 374.368C93.6948 376.075 93.4102 383.332 90.9913 385.609Z" fill="#56548C"/>
<path fill-rule="evenodd" clip-rule="evenodd" d="M90.8487 373.941C86.2954 372.66 57.5528 392.012 55.9876 393.15C50.5805 397.134 52.0034 403.537 54.8492 405.245L22.9762 386.747L21.8378 386.178C19.2766 384.044 18.2806 378.21 23.5453 374.368C25.1105 373.23 54.5647 353.451 58.5488 355.301L58.8334 355.443L90.8487 373.941Z" fill="#3C3C6D"/>
<path fill-rule="evenodd" clip-rule="evenodd" d="M161.709 242.749C160.856 235.919 157.725 194.797 151.607 190.102C151.607 190.102 147.48 185.691 145.631 187.54L115.75 204.757L117.172 223.398L130.121 265.942L159.148 249.152C160.998 248.867 162.136 246.306 161.709 242.749Z" fill="#3C3C6D"/>
<path fill-rule="evenodd" clip-rule="evenodd" d="M121.441 207.603C127.417 212.299 130.69 253.421 131.543 260.251C132.397 267.081 127.559 269.784 123.148 262.812C118.737 255.84 114.753 216.71 114.753 208.457C114.611 200.346 121.441 207.603 121.441 207.603Z" fill="#46467C"/>
<path fill-rule="evenodd" clip-rule="evenodd" d="M169.962 185.121C161.567 184.694 147.338 194.655 140.935 202.765C134.532 210.876 138.516 219.698 140.65 228.377C142.785 237.057 139.512 258.828 139.512 260.962C149.33 267.65 173.235 268.503 175.938 258.828C177.077 248.156 169.251 236.915 169.251 230.654C169.535 216.994 180.919 189.105 169.962 185.121Z" fill="#F9FBFC"/>
<path fill-rule="evenodd" clip-rule="evenodd" d="M162.563 186.971C166.974 205.896 165.551 226.386 164.555 234.354C163.559 242.322 163.417 269.073 163.417 269.073C169.82 265.8 172.95 259.824 173.093 256.978C173.235 254.275 170.674 231.081 170.958 229.232C171.1 227.382 174.373 209.453 174.089 199.777C173.804 190.102 170.104 188.679 170.104 188.679L161.852 184.979L162.563 186.971Z" fill="#DFAFF6"/>
<path fill-rule="evenodd" clip-rule="evenodd" d="M163.274 191.809L164.413 192.236C164.27 192.805 164.128 193.374 164.128 194.085C164.128 193.943 164.128 193.801 163.986 193.801L163.274 191.809Z" fill="#FBD15B"/>
<path fill-rule="evenodd" clip-rule="evenodd" d="M150.469 188.963C156.872 202.765 153.741 215.429 153.457 226.67C153.172 238.053 147.338 269.784 147.338 269.784C136.097 266.938 134.674 259.397 132.54 255.555C127.275 229.089 133.963 207.603 138.801 199.635C142.643 193.374 150.469 188.963 150.469 188.963Z" fill="#DFAFF6"/>
<path fill-rule="evenodd" clip-rule="evenodd" d="M143.354 206.465C132.967 203.904 138.231 228.52 143.354 238.196C145.915 243.176 148.049 246.022 151.18 247.587C152.176 240.9 153.172 234.07 153.456 229.374C150.753 220.552 148.761 209.169 143.354 206.465Z" fill="#C58AE1"/>
<path d="M100.382 296.108L106.216 291.982H108.208L107.354 293.262L101.094 297.531L100.382 296.108Z" fill="#3C3C6D"/>
<path fill-rule="evenodd" clip-rule="evenodd" d="M91.1332 276.756C90.2794 269.926 87.149 228.804 81.0305 224.109C81.0305 224.109 76.9041 219.698 75.0543 221.547L45.1733 238.907L46.5962 257.547L59.5447 300.092L88.5719 283.301C90.4217 282.875 91.56 280.456 91.1332 276.756Z" fill="#3C3C6D"/>
<path fill-rule="evenodd" clip-rule="evenodd" d="M50.7226 241.753C56.6988 246.448 59.9714 287.57 60.8252 294.4C61.6789 301.23 56.841 303.933 52.43 296.961C48.019 289.989 44.0349 250.859 44.0349 242.606C43.8926 234.496 50.7226 241.753 50.7226 241.753Z" fill="#46467C"/>
<path fill-rule="evenodd" clip-rule="evenodd" d="M278.957 138.735C271.984 142.15 259.178 170.323 261.313 177.011C263.447 183.556 269.423 179.999 273.55 174.165C279.099 166.197 284.79 148.837 284.079 144.426C283.368 140.015 278.957 138.735 278.957 138.735Z" fill="#3C3C6D"/>
<path fill-rule="evenodd" clip-rule="evenodd" d="M280.664 284.867C280.664 284.867 269.85 297.389 267.004 298.242C264.158 299.096 266.72 302.084 268.996 302.227C271.273 302.369 278.245 302.084 280.237 300.092C282.229 298.1 288.063 295.966 288.063 295.966C288.063 289.42 286.498 285.294 286.498 285.294L280.664 284.867Z" fill="#56548C"/>
<path fill-rule="evenodd" clip-rule="evenodd" d="M276.822 195.935C276.822 195.935 275.399 223.824 275.968 232.931C276.538 242.037 278.672 287.428 278.672 287.428C284.506 288.709 288.348 287.428 288.348 287.428C290.34 252.709 290.197 242.607 290.767 237.484C291.336 232.362 292.047 217.279 292.047 217.279C296.174 208.741 291.905 197.5 289.771 194.797C287.778 192.093 276.822 195.935 276.822 195.935Z" fill="#3C3C6D"/>
<path fill-rule="evenodd" clip-rule="evenodd" d="M298.166 296.82C297.739 301.942 296.032 307.918 295.463 310.906C294.894 313.894 296.032 315.744 296.743 316.74C297.455 317.736 305.992 314.891 307.273 311.618C308.411 308.345 305.992 305.357 305.85 299.239C303.146 294.116 298.166 296.82 298.166 296.82Z" fill="#56548C"/>
<path fill-rule="evenodd" clip-rule="evenodd" d="M285.787 198.07C285.787 198.07 287.21 223.398 289.629 231.935C291.906 240.33 294.04 265.089 295.036 269.5C296.032 273.769 297.313 300.519 297.313 300.519C302.72 301.8 306.846 300.519 306.846 300.519C306.704 275.476 307.273 255.271 306.846 248.441C306.419 241.611 306.988 221.263 306.988 221.263C309.265 211.872 309.407 210.592 306.988 204.331C304.712 197.928 294.609 192.948 285.787 198.07Z" fill="#3C3C6D"/>
<path fill-rule="evenodd" clip-rule="evenodd" d="M280.948 137.881C288.774 137.597 306.703 141.581 312.679 149.122C318.655 156.664 309.976 170.039 307.984 178.149C305.992 186.26 308.98 206.465 308.98 208.315C299.731 214.433 277.533 215.145 275.114 206.038C274.118 196.078 276.395 184.41 276.537 178.576C275.968 166.197 270.561 141.581 280.948 137.881Z" fill="#F9FBFC"/>
<path fill-rule="evenodd" clip-rule="evenodd" d="M287.636 139.731C282.656 157.233 281.518 177.011 281.945 184.41C282.372 191.809 282.656 215.999 282.656 215.999C276.822 212.868 274.261 207.319 274.261 204.758C274.261 202.196 276.395 180.426 276.395 178.576C276.395 176.869 273.407 156.806 274.261 147.841C275.115 138.877 280.949 137.881 280.949 137.881H288.49L287.636 139.731Z" fill="#3C3C6D"/>
<path fill-rule="evenodd" clip-rule="evenodd" d="M282.799 118.529C279.384 119.668 282.799 127.351 282.799 127.351V118.529Z" fill="#3C3C6D"/>
<path fill-rule="evenodd" clip-rule="evenodd" d="M282.514 119.526C282.514 119.526 281.233 124.079 281.66 127.636C282.087 131.193 282.514 138.166 285.644 140.442C288.775 142.719 293.328 140.015 296.316 137.596C299.304 135.035 302.435 130.34 302.577 124.79C302.577 119.099 300.443 112.269 292.332 112.553C284.079 112.98 282.514 119.526 282.514 119.526Z" fill="#FFC8AF"/>
<path fill-rule="evenodd" clip-rule="evenodd" d="M298.308 132.616C298.308 132.616 297.739 139.873 299.589 142.577C299.731 144.427 294.609 151.968 289.486 150.687C286.498 149.976 286.925 146.419 286.925 146.419C287.209 143.715 286.925 137.454 286.925 137.454L298.308 132.616Z" fill="#FFC8AF"/>
<path fill-rule="evenodd" clip-rule="evenodd" d="M280.522 113.549C279.383 117.675 280.664 119.241 284.221 120.379C287.779 121.517 297.17 118.814 297.17 118.814C296.601 123.225 297.881 125.644 297.881 125.644C299.446 121.233 300.869 123.509 301.012 127.067C301.154 130.624 299.162 130.482 299.162 130.482C299.304 133.47 300.3 134.466 300.3 134.466C304.142 131.905 309.264 114.403 302.435 113.976C302.292 107.857 283.083 104.585 280.522 113.549Z" fill="#3C3C6D"/>
<path fill-rule="evenodd" clip-rule="evenodd" d="M300.016 141.438C293.897 154.244 290.767 165.77 291.052 176.299C291.194 186.829 293.47 217.421 293.47 217.421C304 214.86 311.114 211.872 313.107 208.315C308.553 196.505 306.988 188.536 307.842 185.121C308.696 181.706 316.664 156.094 312.537 148.41C308.553 144.284 300.016 141.438 300.016 141.438Z" fill="#3C3C6D"/>
<path fill-rule="evenodd" clip-rule="evenodd" d="M298.593 139.731C298.593 140.016 299.874 141.438 299.874 141.438C299.874 141.438 297.312 147.13 296.316 149.691C295.32 152.253 292.901 154.387 292.901 154.387L289.486 150.687C294.182 148.126 298.593 139.731 298.593 139.731Z" fill="#F9FBFC"/>
<path fill-rule="evenodd" clip-rule="evenodd" d="M287.352 141.581C287.636 141.154 288.348 148.695 289.486 150.687C287.352 152.679 286.071 153.248 286.071 153.248C286.071 153.248 284.791 144.711 287.352 141.581Z" fill="#F9FBFC"/>
<path fill-rule="evenodd" clip-rule="evenodd" d="M289.913 150.403L287.067 152.252C287.779 154.529 287.779 156.094 287.779 156.094H290.482L292.474 153.248L289.913 150.403Z" fill="#EC827D"/>
<path fill-rule="evenodd" clip-rule="evenodd" d="M287.636 156.094C283.652 177.011 284.079 189.959 284.079 189.959L286.071 195.793L290.482 189.39C290.482 189.39 287.209 164.774 290.34 156.236C288.632 154.956 287.636 156.094 287.636 156.094Z" fill="#EC827D"/>
<path fill-rule="evenodd" clip-rule="evenodd" d="M99.2439 219.129C90.8488 218.702 72.4933 224.536 66.0903 232.647C59.6872 240.757 67.7978 253.706 69.9321 262.385C72.0665 271.065 68.7938 292.835 68.7938 294.97C78.6118 301.657 102.517 302.511 105.22 292.835C106.358 282.164 98.5325 270.923 98.5325 264.662C98.9594 251.144 110.343 223.113 99.2439 219.129Z" fill="#F9FBFC"/>
<path fill-rule="evenodd" clip-rule="evenodd" d="M91.987 220.978C96.3981 239.903 94.9751 260.393 93.9791 268.361C92.9831 276.329 92.8408 303.08 92.8408 303.08C99.2439 299.807 102.374 293.831 102.517 290.985C102.659 288.282 100.098 265.088 100.382 263.239C100.524 261.389 106.216 239.476 105.932 229.8C105.647 220.125 99.2439 218.986 99.2439 218.986H91.1333L91.987 220.978Z" fill="#56548C"/>
<path fill-rule="evenodd" clip-rule="evenodd" d="M99.5283 199.493C99.5283 199.493 100.24 204.331 100.382 208.172C100.524 214.433 99.386 219.556 96.1134 221.975C92.6984 224.393 86.4376 222.828 83.3072 220.125C80.1768 217.421 78.1848 211.018 78.0425 205.042C78.0425 198.923 80.4614 191.524 89.1411 191.951C97.9631 192.378 99.5283 199.493 99.5283 199.493Z" fill="#FFC8AF"/>
<path fill-rule="evenodd" clip-rule="evenodd" d="M80.4615 213.295C80.4615 213.295 81.173 221.121 79.0386 223.967C78.8963 225.959 84.3034 234.069 89.8527 232.646C93.1254 231.793 92.6985 228.093 92.6985 228.093C92.4139 225.247 92.6985 218.417 92.6985 218.417L80.4615 213.295Z" fill="#FFC8AF"/>
<path fill-rule="evenodd" clip-rule="evenodd" d="M98.8167 193.232C93.9788 186.402 75.9079 192.094 77.4731 198.497C70.5009 200.773 75.0542 218.844 83.307 220.125C83.307 220.125 87.1489 216.283 86.8643 215.287C86.0106 215.714 85.0145 215.572 84.5877 213.437C83.7339 209.738 86.1528 207.319 88.8564 211.445C88.8564 211.445 89.2832 208.172 87.4335 203.619C87.4335 203.619 96.8246 202.765 99.8127 200.062C101.378 198.781 101.52 197.074 98.8167 193.232Z" fill="#3C3C6D"/>
<path fill-rule="evenodd" clip-rule="evenodd" d="M78.754 222.686C85.1571 236.488 83.165 249.295 82.8804 260.678C82.5959 272.061 76.7619 303.792 76.7619 303.792C65.521 300.946 64.0981 293.405 61.9637 289.563C56.699 263.097 60.114 238.907 65.0941 230.939C68.936 224.821 78.754 222.686 78.754 222.686Z" fill="#56548C"/>
<path fill-rule="evenodd" clip-rule="evenodd" d="M82.7382 263.666C79.4655 254.275 76.6197 241.326 71.0704 238.623C60.6832 236.061 63.8136 262.1 68.936 271.919C72.0664 277.895 75.1968 281.167 80.3193 282.59C81.4576 275.903 82.4536 268.788 82.7382 263.666Z" fill="#3C3C6D"/>
<path fill-rule="evenodd" clip-rule="evenodd" d="M80.1768 220.979C80.1768 221.263 78.7539 222.828 78.7539 222.828C78.7539 222.828 81.5997 229.089 82.5958 231.793C83.5918 234.496 86.2953 236.773 86.2953 236.773L89.9949 232.789C84.8724 230.085 80.1768 220.979 80.1768 220.979Z" fill="#F9FBFC"/>
<path fill-rule="evenodd" clip-rule="evenodd" d="M92.2717 222.971C91.9871 222.544 91.1334 230.655 89.8528 232.789C92.1294 235.066 93.5523 235.635 93.5523 235.635C93.5523 235.635 95.1175 226.528 92.2717 222.971Z" fill="#F9FBFC"/>
<path d="M78.1846 294.258L171.1 347.902L286.071 281.452L193.155 227.809L78.1846 294.258Z" fill="#83C9FF"/>
<path d="M85.157 295.824C83.5918 296.677 81.0306 296.677 79.4654 295.824C77.9002 294.97 77.9002 293.405 79.4654 292.551C81.0306 291.697 83.5918 291.697 85.157 292.551C86.7222 293.547 86.7222 294.97 85.157 295.824Z" fill="#83C9FF"/>
<path d="M284.79 283.16C283.225 284.014 280.664 284.014 279.099 283.16C277.534 282.306 277.534 280.741 279.099 279.887C280.664 279.033 283.225 279.033 284.79 279.887C286.356 280.741 286.356 282.164 284.79 283.16Z" fill="#83C9FF"/>
<path d="M284.079 370.384C282.94 371.095 281.091 371.095 279.952 370.384C278.814 369.672 278.814 368.676 279.952 367.965C281.091 367.254 282.94 367.254 284.079 367.965C285.217 368.676 285.217 369.672 284.079 370.384Z" fill="#878CF0"/>
<path d="M277.96 281.452L279.099 369.103H284.932L286.071 281.452H277.96Z" fill="#878CF0"/>
<path d="M173.661 346.906C172.096 347.759 169.535 347.759 167.97 346.906C166.405 346.052 166.405 344.487 167.97 343.633C169.535 342.779 172.096 342.779 173.661 343.633C175.227 344.629 175.227 346.052 173.661 346.906Z" fill="#83C9FF"/>
<path d="M172.808 434.272C171.67 434.984 169.82 434.984 168.682 434.272C167.543 433.561 167.543 432.565 168.682 431.853C169.82 431.142 171.67 431.142 172.808 431.853C173.946 432.423 173.946 433.561 172.808 434.272Z" fill="#878CF0"/>
<path d="M166.831 345.341L167.827 432.991H173.661L174.8 345.341H166.831Z" fill="#878CF0"/>
<path d="M195.859 231.793C194.293 232.647 191.732 232.647 190.167 231.793C188.602 230.939 188.602 229.374 190.167 228.52C191.732 227.666 194.293 227.666 195.859 228.52C197.424 229.516 197.424 230.939 195.859 231.793Z" fill="#83C9FF"/>
<path d="M195.147 319.159C194.009 319.871 192.159 319.871 191.021 319.159C189.882 318.448 189.882 317.452 191.021 316.74C192.159 316.029 194.009 316.029 195.147 316.74C196.285 317.309 196.285 318.448 195.147 319.159Z" fill="#83C9FF"/>
<path d="M189.028 230.228L190.167 317.879H196.001L196.997 230.228H189.028Z" fill="#83C9FF"/>
<path d="M315.952 261.247C315.952 271.35 309.834 280.883 297.454 287.998L182.484 354.305C155.022 370.099 107.07 368.107 75.3389 349.894C58.4063 340.076 49.4421 327.554 49.1575 315.602V320.867C49.4421 332.819 58.4063 345.341 75.3389 355.159C107.07 373.514 155.022 375.506 182.484 359.57L297.454 293.262C309.834 286.148 315.952 276.472 315.952 266.37V261.247Z" fill="#A8B0F4"/>
<path d="M75.4812 350.036C107.212 368.392 155.164 370.384 182.626 354.447L297.597 288.14C309.976 281.025 316.094 271.35 316.094 261.389C316.094 249.152 307.272 236.346 289.913 226.244C258.182 207.888 210.23 205.896 182.768 221.833L67.7975 288.14C54.9914 295.539 49.0152 305.499 49.2997 315.744C49.5843 327.697 58.4063 340.218 75.4812 350.036Z" fill="#878CF0"/>
<path fill-rule="evenodd" clip-rule="evenodd" d="M280.949 280.599L263.589 270.638L234.42 287.571L232.143 287.856V288.425C232.143 288.709 232.285 288.852 232.428 288.994L250.072 299.239C250.641 299.523 251.495 299.523 252.206 299.097L281.518 282.164C281.945 281.879 282.087 281.595 282.087 281.453V280.456L280.949 280.599Z" fill="#3C3C6D"/>
<path fill-rule="evenodd" clip-rule="evenodd" d="M263.589 269.642L232.143 287.855L224.744 264.52C224.459 263.808 224.744 262.955 225.313 262.67L255.052 245.453C255.621 245.168 256.19 245.453 256.474 246.164L263.589 269.642Z" fill="#56548C"/>
<path fill-rule="evenodd" clip-rule="evenodd" d="M261.881 268.789L232.854 285.579L226.167 264.947L255.621 248.014L261.881 268.789Z" fill="#BEE1F4"/>
<path fill-rule="evenodd" clip-rule="evenodd" d="M281.375 281.31L252.063 298.243C251.494 298.67 250.498 298.67 249.929 298.385L232 287.998L263.447 269.785L281.375 280.172C282.087 280.314 282.087 280.884 281.375 281.31Z" fill="#56548C"/>
<path fill-rule="evenodd" clip-rule="evenodd" d="M281.375 281.31L252.063 298.243C251.494 298.67 250.498 298.67 249.929 298.385L232 287.998L263.447 269.785L281.375 280.172C282.087 280.314 282.087 280.884 281.375 281.31Z" fill="#56548C"/>
<path fill-rule="evenodd" clip-rule="evenodd" d="M272.269 276.472L243.811 292.836L235.273 287.998L263.732 271.492L272.269 276.472Z" fill="#112B46"/>
<path fill-rule="evenodd" clip-rule="evenodd" d="M268.285 286.717L261.455 290.701C261.028 290.986 260.459 290.986 260.174 290.701L256.901 288.852C256.617 288.709 256.617 288.282 257.044 288.14L263.874 284.156C264.301 283.871 264.87 283.871 265.154 284.156L268.427 286.006C268.712 286.148 268.712 286.433 268.285 286.717Z" fill="#3C3C6D"/>
<path d="M69.3625 331.681C70.074 330.258 83.5916 304.93 83.5916 304.93L103.655 311.475C103.655 311.475 91.8444 342.637 90.2792 341.925C88.714 341.356 69.3625 331.681 69.3625 331.681Z" fill="#F9FBFC"/>
<path d="M111.623 278.037L128.129 265.515L158.01 268.219L140.793 281.025L111.623 278.037Z" fill="#F9FBFC"/>
<path d="M131.686 326.559H131.401C131.401 326.559 131.259 326.559 131.259 326.416L117.457 318.448C116.888 318.164 115.892 318.164 115.322 318.59L96.6824 329.262C96.5402 329.262 96.5402 329.404 96.3979 329.404H96.1133V329.831C96.1133 329.974 96.2556 330.258 96.5402 330.401L110.342 338.369C110.911 338.653 111.908 338.653 112.477 338.226L131.117 327.555C131.401 327.412 131.686 327.128 131.686 326.843V326.559Z" fill="#A5B7C6"/>
<path d="M110.484 338.084L96.6822 330.116C96.113 329.831 96.2553 329.262 96.8244 328.835L115.465 318.163C116.034 317.737 117.03 317.737 117.599 318.021L131.401 325.989C131.97 326.274 131.828 326.843 131.259 327.27L112.619 337.942C112.05 338.369 111.053 338.369 110.484 338.084Z" fill="#56548C"/>
<path d="M111.907 337.23L98.2476 329.404L116.745 318.733L130.263 326.559L111.907 337.23Z" fill="#C58AE1"/>
<path fill-rule="evenodd" clip-rule="evenodd" d="M101.663 220.125C109.489 223.682 107.639 244.456 113.615 249.721C117.03 252.709 133.678 256.551 138.231 256.551C140.081 260.251 136.809 264.377 136.809 264.377C108.35 262.1 106.358 261.389 99.8131 250.006C94.9752 241.041 91.2756 217.706 101.663 220.125Z" fill="#56548C"/>
<path d="M137.52 257.832C137.52 257.832 145.204 256.979 146.626 257.548C148.049 258.259 151.322 260.251 152.318 261.105C153.172 262.101 156.16 264.52 153.741 265.089C153.03 265.231 148.761 263.951 147.623 263.524C146.484 262.955 144.35 262.386 144.35 262.955C144.35 263.524 149.757 264.947 149.045 266.085C148.334 267.223 147.053 266.37 143.212 265.089C139.37 263.808 135.67 263.239 135.67 263.239C134.816 260.394 135.67 258.686 137.52 257.832Z" fill="#FFC8AF"/>
<path d="M125.283 262.243L119.734 269.215C119.592 269.358 119.592 269.784 119.876 269.927C120.018 270.069 120.445 270.069 120.588 269.784L126.137 262.812C126.279 262.67 126.279 262.243 125.995 262.101C125.71 261.958 125.425 261.958 125.283 262.243Z" fill="#3C3C6D"/>
<path fill-rule="evenodd" clip-rule="evenodd" d="M115.038 265.801C117.457 267.081 121.583 266.227 121.583 266.797C121.583 267.223 120.73 268.646 119.022 268.646C117.315 268.504 115.038 265.801 115.038 265.801Z" fill="#FFC8AF"/>
<path fill-rule="evenodd" clip-rule="evenodd" d="M108.208 269.5C109.631 267.935 113.188 264.378 116.177 266.227C119.022 268.077 121.014 268.077 121.868 268.362C122.864 266.939 124.287 268.077 125.141 270.069C125.995 272.061 120.018 274.622 119.022 275.334C118.026 276.188 108.208 274.48 108.208 274.48V269.5Z" fill="#FFC8AF"/>
<path fill-rule="evenodd" clip-rule="evenodd" d="M71.0704 232.789C78.8964 236.631 81.173 260.82 87.1492 266.512C90.5642 269.784 104.082 267.223 108.635 267.223C110.485 271.349 107.924 276.187 107.924 276.187C81.8845 279.318 75.1968 278.606 68.6515 266.085C63.8136 256.267 60.6832 230.085 71.0704 232.789Z" fill="#56548C"/>
<path fill-rule="evenodd" clip-rule="evenodd" d="M290.198 173.169C289.486 170.608 287.921 168.189 285.787 166.766C285.217 166.339 284.506 166.055 283.937 165.77C283.652 165.628 283.368 165.486 283.083 165.486C282.799 165.486 282.372 165.343 282.087 165.486C281.945 165.628 281.945 165.77 282.087 165.912C282.372 166.482 282.941 166.908 283.51 167.193C284.506 167.762 284.933 168.616 285.217 169.612C284.221 168.616 283.368 167.62 282.229 166.766C281.091 166.055 279.81 165.486 278.53 165.059C277.961 164.916 277.392 164.632 276.822 164.774C276.111 164.916 275.826 165.486 276.253 165.912C276.68 166.339 277.249 166.624 277.818 166.908C278.53 167.335 279.099 167.762 279.81 168.331C280.095 168.616 280.38 168.901 280.664 169.185C280.806 169.47 280.949 169.897 281.233 170.039C280.522 169.754 279.81 169.327 279.099 169.043C278.53 168.758 277.818 168.616 277.249 168.189C276.68 167.905 276.253 167.478 275.684 167.193C275.399 167.051 275.115 166.908 274.83 167.051C274.688 167.193 274.546 167.478 274.546 167.62C274.546 167.905 274.688 168.047 274.83 168.331C275.115 168.901 275.542 169.185 276.111 169.47C276.538 169.754 276.965 170.039 277.392 170.323C277.961 170.75 278.53 171.035 278.957 171.462C279.241 171.604 279.526 171.889 279.668 172.173C279.81 172.316 280.095 172.742 280.38 172.885C279.241 172.316 278.245 171.604 277.249 171.035C276.822 170.75 276.395 170.466 276.111 170.181C275.684 169.754 275.257 169.47 274.688 169.47C274.546 169.47 274.403 169.47 274.261 169.47C274.119 169.612 274.119 169.754 274.119 169.897C274.119 170.039 274.261 170.181 274.403 170.323C274.973 171.177 275.684 172.031 276.538 172.742C277.249 173.312 278.245 174.308 279.099 174.45C277.818 174.165 276.68 173.596 275.684 172.742C275.257 172.316 274.688 171.889 274.119 171.746C273.977 171.746 273.692 171.746 273.55 171.889C273.407 172.031 273.55 172.316 273.692 172.458C274.403 173.596 275.399 175.019 276.68 175.588C277.392 175.873 277.961 176.442 278.672 176.869C279.384 177.296 280.095 177.723 280.806 178.149C282.514 179.145 284.506 180.141 286.356 180.711C286.925 180.853 287.494 180.995 288.063 180.853C288.632 180.853 288.917 180.711 289.344 180.284C290.055 179.572 290.625 178.719 290.909 177.723C291.194 176.584 291.051 175.304 290.767 174.165C290.482 174.165 290.34 173.596 290.198 173.169Z" fill="#FFC8AF"/>
<path fill-rule="evenodd" clip-rule="evenodd" d="M272.981 174.165C272.411 171.034 271.7 167.335 269.708 164.774C269.566 164.631 269.566 164.489 269.423 164.489C269.139 164.347 268.854 164.774 268.854 165.058C268.712 165.912 269.139 166.908 269.423 167.762C269.708 168.758 269.708 169.896 269.566 170.892C269.566 170.75 269.423 170.75 269.423 170.607C267.858 168.473 267.004 165.627 266.008 163.208C265.866 162.924 265.724 162.639 265.439 162.639C265.012 162.639 264.87 163.208 264.87 163.635C264.87 165.627 265.297 167.192 266.151 169.042C265.297 167.762 264.585 166.339 264.016 164.916C263.874 164.631 263.732 164.204 263.305 164.062C261.74 163.92 263.732 169.754 264.016 170.607C263.163 169.469 262.736 168.331 262.451 166.908C262.451 166.623 262.309 166.339 262.167 166.196C262.024 165.912 261.597 165.627 261.313 165.912C261.171 166.196 261.028 166.766 261.028 167.05C260.886 167.904 261.17 168.758 261.455 169.611C261.882 170.75 262.593 171.888 263.02 173.026C262.309 172.173 261.74 171.319 261.028 170.607C260.886 170.465 260.744 170.181 260.459 170.323C260.174 170.323 260.032 170.75 260.174 171.034C260.744 172.884 261.74 174.734 263.02 176.157C263.732 176.868 264.443 177.437 265.012 178.149C265.582 178.86 266.435 179.429 267.431 179.856C268.427 180.283 269.423 180.425 270.419 180.425C271.273 180.425 271.7 180.141 272.127 179.572C272.554 179.003 272.981 178.433 272.981 177.722C273.123 176.584 273.123 175.445 272.981 174.165Z" fill="#FFC8AF"/>
<path fill-rule="evenodd" clip-rule="evenodd" d="M290.767 172.6L303.715 177.011C302.435 160.078 305.423 142.15 312.537 148.553C316.664 152.252 316.806 183.841 313.676 188.536C310.545 193.232 297.028 186.544 287.636 181.706C287.352 177.722 290.767 172.6 290.767 172.6Z" fill="#3C3C6D"/>
<path fill-rule="evenodd" clip-rule="evenodd" d="M61.1102 267.365C64.3829 266.796 68.6516 266.796 71.782 267.65C77.0467 269.215 79.8926 272.488 81.0309 277.468C82.3115 282.448 82.7384 290.701 79.7503 295.397C77.9005 298.242 74.0587 297.816 71.2128 296.962C67.7979 296.108 63.2446 294.543 60.5411 292.409C56.5569 289.42 54.5649 283.017 54.2803 278.322C54.138 274.338 56.1301 268.219 61.1102 267.365Z" fill="#FFC8AF"/>
<path fill-rule="evenodd" clip-rule="evenodd" d="M56.9838 268.219C53.8534 270.353 54.138 275.049 54.2803 278.322C54.5649 283.017 56.5569 289.42 60.5411 292.408C62.6754 293.974 62.8177 294.258 65.6635 295.112C65.9481 294.97 66.5173 294.543 67.371 293.974C68.9362 292.835 69.7899 290.701 69.2208 288.851C68.6516 287.001 68.5093 284.725 69.6477 284.155C71.3551 283.159 72.4935 286.574 72.4935 286.574C73.4895 286.148 75.0547 285.009 74.201 283.017C73.3472 281.025 74.201 278.891 74.201 278.891C77.3313 278.891 78.7542 274.764 79.7503 274.195C81.8846 273.057 82.5961 272.488 82.1692 270.638C81.8846 269.357 81.4578 268.077 80.4617 267.081C79.3234 266.085 75.7661 264.662 74.201 264.235C65.6635 262.1 58.9759 263.666 56.9838 268.219Z" fill="#56548C"/>
<path fill-rule="evenodd" clip-rule="evenodd" d="M76.1928 299.381C68.5092 296.535 59.5449 291.413 47.0233 301.373C34.5017 311.333 37.9167 351.886 41.0471 361.135C44.1775 370.384 64.8096 371.095 71.0704 370.384C77.3312 369.672 71.2127 358.858 73.2047 351.744C75.1968 344.629 91.5602 305.072 76.1928 299.381Z" fill="#56548C"/>
<path fill-rule="evenodd" clip-rule="evenodd" d="M80.3193 300.946C83.5919 302.938 91.9871 327.554 91.9871 327.554L94.9752 308.202C94.9752 308.202 101.947 304.93 105.932 309.341C103.228 328.123 101.663 347.332 94.9752 348.471C88.2875 349.609 77.3312 331.823 71.355 323.143C65.3788 314.321 70.3589 294.969 80.3193 300.946Z" fill="#56548C"/>
<path d="M100.667 296.677L106.928 291.982L108.493 291.555L107.781 292.551L101.094 297.531L100.667 296.677Z" fill="#3C3C6D"/>
<path fill-rule="evenodd" clip-rule="evenodd" d="M96.3978 309.341C96.3978 308.772 93.9789 302.796 94.9749 300.661C95.971 298.527 97.1093 297.104 97.1093 297.104C98.1053 293.689 100.951 294.116 103.228 296.25C105.504 298.527 108.635 303.934 104.508 308.487C100.382 312.187 96.3978 309.341 96.3978 309.341Z" fill="#FFC8AF"/>
<path fill-rule="evenodd" clip-rule="evenodd" d="M16.7154 315.175C16.7154 315.175 16.7154 315.317 16.7154 315.459C14.2964 315.175 11.4506 317.309 10.3123 320.297C8.32024 325.562 11.0238 382.62 15.8616 381.34C17.4268 382.905 51.4342 401.83 51.4342 401.83L53.4263 336.234C53.4263 336.376 29.3792 315.459 16.7154 315.175Z" fill="#46467C"/>
<path fill-rule="evenodd" clip-rule="evenodd" d="M51.4343 401.83C46.5964 403.11 43.7506 346.052 45.885 340.787C48.0193 335.523 55.2761 332.961 56.5568 341.641C57.8374 350.321 64.3827 398.699 51.4343 401.83Z" fill="#EC827D"/>
<path fill-rule="evenodd" clip-rule="evenodd" d="M185.614 231.65C188.033 232.931 192.159 232.077 192.159 232.646C192.159 233.215 191.306 234.496 189.598 234.496C187.891 234.496 185.614 231.65 185.614 231.65Z" fill="#FFC8AF"/>
<path fill-rule="evenodd" clip-rule="evenodd" d="M178.784 235.493C180.207 233.927 183.764 230.37 186.752 232.22C189.598 234.07 191.59 234.07 192.444 234.354C193.44 232.931 194.863 234.07 195.717 236.062C196.57 238.054 190.594 240.615 189.598 241.327C188.602 242.038 178.784 240.473 178.784 240.473V235.493Z" fill="#FFC8AF"/>
<path fill-rule="evenodd" clip-rule="evenodd" d="M306.561 316.456C306.561 316.456 281.234 307.776 270.42 309.057C259.748 310.337 262.024 356.724 262.024 356.724C262.024 356.724 267.716 357.72 273.408 356.724C275.827 343.776 279.668 329.689 279.668 329.689C279.668 329.689 303.004 336.376 306.419 333.104C310.119 329.689 306.561 316.456 306.561 316.456Z" fill="#3C3C6D"/>
<path fill-rule="evenodd" clip-rule="evenodd" d="M274.831 375.364C274.831 375.648 274.973 375.933 275.257 376.217C275.684 376.644 276.111 376.929 276.823 377.071C277.676 377.356 278.815 377.356 279.811 377.071L292.332 373.798C294.467 373.229 296.743 373.941 297.312 375.221L300.016 382.905C300.301 383.901 301.866 384.47 303.431 384.47C303.573 384.47 303.858 384.47 304 384.47C305.138 384.328 305.992 384.043 306.561 383.474C306.846 383.19 306.988 382.905 306.988 382.62C306.988 382.478 306.988 382.336 306.988 382.194L305.992 376.787L305.565 374.368C305.281 373.087 307.273 371.949 309.549 372.091L323.352 372.945C323.494 372.945 323.636 372.945 323.778 372.945C324.348 372.945 324.917 372.802 325.344 372.66C326.34 372.376 327.051 371.806 327.193 371.095C327.478 369.957 326.34 368.961 324.49 368.818L310.972 367.253C310.403 367.253 309.834 366.969 309.407 366.826C308.269 366.257 307.7 365.261 308.411 364.407L313.249 358.431L314.245 357.151C314.387 356.866 314.53 356.724 314.53 356.439V356.297C314.53 355.585 313.818 354.874 312.68 354.447C310.972 354.02 308.98 354.305 307.984 355.301L301.154 362.273C300.016 363.411 297.312 363.696 295.747 362.842L285.645 357.435C284.933 357.008 284.079 356.866 283.226 356.866C282.372 356.866 281.376 357.008 280.664 357.435C279.953 357.862 279.526 358.431 279.668 359C279.668 359.427 279.953 359.854 280.522 360.281L281.376 360.85L289.771 366.257C291.336 367.253 290.909 368.676 288.917 369.387C288.917 369.387 288.917 369.387 288.775 369.387L276.823 373.372C275.542 373.941 274.831 374.652 274.831 375.364Z" fill="#3C3C6D"/>
<path fill-rule="evenodd" clip-rule="evenodd" d="M309.123 367.111L313.96 361.135C314.103 360.85 314.245 360.708 314.245 360.423V356.866C314.245 357.151 314.103 357.293 313.96 357.577L312.964 358.858L308.126 364.834C307.557 365.688 307.984 366.542 309.123 367.111Z" fill="#3C3C6D"/>
<path fill-rule="evenodd" clip-rule="evenodd" d="M305.423 374.51L305.85 376.929C306.561 376.218 307.842 375.791 309.265 375.933L323.067 376.787C323.209 376.787 323.352 376.787 323.494 376.787C325.201 376.787 326.767 376.075 327.051 375.079V371.38C326.909 372.091 326.197 372.518 325.201 372.945C324.774 373.087 324.205 373.229 323.636 373.229C323.494 373.229 323.352 373.229 323.209 373.229L309.407 372.376C306.988 372.233 305.138 373.229 305.423 374.51Z" fill="#3C3C6D"/>
<path fill-rule="evenodd" clip-rule="evenodd" d="M298.166 381.482V382.194C298.308 381.909 298.308 381.624 298.166 381.482Z" fill="#3C3C6D"/>
<path fill-rule="evenodd" clip-rule="evenodd" d="M274.831 375.363V379.063C274.831 379.348 274.973 379.632 275.257 379.917C276.111 380.913 278.103 381.34 279.811 380.913L292.332 377.64C294.467 377.071 296.743 377.782 297.312 379.063L300.016 386.747C300.301 387.743 301.866 388.312 303.431 388.312C303.573 388.312 303.858 388.312 304 388.312C305.708 388.17 306.846 387.458 306.988 386.462C306.988 386.462 306.988 386.32 306.988 386.035V382.763C306.988 383.047 306.704 383.332 306.561 383.616C305.992 384.185 305.138 384.47 304 384.612C303.858 384.612 303.573 384.612 303.431 384.612C301.723 384.612 300.301 383.901 300.016 383.047L297.312 375.363C296.886 374.083 294.467 373.371 292.332 373.941L279.811 377.213C278.815 377.498 277.676 377.498 276.823 377.213C276.111 377.071 275.684 376.786 275.257 376.359C274.973 375.933 274.831 375.648 274.831 375.363Z" fill="#3C3C6D"/>
<path fill-rule="evenodd" clip-rule="evenodd" d="M279.383 359.427V362.985C279.383 363.411 279.668 363.981 280.237 364.407L288.632 369.672C290.482 368.961 290.909 367.538 289.486 366.542L281.091 361.135L280.237 360.566C279.668 360.281 279.383 359.854 279.383 359.427Z" fill="#3C3C6D"/>
<path d="M278.462 384.9C280.187 384.784 281.492 383.292 281.376 381.567C281.26 379.841 279.768 378.537 278.043 378.653C276.318 378.768 275.013 380.26 275.129 381.986C275.245 383.711 276.737 385.015 278.462 384.9Z" fill="#3C3C6D"/>
<path d="M303.507 392.729C305.232 392.613 306.536 391.121 306.421 389.396C306.305 387.671 304.813 386.366 303.088 386.482C301.363 386.598 300.058 388.09 300.174 389.815C300.289 391.54 301.782 392.845 303.507 392.729Z" fill="#3C3C6D"/>
<path d="M324.005 381.491C325.73 381.375 327.034 379.883 326.919 378.158C326.803 376.433 325.311 375.128 323.586 375.244C321.861 375.36 320.556 376.852 320.672 378.577C320.787 380.302 322.28 381.607 324.005 381.491Z" fill="#3C3C6D"/>
<path d="M312.617 368.249C314.342 368.133 315.646 366.641 315.531 364.916C315.415 363.191 313.923 361.886 312.198 362.002C310.473 362.117 309.168 363.61 309.284 365.335C309.399 367.06 310.892 368.364 312.617 368.249Z" fill="#3C3C6D"/>
<path d="M281.598 369.675C283.323 369.559 284.628 368.067 284.512 366.342C284.396 364.617 282.904 363.312 281.179 363.428C279.454 363.544 278.149 365.036 278.265 366.761C278.381 368.486 279.873 369.791 281.598 369.675Z" fill="#3C3C6D"/>
<path fill-rule="evenodd" clip-rule="evenodd" d="M295.747 371.522C295.747 375.648 304.569 374.795 304.569 371.522V342.637H295.747V371.522Z" fill="#56548C"/>
<path fill-rule="evenodd" clip-rule="evenodd" d="M265.154 342.353C267.431 344.487 294.324 359.428 299.446 362.131C300.015 362.416 300.869 362.558 301.438 362.131C304.284 360.281 305.707 354.021 300.3 350.036C298.735 348.898 269.992 329.547 265.439 330.827H265.297C265.154 330.827 265.012 330.969 264.87 331.112C262.593 332.962 262.735 340.218 265.154 342.353Z" fill="#56548C"/>
<path fill-rule="evenodd" clip-rule="evenodd" d="M265.297 330.827C269.85 329.546 298.593 348.756 300.158 350.036C305.565 354.02 304.142 360.423 301.296 362.131L333.169 343.633L334.308 343.064C336.869 340.93 337.865 335.096 332.6 331.254C331.035 330.116 301.581 310.337 297.597 312.187L297.312 312.329L265.297 330.827Z" fill="#3C3C6D"/>
<path fill-rule="evenodd" clip-rule="evenodd" d="M249.36 286.575C249.36 286.575 248.649 284.44 247.084 283.302C245.519 282.164 243.384 280.598 242.246 281.168C241.25 281.737 244.665 284.44 244.665 284.44C240.965 283.017 237.408 282.733 235.843 282.591C234.278 282.448 229.582 284.298 230.578 285.721C231.432 287.144 235.131 289.136 236.839 289.99C238.404 290.843 243.526 292.551 247.084 292.124C250.783 291.555 249.36 286.575 249.36 286.575Z" fill="#FFC8AF"/>
<path fill-rule="evenodd" clip-rule="evenodd" d="M306.561 319.871C307.699 336.945 288.348 345.056 260.601 337.372C260.601 337.372 258.752 345.198 253.345 368.961C245.661 370.099 240.823 368.961 240.823 368.961C240.823 368.961 239.969 322.574 253.345 320.582C266.72 318.59 293.328 318.305 293.328 317.594L306.561 319.871Z" fill="#56548C"/>
<path fill-rule="evenodd" clip-rule="evenodd" d="M295.178 224.251C291.905 223.682 287.636 223.682 284.506 224.536C279.241 226.101 276.395 229.374 275.257 234.354C273.976 239.334 273.55 247.587 276.538 252.283C278.387 255.128 282.229 254.702 285.075 253.848C288.49 252.994 293.043 251.429 295.747 249.295C299.731 246.306 301.723 239.903 302.008 235.208C302.15 231.081 300.016 224.963 295.178 224.251Z" fill="#FFC8AF"/>
<path fill-rule="evenodd" clip-rule="evenodd" d="M299.162 225.105C302.292 227.239 302.008 231.935 301.866 235.208C301.581 239.903 299.589 246.306 295.605 249.294C293.47 250.86 293.328 251.144 290.482 251.998C290.198 251.856 289.629 251.429 288.775 250.86C287.21 249.721 286.356 247.587 286.925 245.737C287.494 243.887 287.637 241.611 286.498 241.042C284.791 240.046 283.652 243.461 283.652 243.461C282.656 243.034 281.091 241.895 281.945 239.903C282.799 237.911 281.945 235.777 281.945 235.777C278.815 235.777 277.392 231.65 276.396 231.081C274.261 229.943 273.55 229.374 273.977 227.524C274.261 226.243 274.688 224.963 275.684 223.967C276.822 222.971 280.38 221.548 281.945 221.263C290.625 218.987 297.17 220.552 299.162 225.105Z" fill="#EC827D"/>
<path fill-rule="evenodd" clip-rule="evenodd" d="M278.672 256.124C285.36 251.428 294.182 245.31 306.561 255.27C319.083 265.231 318.087 308.772 315.099 318.02C311.968 327.269 291.336 327.981 285.075 327.269C278.957 326.416 284.933 315.744 282.941 308.629C280.949 301.515 265.297 265.515 278.672 256.124Z" fill="#F9FBFC"/>
<path fill-rule="evenodd" clip-rule="evenodd" d="M275.968 265.516C275.257 265.942 274.403 267.365 273.407 269.357C273.265 277.895 276.253 288.282 278.957 296.393C281.091 293.405 283.083 290.132 284.933 287.571C290.767 278.891 285.787 259.539 275.968 265.516Z" fill="#DCE6EA"/>
<path fill-rule="evenodd" clip-rule="evenodd" d="M339.572 272.061C339.572 272.061 339.572 272.203 339.572 272.346C341.991 272.061 344.837 274.195 345.975 277.183C347.967 282.448 345.264 339.507 340.426 338.226C338.861 339.791 304.853 358.716 304.853 358.716L302.861 293.12C302.719 293.12 326.766 272.346 339.572 272.061Z" fill="#46467C"/>
<path fill-rule="evenodd" clip-rule="evenodd" d="M304.711 358.716C309.549 359.996 312.395 302.938 310.26 297.673C308.126 292.408 300.869 289.847 299.589 298.527C298.45 307.064 291.763 355.443 304.711 358.716Z" fill="#56548C"/>
<path fill-rule="evenodd" clip-rule="evenodd" d="M276.538 258.97C273.265 260.962 264.016 288.709 264.016 288.709L249.929 284.582C248.08 284.582 243.953 287.855 244.807 291.839C253.629 298.527 258.467 300.946 265.155 302.084C271.842 303.222 279.526 289.705 285.502 281.025C291.478 272.345 286.498 252.852 276.538 258.97Z" fill="#F9FBFC"/>
<path fill-rule="evenodd" clip-rule="evenodd" d="M213.503 319.728L196.144 309.768L166.974 326.701L164.698 326.985V327.554C164.698 327.839 164.84 327.981 164.982 328.124L182.626 338.368C183.196 338.653 184.049 338.653 184.761 338.226L214.073 321.294C214.499 321.009 214.642 320.724 214.642 320.582V319.586L213.503 319.728Z" fill="#3C3C6D"/>
<path fill-rule="evenodd" clip-rule="evenodd" d="M196.144 308.772L164.698 326.985L157.298 303.65C157.014 302.938 157.298 302.084 157.868 301.8L187.606 284.583C188.175 284.298 188.745 284.583 189.029 285.294L196.144 308.772Z" fill="#56548C"/>
<path fill-rule="evenodd" clip-rule="evenodd" d="M194.436 307.776L165.409 324.566L158.721 304.076L188.175 287.144L194.436 307.776Z" fill="#DFAFF6"/>
<path fill-rule="evenodd" clip-rule="evenodd" d="M213.93 320.297L184.618 337.23C184.049 337.657 183.053 337.657 182.484 337.372L164.555 326.985L196.001 308.772L213.93 319.159C214.641 319.444 214.499 320.013 213.93 320.297Z" fill="#56548C"/>
<path fill-rule="evenodd" clip-rule="evenodd" d="M213.93 320.297L184.618 337.23C184.049 337.657 183.053 337.657 182.484 337.372L164.555 326.985L196.001 308.772L213.93 319.159C214.641 319.444 214.499 320.013 213.93 320.297Z" fill="#56548C"/>
<path fill-rule="evenodd" clip-rule="evenodd" d="M204.824 315.46L176.366 331.965L167.828 327.128L196.286 310.622L204.824 315.46Z" fill="#112B46"/>
<path fill-rule="evenodd" clip-rule="evenodd" d="M200.839 325.705L194.009 329.689C193.583 329.973 193.013 329.973 192.729 329.689L189.456 327.839C189.172 327.697 189.172 327.27 189.598 327.128L196.428 323.143C196.855 322.859 197.424 322.859 197.709 323.143L200.982 324.993C201.266 325.278 201.266 325.562 200.839 325.705Z" fill="#3C3C6D"/>
<path fill-rule="evenodd" clip-rule="evenodd" d="M49.869 364.123C48.7307 381.198 68.0822 389.308 95.8288 381.625C95.8288 381.625 97.6786 389.45 103.086 413.213C110.769 414.351 115.323 407.664 115.323 407.664C115.323 407.664 116.461 366.826 103.086 364.692C89.7103 362.7 63.102 362.415 63.102 361.704L49.869 364.123Z" fill="#3C3C6D"/>
<path fill-rule="evenodd" clip-rule="evenodd" d="M61.11 267.365C64.3827 266.796 68.6514 266.796 71.7818 267.65C77.0465 269.215 79.8923 272.488 81.0306 277.468C82.3113 282.448 82.7381 290.701 79.75 295.397C77.9003 298.242 74.0584 297.816 71.2126 296.962C67.7976 296.108 63.2443 294.543 60.5408 292.409C56.5567 289.42 54.5646 283.017 54.28 278.322C54.1377 274.338 56.1298 268.219 61.11 267.365Z" fill="#FFC8AF"/>
<path fill-rule="evenodd" clip-rule="evenodd" d="M56.9834 268.219C53.853 270.353 53.853 275.191 53.9953 278.464C54.2799 283.159 56.5566 289.42 60.5407 292.408C62.675 293.974 62.8173 294.258 65.6631 295.112C65.9477 294.97 66.5169 294.543 67.3706 293.974C68.9358 292.835 69.7896 290.701 69.2204 288.851C68.6512 287.001 68.509 284.725 69.6473 284.155C71.3548 283.159 72.4931 286.574 72.4931 286.574C73.4891 286.148 75.0543 285.009 74.2006 283.017C73.3468 281.025 74.2006 278.891 74.2006 278.891C77.331 278.891 78.7539 274.764 79.7499 274.195C81.8843 273.057 82.5957 272.488 82.1688 270.638C81.8843 269.357 81.4574 268.077 80.4614 267.081C79.323 266.085 75.7658 264.662 74.2006 264.235C65.6631 262.1 58.9755 263.666 56.9834 268.219Z" fill="#3C3C6D"/>
<path fill-rule="evenodd" clip-rule="evenodd" d="M76.1928 299.381C68.5092 296.535 59.5449 291.413 47.0233 301.373C34.5017 311.333 37.9167 351.886 41.0471 361.135C44.1775 370.384 64.8096 371.095 71.0704 370.384C77.3312 369.672 71.2127 358.858 73.2047 351.744C75.1968 344.629 91.5602 305.072 76.1928 299.381Z" fill="#C58AE1"/>
<path fill-rule="evenodd" clip-rule="evenodd" d="M80.3193 300.946C83.5919 302.938 91.9871 327.554 91.9871 327.554L94.9752 308.202C94.9752 308.202 101.947 304.93 105.932 309.341C103.228 328.123 101.663 347.332 94.9752 348.471C88.2875 349.609 77.3312 331.823 71.355 323.143C65.3788 314.321 70.3589 294.969 80.3193 300.946Z" fill="#DFAFF6"/>
<path d="M100.667 296.677L106.928 291.982L108.493 291.555L107.781 292.551L101.094 297.531L100.667 296.677Z" fill="#3C3C6D"/>
<path fill-rule="evenodd" clip-rule="evenodd" d="M96.3978 309.341C96.3978 308.772 93.9789 302.796 94.9749 300.661C95.971 298.527 97.1093 297.104 97.1093 297.104C98.1053 293.689 100.951 294.116 103.228 296.25C105.504 298.527 108.635 303.934 104.508 308.487C100.382 312.187 96.3978 309.341 96.3978 309.341Z" fill="#FFC8AF"/>
<path fill-rule="evenodd" clip-rule="evenodd" d="M16.7154 315.175C16.7154 315.175 16.7154 315.317 16.7154 315.459C14.2964 315.175 11.4506 317.309 10.3123 320.297C8.32024 325.562 11.0238 382.62 15.8616 381.34C17.4268 382.905 51.4342 401.83 51.4342 401.83L53.4263 336.234C53.4263 336.376 29.3792 315.459 16.7154 315.175Z" fill="#46467C"/>
<path fill-rule="evenodd" clip-rule="evenodd" d="M51.4343 401.83C46.5964 403.11 43.7506 346.052 45.885 340.787C48.0193 335.523 55.2761 332.961 56.5568 341.641C57.8374 350.321 64.3827 398.699 51.4343 401.83Z" fill="#56548C"/>
<path fill-rule="evenodd" clip-rule="evenodd" d="M250.498 432.28L239.684 431.284C239.684 431.284 232.712 433.276 228.728 433.845C224.601 434.414 221.756 433.703 220.76 435.268C220.617 435.553 220.475 435.837 220.475 436.264C220.333 438.398 222.183 440.391 223.179 441.244C225.313 442.809 227.59 443.663 233.993 443.236C235.7 442.525 238.546 442.098 239.684 443.806C241.392 444.517 247.653 445.513 250.498 443.806V442.383C252.206 440.533 250.498 432.28 250.498 432.28Z" fill="#56548C"/>
<path fill-rule="evenodd" clip-rule="evenodd" d="M255.194 332.961C258.751 351.316 245.945 371.379 247.083 386.32C248.506 406.667 249.218 415.489 251.352 432.137C251.352 432.137 243.099 436.975 236.981 431.426C230.72 398.984 228.016 393.15 228.87 333.815L255.194 332.961Z" fill="#C58AE1"/>
<path fill-rule="evenodd" clip-rule="evenodd" d="M204.965 248.298C201.266 252.567 204.396 270.069 209.519 274.338C214.641 278.606 218.91 277.041 223.321 273.341C227.732 269.5 230.293 260.108 229.297 253.136C227.874 243.318 215.353 236.204 204.965 248.298Z" fill="#FFC8AF"/>
<path fill-rule="evenodd" clip-rule="evenodd" d="M203.685 250.148C203.685 250.148 202.973 251.998 203.4 255.128C203.827 258.258 204.965 259.966 205.535 261.389C206.104 262.812 205.961 263.808 206.531 264.377C207.1 264.946 207.1 260.393 208.523 259.254C209.946 258.116 212.08 263.096 209.092 266.084C208.665 269.072 212.649 274.195 214.072 275.049C215.495 275.902 221.471 274.906 225.171 271.349C228.87 267.65 229.724 261.816 230.578 254.274C231.431 246.733 225.74 244.172 225.74 244.172C225.597 239.334 209.519 240.614 203.685 243.176C200.128 244.883 203.685 250.148 203.685 250.148Z" fill="#56548C"/>
<path fill-rule="evenodd" clip-rule="evenodd" d="M181.488 343.063C181.488 343.063 180.492 343.348 178.073 344.344C175.654 345.34 170.673 345.625 167.543 345.198C164.413 344.629 160.002 343.917 160.855 342.779C161.709 341.641 177.646 337.656 178.357 337.941C179.069 338.368 181.488 343.063 181.488 343.063Z" fill="#FFC8AF"/>
<path fill-rule="evenodd" clip-rule="evenodd" d="M229.866 442.098L219.052 441.102C219.052 441.102 212.08 443.094 208.096 443.663C203.97 444.232 201.124 443.52 200.128 445.086C199.985 445.37 199.843 445.655 199.843 446.082C199.701 448.216 201.551 450.208 202.547 451.062C204.681 452.627 206.958 453.481 213.361 453.054C215.068 452.343 217.914 451.916 219.052 453.623C220.76 454.335 227.021 455.331 229.866 453.623V452.2C231.432 450.35 229.866 442.098 229.866 442.098Z" fill="#56548C"/>
<path fill-rule="evenodd" clip-rule="evenodd" d="M247.083 337.514C248.222 356.297 232.854 376.786 232.001 391.869C230.72 412.644 230.72 427.299 230.72 444.232C230.72 444.232 216.918 450.777 216.349 440.675C214.357 407.521 212.08 398.841 220.76 338.368L247.083 337.514Z" fill="#DFAFF6"/>
<path fill-rule="evenodd" clip-rule="evenodd" d="M210.942 277.468C218.626 273.626 231.147 263.097 241.392 276.899C250.926 289.847 254.91 328.55 256.048 336.376C257.471 346.906 228.301 352.455 221.898 352.17C220.475 352.17 219.479 351.459 219.052 350.036C218.483 348.186 220.048 346.763 219.622 345.056C219.337 344.06 218.768 343.206 218.056 342.352C217.487 341.499 216.776 340.645 216.634 339.649C216.349 337.941 217.487 336.376 217.63 334.811C217.772 333.53 217.487 332.392 217.06 331.254C214.357 321.436 209.804 312.329 207.242 302.369C205.535 295.681 202.974 285.009 208.523 279.46C209.234 278.464 210.088 277.61 210.942 277.468Z" fill="#3C3C6D"/>
<path fill-rule="evenodd" clip-rule="evenodd" d="M206.246 282.59C200.128 302.084 199.559 311.902 193.44 319.586C193.013 320.155 176.365 338.083 176.365 338.083C176.365 338.083 178.642 342.068 184.476 343.206C193.725 339.222 204.396 324.566 207.1 321.435C208.665 319.586 217.914 302.795 219.337 294.116C220.618 285.578 208.807 274.906 206.246 282.59Z" fill="#3C3C6D"/>
<path fill-rule="evenodd" clip-rule="evenodd" d="M215.922 233.642L198.563 223.682L169.393 240.615L167.116 240.899V241.468C167.116 241.753 167.259 241.895 167.401 242.038L185.045 252.283C185.614 252.567 186.468 252.567 187.179 252.14L216.491 235.208C216.918 234.923 217.06 234.638 217.06 234.496V233.5L215.922 233.642Z" fill="#3C3C6D"/>
<path fill-rule="evenodd" clip-rule="evenodd" d="M216.349 234.354L187.037 251.286C186.468 251.713 185.472 251.713 184.903 251.429L166.974 241.042L198.42 222.828L216.349 233.216C217.06 233.358 217.06 233.927 216.349 234.354Z" fill="#56548C"/>
<path fill-rule="evenodd" clip-rule="evenodd" d="M216.349 234.354L187.037 251.286C186.468 251.713 185.472 251.713 184.903 251.429L166.974 241.042L198.42 222.828L216.349 233.216C217.06 233.358 217.06 233.927 216.349 234.354Z" fill="#56548C"/>
<path fill-rule="evenodd" clip-rule="evenodd" d="M214.784 234.069L186.326 250.433L177.788 245.595L206.246 229.089L214.784 234.069Z" fill="#3C3C6D"/>
<path fill-rule="evenodd" clip-rule="evenodd" d="M194.436 233.358L187.606 237.342C187.179 237.626 186.61 237.626 186.326 237.342L183.053 235.492C182.768 235.35 182.768 234.923 183.195 234.781L190.025 230.796C190.452 230.512 191.021 230.512 191.306 230.796L194.578 232.646C194.863 232.789 194.863 233.215 194.436 233.358Z" fill="#3C3C6D"/>
<path fill-rule="evenodd" clip-rule="evenodd" d="M143.354 199.919C151.18 203.761 151.892 226.67 157.868 232.504C161.283 235.777 174.8 233.215 179.354 233.215C181.203 237.342 178.642 242.18 178.642 242.18C152.888 243.46 149.757 244.172 143.212 231.65C138.232 221.832 132.967 197.216 143.354 199.919Z" fill="#DFAFF6"/>
<path fill-rule="evenodd" clip-rule="evenodd" d="M195.29 226.671C188.46 223.256 186.895 220.552 183.48 217.564C177.504 212.299 175.085 191.382 170.104 188.821C166.832 188.11 165.124 189.675 164.413 192.379C164.271 192.948 164.128 193.517 164.128 194.228C163.844 197.643 164.697 202.197 166.12 206.608C167.259 210.307 168.966 213.722 170.531 216.283C171.812 218.275 173.093 220.125 174.515 221.833C177.93 225.959 182.341 229.232 192.017 232.931C192.159 232.647 196.997 230.37 195.29 226.671Z" fill="#DFAFF6"/>
<path fill-rule="evenodd" clip-rule="evenodd" d="M192.444 231.935C192.586 232.362 194.009 233.785 195.148 235.208C196.286 236.631 198.278 238.907 198.847 238.338C199.416 237.769 198.278 235.492 198.278 235.492C198.278 235.492 201.835 238.907 202.404 239.903C202.973 241.042 202.689 237.769 201.835 236.346C204.112 239.761 204.681 240.615 204.823 239.761C204.966 238.907 203.116 234.212 203.4 234.639C205.962 238.623 206.958 239.05 206.673 237.342C206.388 235.492 203.827 232.504 202.262 231.651C206.815 234.639 207.1 234.212 205.962 232.931C204.823 231.651 200.697 228.378 195.005 227.667C191.59 230.797 192.444 231.935 192.444 231.935Z" fill="#FFC8AF"/>
<path fill-rule="evenodd" clip-rule="evenodd" d="M195.432 239.05C194.009 236.773 191.875 234.212 189.171 233.5C187.322 232.931 185.33 233.358 183.48 233.927C182.057 234.354 179.923 234.639 178.357 235.208C177.646 236.915 177.361 238.481 177.361 240.046C177.646 240.188 177.93 240.188 178.357 240.33C179.923 240.473 181.488 241.042 183.053 241.042C184.049 241.042 185.756 241.326 186.752 241.042C186.326 241.184 185.899 241.326 185.899 241.753C185.899 242.038 186.183 242.465 186.468 242.465C188.745 243.034 190.737 240.188 192.16 238.908C192.017 239.192 197.282 242.038 195.432 239.05Z" fill="#FFC8AF"/>
<path fill-rule="evenodd" clip-rule="evenodd" d="M171.101 165.77C171.101 165.77 171.101 165.912 171.243 165.912C172.239 167.477 172.381 169.469 172.239 171.319C171.954 174.734 169.82 178.861 171.385 181.991C172.097 183.414 173.519 184.41 173.946 185.833C174.516 187.825 173.093 189.959 171.243 191.098C168.966 192.521 166.12 193.09 163.701 192.236C161.14 191.382 159.148 189.106 158.864 186.544C158.437 183.414 160.429 180.426 162.279 177.722C163.275 176.157 164.697 174.165 164.84 172.315C164.982 170.608 163.986 169.043 164.413 167.193C164.697 165.912 165.409 164.489 166.69 164.062C168.112 163.351 170.105 164.347 171.101 165.77Z" fill="#606BF1"/>
<path fill-rule="evenodd" clip-rule="evenodd" d="M152.318 180.568C152.318 180.568 154.452 187.825 149.614 190.813C149.472 192.521 154.452 200.062 159.432 198.781C162.278 198.07 163.843 193.943 163.843 193.943C163.559 191.382 162.136 185.833 162.136 185.833L152.318 180.568Z" fill="#FFC8AF"/>
<path fill-rule="evenodd" clip-rule="evenodd" d="M169.251 165.912C169.251 165.912 170.531 170.466 170.104 174.023C169.678 177.58 169.251 184.552 166.12 186.829C162.99 189.106 158.437 186.402 155.449 183.983C152.46 181.422 149.33 176.726 149.188 171.177C149.188 165.485 151.322 158.655 159.433 158.94C167.685 159.367 169.251 165.912 169.251 165.912Z" fill="#FFC8AF"/>
<path fill-rule="evenodd" clip-rule="evenodd" d="M163.559 162.497C165.693 165.059 164.697 168.189 161.994 170.181C160.713 171.035 159.29 171.604 158.01 172.6C156.729 173.454 155.733 175.019 156.018 176.442C156.16 177.865 157.441 179.145 157.156 180.426C156.871 181.564 155.591 182.276 155.449 183.414C155.164 184.552 156.16 185.548 156.729 186.544C157.583 188.252 157.725 190.386 156.871 192.094C155.022 196.078 150.184 195.793 146.627 194.086C142.927 192.378 140.508 188.252 141.646 184.268C142.216 182.133 143.638 180.284 144.35 178.292C145.204 175.588 145.061 172.742 145.204 170.039C145.488 164.774 149.472 158.798 155.022 157.944C158.579 157.517 161.282 159.794 163.559 162.497Z" fill="#606BF1"/>
<path fill-rule="evenodd" clip-rule="evenodd" d="M166.263 159.367C164.555 158.228 158.152 156.236 158.152 159.509C158.152 162.782 162.99 166.054 165.551 167.62C166.69 168.189 167.828 168.758 168.824 169.612C170.104 170.608 170.247 172.6 171.385 173.453C173.235 171.746 172.666 167.477 171.954 165.343C171.101 162.497 168.682 160.932 166.263 159.367Z" fill="#606BF1"/>
<path fill-rule="evenodd" clip-rule="evenodd" d="M216.349 234.354L187.037 251.286L197.425 229.516C197.709 228.805 198.421 227.951 198.99 227.666L226.452 211.73C227.021 211.445 227.163 211.73 226.736 212.441L216.349 234.354Z" fill="#56548C"/>
<path fill-rule="evenodd" clip-rule="evenodd" d="M71.6395 297.531V295.824C71.6395 295.824 67.3708 293.12 62.9598 292.978C58.5488 292.836 56.4144 293.974 56.2721 294.401C56.1298 294.97 55.9875 296.393 55.9875 296.393L71.6395 297.531Z" fill="#C58AE1"/>
<path fill-rule="evenodd" clip-rule="evenodd" d="M162.705 187.683C162.705 187.683 162.278 190.671 162.421 191.098C162.563 191.667 163.559 192.236 163.559 192.236H165.551L162.705 187.683Z" fill="#606BF1"/>
<path fill-rule="evenodd" clip-rule="evenodd" d="M175.654 206.608C175.512 202.624 174.8 200.062 174.089 198.497C174.089 198.924 174.089 199.493 174.231 199.92C174.373 205.185 173.52 212.726 172.666 218.845C173.377 219.841 173.947 220.694 174.658 221.548C175.227 216.283 175.796 210.734 175.654 206.608Z" fill="#C58AE1"/>
<path fill-rule="evenodd" clip-rule="evenodd" d="M105.932 230.797C105.932 236.773 103.939 246.591 102.374 253.848C102.943 254.844 103.655 255.697 104.224 256.409C105.647 249.437 107.07 241.184 106.928 236.204C106.928 234.069 106.501 232.22 105.932 230.797Z" fill="#3C3C6D"/>
<path fill-rule="evenodd" clip-rule="evenodd" d="M110.342 182.987L102.801 178.718V158.513L110.342 162.782V182.987Z" fill="#EC827D"/>
<path fill-rule="evenodd" clip-rule="evenodd" d="M98.5324 176.299L91.1333 172.031V144L98.5324 148.411V176.299Z" fill="#2B3BBD"/>
<path fill-rule="evenodd" clip-rule="evenodd" d="M122.01 189.817L114.611 185.548V144.427L122.01 148.838V189.817Z" fill="#FBD15B"/>
<path fill-rule="evenodd" clip-rule="evenodd" d="M222.04 167.478C222.04 166.055 221.044 164.632 219.194 163.636C215.495 161.501 209.519 161.501 205.819 163.636C203.969 164.774 203.115 166.055 203.115 167.478V176.015C203.115 177.438 204.112 178.861 205.961 179.857C209.661 181.991 215.637 181.991 219.337 179.857C221.186 178.718 222.04 177.438 222.04 176.015V167.478Z" fill="#3C3C6D"/>
<path fill-rule="evenodd" clip-rule="evenodd" d="M229.439 148.268C230.72 146.276 231.858 144.142 232.57 141.865C233.708 138.593 234.42 135.178 234.42 131.763C234.562 125.075 232.143 118.387 226.025 114.261C225.598 113.976 225.028 113.692 224.459 113.407C218.768 110.704 207.242 109.281 198.562 115.399C193.725 117.391 188.744 125.502 190.452 134.609C191.448 140.158 193.582 145.565 196.713 150.403C199.701 155.098 202.262 159.367 203.116 164.916L203.258 165.201C203.116 166.482 203.969 167.904 205.962 168.901C209.519 170.75 215.353 170.75 218.91 168.901C220.902 167.904 221.756 166.482 221.471 165.201C222.325 160.505 224.317 156.664 226.736 152.537C227.732 151.114 228.586 149.691 229.439 148.268Z" fill="#DFAFF6"/>
<path d="M210.088 163.351L206.816 133.328L208.95 136.6C209.234 137.027 209.661 137.027 210.088 136.885L212.792 135.32L215.068 140.158C215.211 140.585 215.638 140.727 216.064 140.585L218.91 139.446L214.784 165.912C214.784 166.339 215.068 166.766 215.495 166.908C215.922 166.908 216.349 166.624 216.491 166.197L220.76 138.308C220.76 138.023 220.76 137.739 220.475 137.596C220.191 137.454 219.906 137.312 219.622 137.454L216.207 138.735L213.788 133.897C213.645 133.755 213.503 133.47 213.361 133.47C213.076 133.47 212.934 133.47 212.649 133.47L209.804 135.035L206.246 129.344C206.104 129.059 205.677 128.917 205.25 129.059C204.823 129.201 204.681 129.486 204.681 129.913L208.238 163.493C208.238 163.92 208.665 164.205 209.092 164.205C209.804 164.205 210.23 163.778 210.088 163.351Z" fill="white"/>
<path fill-rule="evenodd" clip-rule="evenodd" d="M339.857 245.737C338.861 246.591 337.723 247.444 336.584 248.014C330.893 251.286 325.913 250.859 323.067 247.444L336.584 229.374L339.857 245.737Z" fill="#EC827D"/>
<path fill-rule="evenodd" clip-rule="evenodd" d="M352.663 220.125C352.663 229.089 347.114 239.761 339.715 245.737L336.442 229.516V210.876C345.407 205.753 352.663 209.88 352.663 220.125Z" fill="#FBD15B"/>
<path fill-rule="evenodd" clip-rule="evenodd" d="M336.584 210.876V229.516L323.067 247.445C321.359 245.453 320.363 242.464 320.363 238.765C320.363 228.52 327.62 215.998 336.584 210.876Z" fill="#3C3C6D"/>
</svg>
